<svg width="727" height="622" viewBox="0 0 727 622" fill="none" xmlns="http://www.w3.org/2000/svg">
<g id="Group 13">
<rect id="Rectangle 5" x="0.5" y="42.5" width="726" height="579" stroke="#E8E9F3"/>
<rect id="Rectangle 5_2" x="40.5" y="72.5" width="656" height="274" stroke="#E8E9F3"/>
<rect id="Rectangle 5 Copy" x="368.5" y="377.5" width="323" height="214" stroke="#E8E9F3"/>
<rect id="Rectangle 5 Copy 2" x="14.5" y="377.5" width="323" height="214" stroke="#E8E9F3"/>
<path id="Oval 4" d="M416.5 48.5C416.5 75.0097 395.01 96.5 368.5 96.5C341.99 96.5 320.5 75.0097 320.5 48.5C320.5 21.9903 341.99 0.5 368.5 0.5C395.01 0.5 416.5 21.9903 416.5 48.5Z" stroke="#E8E9F3"/>
<g id="Group 5">
<path id="Oval 2" d="M376.5 60C377.328 60 378 59.3284 378 58.5C378 57.6716 377.328 57 376.5 57C375.672 57 375 57.6716 375 58.5C375 59.3284 375.672 60 376.5 60Z" fill="#DCDDEA"/>
<path id="Oval 2_2" d="M360.5 60C361.328 60 362 59.3284 362 58.5C362 57.6716 361.328 57 360.5 57C359.672 57 359 57.6716 359 58.5C359 59.3284 359.672 60 360.5 60Z" fill="#DCDDEA"/>
<path id="Oval 2_3" d="M368.5 60C369.328 60 370 59.3284 370 58.5C370 57.6716 369.328 57 368.5 57C367.672 57 367 57.6716 367 58.5C367 59.3284 367.672 60 368.5 60Z" fill="#DCDDEA"/>
<path id="Shape" d="M358.211 48C358.533 48 358.814 47.886 359.055 47.6959L363.959 43.2102L369.064 47.0116C369.506 47.3538 370.149 47.3538 370.551 47.0116L377.385 41.8037L377.184 44.3506C377.144 44.9969 377.626 45.5291 378.309 45.5671C378.35 45.5671 378.39 45.5671 378.39 45.5671C379.033 45.5671 379.555 45.1109 379.596 44.5027L379.998 39.5988C380.038 38.9526 379.555 38.4204 378.872 38.3824L373.687 38.0022C373.003 37.9642 372.441 38.4204 372.4 39.0666C372.36 39.7129 372.843 40.2451 373.526 40.2831L375.335 40.4351L369.788 44.6547L364.643 40.7773C364.16 40.4351 363.477 40.4731 363.075 40.8533L357.367 46.0233C356.885 46.4794 356.885 47.1637 357.327 47.6199C357.568 47.886 357.89 48 358.211 48Z" fill="#DCDDEA"/>
</g>
</g>
</svg>
