<svg width="722" height="653" viewBox="0 0 722 653" fill="none" xmlns="http://www.w3.org/2000/svg">
<g id="Group 10" opacity="0.3">
<g id="Group 3">
<rect id="Rectangle 4" x="0.5" y="56.3874" width="721" height="567.679" stroke="#212134"/>
<rect id="Rectangle 4_2" x="46.5" y="103.45" width="670" height="103.911" stroke="#363853"/>
<rect id="Rectangle 4 Copy 3" x="46.5" y="334.844" width="319" height="242.159" stroke="#363853"/>
<rect id="Rectangle 4 Copy 4" x="396.5" y="334.844" width="319" height="242.159" stroke="#363853"/>
<rect id="Rectangle 4 Copy" x="46.5" y="237.5" width="669" height="26" stroke="#363853"/>
<rect id="Rectangle 4 Copy 2" x="46.5" y="278.5" width="669" height="26" stroke="#363853"/>
</g>
<g id="Group 7">
<path id="Oval 3" d="M242.5 41.6704C242.5 64.399 223.705 82.8408 200.5 82.8408C177.295 82.8408 158.5 64.399 158.5 41.6704C158.5 18.9419 177.295 0.5 200.5 0.5C223.705 0.5 242.5 18.9419 242.5 41.6704Z" fill="#171826" stroke="#212234"/>
<g id="Group 5">
<path id="Rectangle 8" fill-rule="evenodd" clip-rule="evenodd" d="M197.395 36.2778C196.917 36.2778 196.529 36.6651 196.529 37.1429C196.529 37.6207 196.917 38.008 197.395 38.008H203.605C204.083 38.008 204.471 37.6207 204.471 37.1429C204.471 36.6651 204.083 36.2778 203.605 36.2778H197.395ZM193.305 41.2671C193 41.8661 193 42.6501 193 44.2183V45.6398C193 47.208 193 47.9921 193.305 48.591C193.574 49.1179 194.002 49.5462 194.529 49.8147C195.128 50.1198 195.912 50.1198 197.48 50.1198H203.52C205.088 50.1198 205.872 50.1198 206.471 49.8147C206.998 49.5462 207.426 49.1179 207.695 48.591C208 47.9921 208 47.208 208 45.6398V44.2183C208 42.6501 208 41.8661 207.695 41.2671C207.426 40.7403 206.998 40.3119 206.471 40.0435C205.872 39.7383 205.088 39.7383 203.52 39.7383H197.48C195.912 39.7383 195.128 39.7383 194.529 40.0435C194.002 40.3119 193.574 40.7403 193.305 41.2671ZM199.177 44.4965C199.177 45.2132 198.584 45.7942 197.853 45.7942C197.122 45.7942 196.529 45.2132 196.529 44.4965C196.529 43.7798 197.122 43.1988 197.853 43.1988C198.584 43.1988 199.177 43.7798 199.177 44.4965ZM203.147 45.7942C203.878 45.7942 204.471 45.2132 204.471 44.4965C204.471 43.7798 203.878 43.1988 203.147 43.1988C202.416 43.1988 201.823 43.7798 201.823 44.4965C201.823 45.2132 202.416 45.7942 203.147 45.7942Z" fill="#212235"/>
<path id="Oval 2" d="M200.5 31.3754C201.328 31.3754 202 30.7169 202 29.9047C202 29.0924 201.328 28.4339 200.5 28.4339C199.672 28.4339 199 29.0924 199 29.9047C199 30.7169 199.672 31.3754 200.5 31.3754Z" fill="#131134"/>
</g>
</g>
<g id="Group 7 Copy">
<path id="Oval 3_2" d="M332.5 601.525C332.5 629.668 309.228 652.5 280.5 652.5C251.772 652.5 228.5 629.668 228.5 601.525C228.5 573.381 251.772 550.55 280.5 550.55C309.228 550.55 332.5 573.381 332.5 601.525Z" fill="#171826" stroke="#212234"/>
<g id="Group 16">
<rect id="Path" x="270.595" y="600.746" width="19.8097" height="2.13738" rx="1.06869" fill="#131134"/>
<rect id="Path_2" x="281.569" y="591.91" width="19.8097" height="2.13738" rx="1.06869" transform="rotate(90 281.569 591.91)" fill="#131134"/>
</g>
</g>
</g>
</svg>
