<svg width="202" height="48" viewBox="0 0 202 48" fill="none" xmlns="http://www.w3.org/2000/svg">
<path d="M43.574 7.758C43.1487 8.858 42.65 10.0093 42.078 11.212C41.5207 12.4 40.8533 13.5807 40.076 14.754C39.856 15.0913 39.6067 15.26 39.328 15.26C39.152 15.26 39.0053 15.2233 38.888 15.15C38.7707 15.062 38.668 14.952 38.58 14.82C38.1987 14.2333 37.854 13.61 37.546 12.95C37.238 12.29 36.9373 11.542 36.644 10.706C36.2187 11.454 35.742 12.2093 35.214 12.972C34.7007 13.7347 34.136 14.446 33.52 15.106C33.4027 15.238 33.278 15.326 33.146 15.37C33.0287 15.414 32.9333 15.4287 32.86 15.414C32.552 15.37 32.31 15.1793 32.134 14.842C31.5913 13.83 31.2247 12.7153 31.034 11.498C30.8433 10.2807 30.7407 9.034 30.726 7.758C30.726 7.64067 30.77 7.52333 30.858 7.406C30.946 7.28867 31.078 7.23733 31.254 7.252C31.518 7.26667 31.7233 7.36933 31.87 7.56C32.0167 7.736 32.1047 7.956 32.134 8.22C32.1633 8.58667 32.2 9.00467 32.244 9.474C32.288 9.92867 32.3467 10.398 32.42 10.882C32.4933 11.366 32.5887 11.8353 32.706 12.29C32.8233 12.7447 32.97 13.1407 33.146 13.478C33.366 13.1993 33.6007 12.8913 33.85 12.554C34.0993 12.2167 34.3413 11.8647 34.576 11.498C34.8253 11.1313 35.06 10.7647 35.28 10.398C35.5 10.0167 35.698 9.64267 35.874 9.276C35.9913 9.02667 36.138 8.86533 36.314 8.792C36.49 8.71867 36.6293 8.682 36.732 8.682C37.172 8.682 37.4727 8.89467 37.634 9.32C37.8833 9.936 38.1327 10.5887 38.382 11.278C38.646 11.9673 38.932 12.62 39.24 13.236C39.504 12.8253 39.7753 12.3633 40.054 11.85C40.3327 11.3367 40.604 10.816 40.868 10.288C41.132 9.74533 41.3813 9.20267 41.616 8.66C41.8653 8.11733 42.0853 7.604 42.276 7.12C42.3493 6.944 42.474 6.79733 42.65 6.68C42.826 6.56267 43.0167 6.57 43.222 6.702C43.3833 6.80467 43.4933 6.97333 43.552 7.208C43.6253 7.428 43.6327 7.61133 43.574 7.758ZM50.4487 11.08C49.8767 11.4173 49.2607 11.6813 48.6007 11.872C47.9407 12.048 47.2293 12.136 46.4667 12.136C46.496 12.6493 46.6427 13.06 46.9067 13.368C47.1707 13.6613 47.5007 13.8373 47.8967 13.896C48.1313 13.9253 48.366 13.918 48.6007 13.874C48.85 13.83 49.0773 13.764 49.2827 13.676C49.5027 13.5733 49.7007 13.4633 49.8767 13.346C50.0527 13.2287 50.2067 13.1113 50.3387 12.994C50.4707 12.8767 50.61 12.8033 50.7567 12.774C50.9033 12.73 51.0133 12.7227 51.0867 12.752C51.292 12.8253 51.3653 13.0453 51.3067 13.412C51.072 13.8813 50.7347 14.2847 50.2947 14.622C49.8547 14.9447 49.3633 15.15 48.8207 15.238C48.3513 15.326 47.8673 15.304 47.3687 15.172C46.87 15.04 46.4227 14.7833 46.0267 14.402C45.6893 14.0647 45.4327 13.6687 45.2567 13.214C45.0807 12.7593 44.9707 12.29 44.9267 11.806C44.8827 11.3513 44.9193 10.9187 45.0367 10.508C45.1687 10.0973 45.3667 9.738 45.6307 9.43C45.8947 9.10733 46.2247 8.84333 46.6207 8.638C47.0167 8.43267 47.4787 8.31533 48.0067 8.286C48.6373 8.242 49.2093 8.35933 49.7227 8.638C50.236 8.91667 50.5953 9.30533 50.8007 9.804C50.918 10.0827 50.9473 10.3247 50.8887 10.53C50.8447 10.7353 50.698 10.9187 50.4487 11.08ZM47.9187 9.584C47.772 9.61333 47.6107 9.66467 47.4347 9.738C47.2733 9.81133 47.1193 9.90667 46.9727 10.024C46.8407 10.1267 46.716 10.2513 46.5987 10.398C46.496 10.53 46.4373 10.684 46.4227 10.86C46.672 10.86 46.9433 10.838 47.2367 10.794C47.5447 10.75 47.838 10.6987 48.1167 10.64C48.41 10.5667 48.674 10.486 48.9087 10.398C49.158 10.31 49.3633 10.2147 49.5247 10.112C49.4073 9.83333 49.1873 9.66467 48.8647 9.606C48.5567 9.53267 48.2413 9.52533 47.9187 9.584ZM60.8516 5.954C60.9249 7.55267 61.0496 9.21 61.2256 10.926C61.4016 12.6273 61.5922 14.2553 61.7976 15.81C61.8416 16.4553 61.6656 16.7853 61.2696 16.8C61.1816 16.8 61.0936 16.7707 61.0056 16.712C60.9176 16.6387 60.8369 16.5507 60.7636 16.448C60.6902 16.3453 60.6169 16.2353 60.5436 16.118C60.4849 16.0007 60.4482 15.898 60.4336 15.81C60.3162 15.062 60.2062 14.27 60.1036 13.434C60.0009 12.598 59.9056 11.762 59.8176 10.926C59.7442 10.0753 59.6782 9.24667 59.6196 8.44C59.5609 7.63333 59.5242 6.89267 59.5096 6.218C59.5389 5.866 59.5902 5.57267 59.6636 5.338C59.7369 5.08867 59.8909 4.97133 60.1256 4.986C60.3749 5.00067 60.5509 5.10333 60.6536 5.294C60.7709 5.47 60.8369 5.69 60.8516 5.954ZM69.1012 8.11C69.1599 8.52067 69.2039 8.96067 69.2332 9.43C69.2772 9.88467 69.3066 10.3467 69.3212 10.816C69.3506 11.2853 69.3652 11.74 69.3652 12.18C69.3652 12.62 69.3579 13.016 69.3432 13.368C69.8126 13.6907 70.0912 13.9767 70.1792 14.226C70.2819 14.4753 70.2966 14.6953 70.2232 14.886C70.1352 15.15 69.9739 15.2893 69.7392 15.304C69.5192 15.304 69.2626 15.2233 68.9692 15.062C68.7639 15.2087 68.5292 15.37 68.2652 15.546C68.0012 15.7073 67.7226 15.8687 67.4292 16.03C67.1359 16.1767 66.8426 16.3087 66.5492 16.426C66.2559 16.5433 65.9846 16.624 65.7352 16.668C65.2659 16.7413 64.8406 16.6533 64.4592 16.404C64.0926 16.1547 63.8432 15.7807 63.7112 15.282C63.6232 14.9447 63.6012 14.6 63.6452 14.248C63.6892 13.8813 63.7992 13.5367 63.9752 13.214C64.1512 12.8767 64.3859 12.576 64.6792 12.312C64.9872 12.048 65.3466 11.8427 65.7572 11.696C65.8599 11.652 65.9992 11.6153 66.1752 11.586C66.3659 11.5567 66.5566 11.5493 66.7472 11.564C66.9526 11.564 67.1579 11.6007 67.3632 11.674C67.5686 11.7473 67.7592 11.872 67.9352 12.048C67.9352 11.7987 67.9279 11.5273 67.9132 11.234C67.9132 10.926 67.9059 10.618 67.8912 10.31C67.8766 10.002 67.8546 9.716 67.8252 9.452C67.8106 9.17333 67.7886 8.93867 67.7592 8.748C67.7299 8.528 67.6419 8.396 67.4952 8.352C67.3632 8.29333 67.1946 8.30067 66.9892 8.374C66.6372 8.49133 66.2266 8.71867 65.7572 9.056C65.2879 9.39333 64.8406 9.75267 64.4152 10.134C64.2832 10.266 64.1292 10.3247 63.9532 10.31C63.7919 10.2953 63.6526 10.2293 63.5352 10.112C63.4179 9.99467 63.3519 9.86267 63.3372 9.716C63.3226 9.55467 63.3812 9.386 63.5132 9.21C63.7626 8.946 64.0412 8.67467 64.3492 8.396C64.6572 8.11733 64.9799 7.868 65.3172 7.648C65.6546 7.41333 65.9992 7.22267 66.3512 7.076C66.7032 6.92933 67.0552 6.84867 67.4072 6.834C67.9206 6.81933 68.3166 6.93667 68.5952 7.186C68.8739 7.42067 69.0426 7.72867 69.1012 8.11ZM66.5492 12.84C66.3586 12.884 66.1532 12.9793 65.9332 13.126C65.7279 13.258 65.5372 13.4267 65.3612 13.632C65.1999 13.8227 65.0752 14.0427 64.9872 14.292C64.9139 14.5267 64.9139 14.7613 64.9872 14.996C65.0166 15.084 65.0752 15.15 65.1632 15.194C65.2659 15.238 65.3759 15.2453 65.4932 15.216C65.8452 15.1427 66.2412 15.0033 66.6812 14.798C67.1359 14.578 67.4952 14.3433 67.7592 14.094C67.7592 14.006 67.7152 13.896 67.6272 13.764C67.5392 13.6173 67.4366 13.478 67.3192 13.346C67.2019 13.1993 67.0699 13.0747 66.9232 12.972C66.7912 12.8693 66.6666 12.8253 66.5492 12.84ZM73.3995 9.738C73.3115 10.134 73.2235 10.574 73.1355 11.058C73.0475 11.5273 72.9815 11.982 72.9375 12.422C72.9081 12.862 72.9081 13.258 72.9375 13.61C72.9815 13.962 73.0768 14.2113 73.2235 14.358C73.4728 14.402 73.7588 14.2993 74.0815 14.05C74.4041 13.786 74.7195 13.456 75.0275 13.06C75.3355 12.664 75.6141 12.2387 75.8635 11.784C76.1128 11.3147 76.2888 10.904 76.3915 10.552C76.4501 10.376 76.5015 10.1927 76.5455 10.002C76.5895 9.81133 76.6115 9.61333 76.6115 9.408C76.6115 9.29067 76.6848 9.18067 76.8315 9.078C76.9928 8.96067 77.1248 8.89467 77.2275 8.88C77.3008 8.86533 77.3815 8.88 77.4695 8.924C77.5721 8.968 77.6601 9.034 77.7335 9.122C77.8215 9.19533 77.8948 9.29067 77.9535 9.408C78.0268 9.51067 78.0635 9.62067 78.0635 9.738C78.0928 10.178 78.1368 10.662 78.1955 11.19C78.2541 11.718 78.3201 12.246 78.3935 12.774C78.4815 13.302 78.5695 13.8153 78.6575 14.314C78.7455 14.8127 78.8335 15.26 78.9215 15.656C78.9655 15.8173 78.9215 16.0007 78.7895 16.206C78.6575 16.4113 78.5108 16.536 78.3495 16.58C78.2175 16.6093 78.0781 16.5947 77.9315 16.536C77.7995 16.4773 77.6968 16.36 77.6235 16.184C77.5501 15.9787 77.4768 15.7293 77.4035 15.436C77.3448 15.128 77.2861 14.8127 77.2275 14.49C77.1835 14.1527 77.1395 13.8373 77.0955 13.544C77.0515 13.236 77.0221 12.9793 77.0075 12.774C76.7875 13.17 76.5235 13.5733 76.2155 13.984C75.9221 14.38 75.5995 14.7467 75.2475 15.084C74.9101 15.4067 74.5508 15.6633 74.1695 15.854C73.8028 16.03 73.4215 16.096 73.0255 16.052C72.4388 15.9787 71.9915 15.4287 71.6835 14.402C71.5661 13.9913 71.5075 13.5367 71.5075 13.038C71.5221 12.5393 71.5588 12.048 71.6175 11.564C71.6908 11.0653 71.7715 10.596 71.8595 10.156C71.9621 9.716 72.0501 9.35667 72.1235 9.078C72.1528 8.96067 72.2115 8.858 72.2995 8.77C72.3875 8.66733 72.4901 8.63067 72.6075 8.66C72.8275 8.704 73.0255 8.836 73.2015 9.056C73.3921 9.276 73.4581 9.50333 73.3995 9.738ZM81.9389 8.99C81.9829 9.21 82.0269 9.45933 82.0709 9.738C82.1296 10.002 82.1882 10.2807 82.2469 10.574C82.3056 10.8527 82.3569 11.1387 82.4009 11.432C82.4449 11.7253 82.4816 12.004 82.5109 12.268C82.6869 11.8867 82.8776 11.4833 83.0829 11.058C83.2882 10.6327 83.5082 10.244 83.7429 9.892C83.9922 9.52533 84.2489 9.22467 84.5129 8.99C84.7916 8.75533 85.0922 8.638 85.4149 8.638C85.8989 8.638 86.3022 8.814 86.6249 9.166C86.9622 9.518 87.2409 9.958 87.4609 10.486C87.6956 10.9993 87.8789 11.542 88.0109 12.114C88.1429 12.686 88.2529 13.192 88.3409 13.632C88.4289 14.028 88.2529 14.3213 87.8129 14.512C87.6076 14.6147 87.4536 14.6293 87.3509 14.556C87.2482 14.4827 87.1896 14.4093 87.1749 14.336C87.1016 14.16 87.0062 13.852 86.8889 13.412C86.7862 12.972 86.6616 12.5247 86.5149 12.07C86.3829 11.6153 86.2289 11.2193 86.0529 10.882C85.8769 10.5447 85.6789 10.3907 85.4589 10.42C85.1949 10.4347 84.9602 10.6327 84.7549 11.014C84.5789 11.322 84.3956 11.6667 84.2049 12.048C84.0289 12.4147 83.8529 12.796 83.6769 13.192C83.5009 13.5733 83.3249 13.962 83.1489 14.358C82.9876 14.7393 82.8336 15.0913 82.6869 15.414C82.5842 15.5167 82.4522 15.59 82.2909 15.634C82.1442 15.6633 81.9902 15.6487 81.8289 15.59C81.6822 15.546 81.5649 15.4727 81.4769 15.37C81.3889 15.2673 81.3449 15.1647 81.3449 15.062C81.2129 13.918 81.0736 12.8767 80.9269 11.938C80.7949 10.9993 80.6189 10.0387 80.3989 9.056C80.2962 8.71867 80.2742 8.45467 80.3329 8.264C80.4062 8.05867 80.6262 7.978 80.9929 8.022C81.5062 8.11 81.8216 8.43267 81.9389 8.99ZM94.9151 10.596C94.8125 10.6547 94.6878 10.6767 94.5411 10.662C94.3945 10.6327 94.2698 10.5373 94.1671 10.376C93.9325 10.068 93.6465 9.914 93.3091 9.914C93.0011 9.914 92.7225 9.98733 92.4731 10.134C92.2385 10.266 92.0258 10.4493 91.8351 10.684C91.6591 10.904 91.5125 11.1533 91.3951 11.432C91.2778 11.7107 91.1971 11.9893 91.1531 12.268C91.0798 12.7813 91.1678 13.214 91.4171 13.566C91.6665 13.918 92.0551 14.094 92.5831 14.094C93.0085 14.1087 93.4851 14.028 94.0131 13.852C94.5558 13.6613 95.0618 13.4193 95.5311 13.126C95.7365 13.038 95.9271 12.9867 96.1031 12.972C96.2791 12.9573 96.4258 13.0453 96.5431 13.236C96.6898 13.4707 96.6531 13.7127 96.4331 13.962C96.2131 14.1967 95.9198 14.4093 95.5531 14.6C95.1865 14.8053 94.7978 14.9887 94.3871 15.15C93.9911 15.2967 93.5878 15.4067 93.1771 15.48C92.7665 15.5387 92.3558 15.5387 91.9451 15.48C91.5491 15.4213 91.1751 15.282 90.8231 15.062C90.2658 14.6807 89.9285 14.138 89.8111 13.434C89.6938 12.73 89.7451 12.004 89.9651 11.256C90.0531 10.9773 90.1778 10.6987 90.3391 10.42C90.5005 10.1267 90.6911 9.86267 90.9111 9.628C91.1458 9.39333 91.4025 9.19533 91.6811 9.034C91.9598 8.858 92.2678 8.74067 92.6051 8.682C93.1478 8.594 93.6685 8.65267 94.1671 8.858C94.6658 9.04867 94.9958 9.408 95.1571 9.936C95.1865 10.0533 95.1865 10.178 95.1571 10.31C95.1278 10.4273 95.0471 10.5227 94.9151 10.596ZM99.3658 6.504C99.3658 6.856 99.3585 7.252 99.3438 7.692C99.3438 8.132 99.3438 8.58667 99.3438 9.056C99.3585 9.52533 99.3658 10.0093 99.3658 10.508C99.3805 11.0067 99.3952 11.4833 99.4098 11.938C99.5565 11.6447 99.7325 11.3587 99.9378 11.08C100.143 10.7867 100.37 10.53 100.62 10.31C100.884 10.09 101.155 9.914 101.434 9.782C101.727 9.65 102.042 9.584 102.38 9.584C102.746 9.584 103.069 9.70133 103.348 9.936C103.641 10.1707 103.89 10.486 104.096 10.882C104.316 11.2633 104.499 11.696 104.646 12.18C104.792 12.6493 104.91 13.1333 104.998 13.632C105.1 14.116 105.174 14.5853 105.218 15.04C105.262 15.48 105.298 15.8613 105.328 16.184C105.328 16.4187 105.269 16.6093 105.152 16.756C105.034 16.9027 104.895 16.976 104.734 16.976C104.616 16.976 104.47 16.9027 104.294 16.756C104.132 16.5947 104.015 16.404 103.942 16.184C103.898 16.008 103.854 15.7513 103.81 15.414C103.766 15.0767 103.714 14.7173 103.656 14.336C103.597 13.94 103.524 13.544 103.436 13.148C103.348 12.752 103.238 12.4 103.106 12.092C102.988 11.7693 102.842 11.52 102.666 11.344C102.49 11.168 102.284 11.102 102.05 11.146C101.683 11.2193 101.36 11.476 101.082 11.916C100.818 12.356 100.583 12.8547 100.378 13.412C100.187 13.9693 100.026 14.534 99.8938 15.106C99.7765 15.678 99.6885 16.14 99.6298 16.492C99.5712 16.756 99.4905 16.9393 99.3878 17.042C99.2998 17.13 99.1972 17.174 99.0798 17.174C98.9625 17.174 98.8525 17.1153 98.7498 16.998C98.6618 16.8807 98.5738 16.7413 98.4858 16.58C98.4125 16.404 98.3465 16.228 98.2878 16.052C98.2292 15.8613 98.1925 15.7 98.1778 15.568C98.1045 14.776 98.0458 14.0207 98.0018 13.302C97.9578 12.5687 97.9212 11.8353 97.8918 11.102C97.8772 10.3687 97.8698 9.62067 97.8698 8.858C97.8698 8.08067 97.8845 7.252 97.9138 6.372C97.9138 5.63867 98.1778 5.30867 98.7058 5.382C98.8818 5.41133 99.0358 5.54333 99.1678 5.778C99.2998 5.998 99.3658 6.24 99.3658 6.504ZM112.238 11.08C111.666 11.4173 111.05 11.6813 110.39 11.872C109.73 12.048 109.018 12.136 108.256 12.136C108.285 12.6493 108.432 13.06 108.696 13.368C108.96 13.6613 109.29 13.8373 109.686 13.896C109.92 13.9253 110.155 13.918 110.39 13.874C110.639 13.83 110.866 13.764 111.072 13.676C111.292 13.5733 111.49 13.4633 111.666 13.346C111.842 13.2287 111.996 13.1113 112.128 12.994C112.26 12.8767 112.399 12.8033 112.546 12.774C112.692 12.73 112.802 12.7227 112.876 12.752C113.081 12.8253 113.154 13.0453 113.096 13.412C112.861 13.8813 112.524 14.2847 112.084 14.622C111.644 14.9447 111.152 15.15 110.61 15.238C110.14 15.326 109.656 15.304 109.158 15.172C108.659 15.04 108.212 14.7833 107.816 14.402C107.478 14.0647 107.222 13.6687 107.046 13.214C106.87 12.7593 106.76 12.29 106.716 11.806C106.672 11.3513 106.708 10.9187 106.826 10.508C106.958 10.0973 107.156 9.738 107.42 9.43C107.684 9.10733 108.014 8.84333 108.41 8.638C108.806 8.43267 109.268 8.31533 109.796 8.286C110.426 8.242 110.998 8.35933 111.512 8.638C112.025 8.91667 112.384 9.30533 112.59 9.804C112.707 10.0827 112.736 10.3247 112.678 10.53C112.634 10.7353 112.487 10.9187 112.238 11.08ZM109.708 9.584C109.561 9.61333 109.4 9.66467 109.224 9.738C109.062 9.81133 108.908 9.90667 108.762 10.024C108.63 10.1267 108.505 10.2513 108.388 10.398C108.285 10.53 108.226 10.684 108.212 10.86C108.461 10.86 108.732 10.838 109.026 10.794C109.334 10.75 109.627 10.6987 109.906 10.64C110.199 10.5667 110.463 10.486 110.698 10.398C110.947 10.31 111.152 10.2147 111.314 10.112C111.196 9.83333 110.976 9.66467 110.654 9.606C110.346 9.53267 110.03 9.52533 109.708 9.584ZM118.345 5.096C118.301 4.832 118.315 4.59 118.389 4.37C118.477 4.15 118.645 4.02533 118.895 3.996C119.115 3.96667 119.305 4.02533 119.467 4.172C119.643 4.31867 119.753 4.50933 119.797 4.744C120.09 6.43067 120.361 8.11 120.611 9.782C120.875 11.4393 121.109 13.0673 121.315 14.666C121.373 15.0913 121.344 15.3847 121.227 15.546C121.109 15.6927 120.97 15.8027 120.809 15.876C120.633 15.9493 120.464 15.9493 120.303 15.876C120.156 15.8027 120.061 15.6707 120.017 15.48L119.995 15.348L119.907 15.37C119.423 15.546 118.917 15.6487 118.389 15.678C117.861 15.6927 117.355 15.6267 116.871 15.48C116.387 15.3333 115.954 15.0987 115.573 14.776C115.206 14.4387 114.942 14.0133 114.781 13.5C114.429 12.3707 114.649 11.344 115.441 10.42C115.778 10.0387 116.196 9.694 116.695 9.386C117.193 9.078 117.795 8.836 118.499 8.66L118.895 8.572L118.345 5.096ZM116.123 12.95C116.211 13.302 116.372 13.5733 116.607 13.764C116.841 13.9547 117.12 14.0867 117.443 14.16C117.765 14.2187 118.11 14.226 118.477 14.182C118.843 14.138 119.203 14.0573 119.555 13.94L119.753 13.874L119.137 10.002L118.697 10.112C118.389 10.2 118.059 10.3393 117.707 10.53C117.369 10.706 117.069 10.9187 116.805 11.168C116.541 11.4173 116.335 11.696 116.189 12.004C116.057 12.312 116.035 12.6273 116.123 12.95ZM133.716 8.572C134.156 8.73333 134.523 8.97533 134.816 9.298C135.124 9.62067 135.359 9.98733 135.52 10.398C135.681 10.794 135.769 11.2047 135.784 11.63C135.813 12.0553 135.769 12.4513 135.652 12.818C135.491 13.2287 135.285 13.632 135.036 14.028C134.787 14.424 134.501 14.776 134.178 15.084C133.855 15.392 133.489 15.6413 133.078 15.832C132.667 16.0227 132.213 16.118 131.714 16.118C131.113 16.118 130.607 15.9787 130.196 15.7C129.785 15.4213 129.463 15.062 129.228 14.622C128.993 14.182 128.839 13.6833 128.766 13.126C128.707 12.5687 128.722 12.0113 128.81 11.454C128.869 11.0433 128.964 10.6473 129.096 10.266C129.243 9.87 129.426 9.52533 129.646 9.232C129.866 8.924 130.115 8.67467 130.394 8.484C130.687 8.29333 131.017 8.198 131.384 8.198C131.589 8.198 131.846 8.242 132.154 8.33C132.462 8.40333 132.748 8.51333 133.012 8.66C133.203 8.484 133.437 8.45467 133.716 8.572ZM132.88 10.178C132.719 10.0753 132.528 9.94333 132.308 9.782C132.103 9.606 131.919 9.518 131.758 9.518C131.582 9.518 131.406 9.59867 131.23 9.76C131.069 9.92133 130.922 10.112 130.79 10.332C130.673 10.5373 130.57 10.75 130.482 10.97C130.394 11.19 130.335 11.366 130.306 11.498C130.262 11.718 130.233 11.982 130.218 12.29C130.203 12.598 130.225 12.906 130.284 13.214C130.343 13.5073 130.453 13.7787 130.614 14.028C130.79 14.2627 131.047 14.4313 131.384 14.534C131.589 14.5927 131.831 14.5927 132.11 14.534C132.389 14.4607 132.66 14.336 132.924 14.16C133.203 13.984 133.459 13.7493 133.694 13.456C133.943 13.1627 134.134 12.8253 134.266 12.444C134.413 12.0187 134.413 11.5787 134.266 11.124C134.134 10.6547 133.855 10.3173 133.43 10.112C133.327 10.1853 133.225 10.222 133.122 10.222C133.019 10.222 132.939 10.2073 132.88 10.178ZM139.442 9.738C139.354 10.134 139.266 10.574 139.178 11.058C139.09 11.5273 139.024 11.982 138.98 12.422C138.951 12.862 138.951 13.258 138.98 13.61C139.024 13.962 139.12 14.2113 139.266 14.358C139.516 14.402 139.802 14.2993 140.124 14.05C140.447 13.786 140.762 13.456 141.07 13.06C141.378 12.664 141.657 12.2387 141.906 11.784C142.156 11.3147 142.332 10.904 142.434 10.552C142.493 10.376 142.544 10.1927 142.588 10.002C142.632 9.81133 142.654 9.61333 142.654 9.408C142.654 9.29067 142.728 9.18067 142.874 9.078C143.036 8.96067 143.168 8.89467 143.27 8.88C143.344 8.86533 143.424 8.88 143.512 8.924C143.615 8.968 143.703 9.034 143.776 9.122C143.864 9.19533 143.938 9.29067 143.996 9.408C144.07 9.51067 144.106 9.62067 144.106 9.738C144.136 10.178 144.18 10.662 144.238 11.19C144.297 11.718 144.363 12.246 144.436 12.774C144.524 13.302 144.612 13.8153 144.7 14.314C144.788 14.8127 144.876 15.26 144.964 15.656C145.008 15.8173 144.964 16.0007 144.832 16.206C144.7 16.4113 144.554 16.536 144.392 16.58C144.26 16.6093 144.121 16.5947 143.974 16.536C143.842 16.4773 143.74 16.36 143.666 16.184C143.593 15.9787 143.52 15.7293 143.446 15.436C143.388 15.128 143.329 14.8127 143.27 14.49C143.226 14.1527 143.182 13.8373 143.138 13.544C143.094 13.236 143.065 12.9793 143.05 12.774C142.83 13.17 142.566 13.5733 142.258 13.984C141.965 14.38 141.642 14.7467 141.29 15.084C140.953 15.4067 140.594 15.6633 140.212 15.854C139.846 16.03 139.464 16.096 139.068 16.052C138.482 15.9787 138.034 15.4287 137.726 14.402C137.609 13.9913 137.55 13.5367 137.55 13.038C137.565 12.5393 137.602 12.048 137.66 11.564C137.734 11.0653 137.814 10.596 137.902 10.156C138.005 9.716 138.093 9.35667 138.166 9.078C138.196 8.96067 138.254 8.858 138.342 8.77C138.43 8.66733 138.533 8.63067 138.65 8.66C138.87 8.704 139.068 8.836 139.244 9.056C139.435 9.276 139.501 9.50333 139.442 9.738ZM153.152 8.66C152.888 8.80667 152.609 8.96067 152.316 9.122C152.037 9.28333 151.751 9.474 151.458 9.694C151.179 9.89933 150.908 10.1487 150.644 10.442C150.395 10.7207 150.167 11.058 149.962 11.454C149.669 12.0113 149.471 12.5833 149.368 13.17C149.265 13.742 149.199 14.3067 149.17 14.864C149.17 15.128 149.104 15.3993 148.972 15.678C148.855 15.942 148.686 16.074 148.466 16.074C148.187 16.074 147.96 15.9347 147.784 15.656C147.623 15.3627 147.513 15.084 147.454 14.82C147.205 13.7787 146.999 12.752 146.838 11.74C146.677 10.7133 146.537 9.694 146.42 8.682C146.42 8.47667 146.479 8.34467 146.596 8.286C146.728 8.22733 146.875 8.20533 147.036 8.22C147.212 8.23467 147.381 8.27867 147.542 8.352C147.703 8.42533 147.799 8.54267 147.828 8.704C147.887 9.24667 147.96 9.81867 148.048 10.42C148.136 11.0067 148.224 11.5127 148.312 11.938C148.371 11.4393 148.532 10.9553 148.796 10.486C149.06 10.0167 149.383 9.59133 149.764 9.21C150.16 8.82867 150.6 8.506 151.084 8.242C151.583 7.978 152.089 7.802 152.602 7.714C152.822 7.68467 153.005 7.68467 153.152 7.714C153.299 7.74333 153.401 7.79467 153.46 7.868C153.519 7.94133 153.526 8.05867 153.482 8.22C153.453 8.38133 153.343 8.528 153.152 8.66ZM163.066 16.47C162.919 16.4113 162.765 16.3013 162.604 16.14C162.457 15.9787 162.369 15.8393 162.34 15.722C162.267 15.4287 162.186 15.0693 162.098 14.644C162.01 14.2187 161.922 13.764 161.834 13.28C161.746 12.796 161.658 12.3047 161.57 11.806C161.497 11.2927 161.423 10.8087 161.35 10.354C161.277 9.88467 161.218 9.46667 161.174 9.1C161.13 8.73333 161.101 8.44 161.086 8.22C161.086 7.98533 161.167 7.85333 161.328 7.824C161.709 7.78 161.981 7.91933 162.142 8.242C162.215 8.506 162.296 8.80667 162.384 9.144C162.472 9.48133 162.56 9.848 162.648 10.244C163 10.112 163.315 9.94333 163.594 9.738C163.873 9.53267 164.1 9.31267 164.276 9.078C164.467 8.82867 164.599 8.57933 164.672 8.33C164.76 8.066 164.775 7.80933 164.716 7.56C164.643 7.28133 164.437 7.076 164.1 6.944C163.763 6.812 163.381 6.746 162.956 6.746C162.369 6.746 161.841 6.856 161.372 7.076C160.917 7.28133 160.499 7.538 160.118 7.846C159.942 7.978 159.751 8.022 159.546 7.978C159.326 7.91933 159.179 7.78 159.106 7.56C159.106 7.35467 159.143 7.17867 159.216 7.032C159.289 6.88533 159.385 6.75333 159.502 6.636C159.957 6.16667 160.492 5.83667 161.108 5.646C161.739 5.45533 162.399 5.36 163.088 5.36C163.645 5.36 164.181 5.448 164.694 5.624C165.222 5.8 165.669 6.11533 166.036 6.57C166.212 6.86333 166.3 7.17133 166.3 7.494C166.315 7.81667 166.271 8.132 166.168 8.44C166.065 8.748 165.919 9.04133 165.728 9.32C165.552 9.59867 165.369 9.84067 165.178 10.046C165.545 10.0167 165.919 10.0533 166.3 10.156C166.681 10.244 167.019 10.4053 167.312 10.64C167.62 10.86 167.869 11.1533 168.06 11.52C168.251 11.8867 168.346 12.3267 168.346 12.84C168.346 13.4267 168.214 13.962 167.95 14.446C167.701 14.93 167.363 15.3407 166.938 15.678C166.527 16.0153 166.051 16.2793 165.508 16.47C164.98 16.6607 164.43 16.756 163.858 16.756C163.609 16.756 163.411 16.6827 163.264 16.536C163.191 16.536 163.125 16.514 163.066 16.47ZM162.978 11.85C163.095 12.422 163.205 13.016 163.308 13.632C163.411 14.248 163.521 14.864 163.638 15.48H163.726C164.049 15.48 164.401 15.4213 164.782 15.304C165.178 15.1867 165.545 15.018 165.882 14.798C166.219 14.5633 166.498 14.2847 166.718 13.962C166.938 13.6247 167.041 13.2507 167.026 12.84C166.953 12.4733 166.784 12.1947 166.52 12.004C166.256 11.8133 165.933 11.6887 165.552 11.63C165.185 11.5713 164.775 11.5713 164.32 11.63C163.88 11.674 163.433 11.7473 162.978 11.85ZM175.101 11.08C174.529 11.4173 173.913 11.6813 173.253 11.872C172.593 12.048 171.882 12.136 171.119 12.136C171.148 12.6493 171.295 13.06 171.559 13.368C171.823 13.6613 172.153 13.8373 172.549 13.896C172.784 13.9253 173.018 13.918 173.253 13.874C173.502 13.83 173.73 13.764 173.935 13.676C174.155 13.5733 174.353 13.4633 174.529 13.346C174.705 13.2287 174.859 13.1113 174.991 12.994C175.123 12.8767 175.262 12.8033 175.409 12.774C175.556 12.73 175.666 12.7227 175.739 12.752C175.944 12.8253 176.018 13.0453 175.959 13.412C175.724 13.8813 175.387 14.2847 174.947 14.622C174.507 14.9447 174.016 15.15 173.473 15.238C173.004 15.326 172.52 15.304 172.021 15.172C171.522 15.04 171.075 14.7833 170.679 14.402C170.342 14.0647 170.085 13.6687 169.909 13.214C169.733 12.7593 169.623 12.29 169.579 11.806C169.535 11.3513 169.572 10.9187 169.689 10.508C169.821 10.0973 170.019 9.738 170.283 9.43C170.547 9.10733 170.877 8.84333 171.273 8.638C171.669 8.43267 172.131 8.31533 172.659 8.286C173.29 8.242 173.862 8.35933 174.375 8.638C174.888 8.91667 175.248 9.30533 175.453 9.804C175.57 10.0827 175.6 10.3247 175.541 10.53C175.497 10.7353 175.35 10.9187 175.101 11.08ZM172.571 9.584C172.424 9.61333 172.263 9.66467 172.087 9.738C171.926 9.81133 171.772 9.90667 171.625 10.024C171.493 10.1267 171.368 10.2513 171.251 10.398C171.148 10.53 171.09 10.684 171.075 10.86C171.324 10.86 171.596 10.838 171.889 10.794C172.197 10.75 172.49 10.6987 172.769 10.64C173.062 10.5667 173.326 10.486 173.561 10.398C173.81 10.31 174.016 10.2147 174.177 10.112C174.06 9.83333 173.84 9.66467 173.517 9.606C173.209 9.53267 172.894 9.52533 172.571 9.584ZM182.484 10.354C182.763 10.3393 183.041 10.4053 183.32 10.552C183.599 10.6987 183.738 10.926 183.738 11.234C183.709 11.4833 183.569 11.6447 183.32 11.718C183.085 11.7767 182.895 11.806 182.748 11.806C182.455 11.806 182.139 11.8133 181.802 11.828C181.465 11.8427 181.12 11.8647 180.768 11.894C180.739 12.378 180.709 12.8327 180.68 13.258C180.665 13.6833 180.651 14.0647 180.636 14.402C180.621 14.7247 180.614 14.9887 180.614 15.194C180.614 15.3993 180.621 15.5093 180.636 15.524C180.959 15.4653 181.303 15.37 181.67 15.238C182.051 15.0913 182.425 14.9373 182.792 14.776C183.173 14.6 183.54 14.424 183.892 14.248C184.259 14.0573 184.603 13.8813 184.926 13.72C185.073 13.6467 185.205 13.6247 185.322 13.654C185.454 13.6833 185.535 13.7493 185.564 13.852C185.593 14.0133 185.571 14.2113 185.498 14.446C185.425 14.6807 185.293 14.8933 185.102 15.084C184.882 15.26 184.589 15.4653 184.222 15.7C183.87 15.92 183.489 16.1327 183.078 16.338C182.667 16.5433 182.249 16.7267 181.824 16.888C181.413 17.0347 181.047 17.1227 180.724 17.152C180.24 17.196 179.873 17.064 179.624 16.756C179.375 16.448 179.235 16.0593 179.206 15.59C179.177 15.1207 179.169 14.578 179.184 13.962C179.213 13.346 179.243 12.6933 179.272 12.004C178.993 12.0333 178.722 12.0627 178.458 12.092C178.209 12.1067 177.967 12.1287 177.732 12.158C177.541 12.158 177.329 12.114 177.094 12.026C176.874 11.938 176.764 11.7693 176.764 11.52C176.764 11.432 176.801 11.3147 176.874 11.168C176.947 11.0213 177.109 10.9113 177.358 10.838C177.959 10.7353 178.627 10.6473 179.36 10.574C179.404 9.88467 179.455 9.21733 179.514 8.572C179.573 7.92667 179.624 7.34 179.668 6.812C179.683 6.636 179.734 6.482 179.822 6.35C179.91 6.218 180.005 6.152 180.108 6.152C180.357 6.13733 180.592 6.20333 180.812 6.35C181.047 6.482 181.164 6.636 181.164 6.812C181.105 7.31067 181.047 7.87533 180.988 8.506C180.944 9.13667 180.9 9.782 180.856 10.442C181.149 10.4127 181.428 10.398 181.692 10.398C181.971 10.3833 182.235 10.3687 182.484 10.354ZM191.97 8.11C192.029 8.52067 192.073 8.96067 192.102 9.43C192.146 9.88467 192.176 10.3467 192.19 10.816C192.22 11.2853 192.234 11.74 192.234 12.18C192.234 12.62 192.227 13.016 192.212 13.368C192.682 13.6907 192.96 13.9767 193.048 14.226C193.151 14.4753 193.166 14.6953 193.092 14.886C193.004 15.15 192.843 15.2893 192.608 15.304C192.388 15.304 192.132 15.2233 191.838 15.062C191.633 15.2087 191.398 15.37 191.134 15.546C190.87 15.7073 190.592 15.8687 190.298 16.03C190.005 16.1767 189.712 16.3087 189.418 16.426C189.125 16.5433 188.854 16.624 188.604 16.668C188.135 16.7413 187.71 16.6533 187.328 16.404C186.962 16.1547 186.712 15.7807 186.58 15.282C186.492 14.9447 186.47 14.6 186.514 14.248C186.558 13.8813 186.668 13.5367 186.844 13.214C187.02 12.8767 187.255 12.576 187.548 12.312C187.856 12.048 188.216 11.8427 188.626 11.696C188.729 11.652 188.868 11.6153 189.044 11.586C189.235 11.5567 189.426 11.5493 189.616 11.564C189.822 11.564 190.027 11.6007 190.232 11.674C190.438 11.7473 190.628 11.872 190.804 12.048C190.804 11.7987 190.797 11.5273 190.782 11.234C190.782 10.926 190.775 10.618 190.76 10.31C190.746 10.002 190.724 9.716 190.694 9.452C190.68 9.17333 190.658 8.93867 190.628 8.748C190.599 8.528 190.511 8.396 190.364 8.352C190.232 8.29333 190.064 8.30067 189.858 8.374C189.506 8.49133 189.096 8.71867 188.626 9.056C188.157 9.39333 187.71 9.75267 187.284 10.134C187.152 10.266 186.998 10.3247 186.822 10.31C186.661 10.2953 186.522 10.2293 186.404 10.112C186.287 9.99467 186.221 9.86267 186.206 9.716C186.192 9.55467 186.25 9.386 186.382 9.21C186.632 8.946 186.91 8.67467 187.218 8.396C187.526 8.11733 187.849 7.868 188.186 7.648C188.524 7.41333 188.868 7.22267 189.22 7.076C189.572 6.92933 189.924 6.84867 190.276 6.834C190.79 6.81933 191.186 6.93667 191.464 7.186C191.743 7.42067 191.912 7.72867 191.97 8.11ZM189.418 12.84C189.228 12.884 189.022 12.9793 188.802 13.126C188.597 13.258 188.406 13.4267 188.23 13.632C188.069 13.8227 187.944 14.0427 187.856 14.292C187.783 14.5267 187.783 14.7613 187.856 14.996C187.886 15.084 187.944 15.15 188.032 15.194C188.135 15.238 188.245 15.2453 188.362 15.216C188.714 15.1427 189.11 15.0033 189.55 14.798C190.005 14.578 190.364 14.3433 190.628 14.094C190.628 14.006 190.584 13.896 190.496 13.764C190.408 13.6173 190.306 13.478 190.188 13.346C190.071 13.1993 189.939 13.0747 189.792 12.972C189.66 12.8693 189.536 12.8253 189.418 12.84ZM194.883 20.716C194.765 20.6133 194.736 20.4813 194.795 20.32C194.853 20.1587 194.912 20.0193 194.971 19.902C195.117 19.5647 195.249 19.2127 195.367 18.846C195.484 18.4647 195.579 18.0613 195.653 17.636C195.682 17.4453 195.785 17.284 195.961 17.152C196.137 17.0053 196.371 16.976 196.665 17.064C196.782 17.1227 196.848 17.2107 196.863 17.328C196.892 17.4307 196.907 17.548 196.907 17.68C196.907 17.8853 196.877 18.1273 196.819 18.406C196.775 18.67 196.709 18.9267 196.621 19.176C196.533 19.44 196.43 19.682 196.313 19.902C196.195 20.122 196.085 20.2907 195.983 20.408C195.807 20.5987 195.616 20.7233 195.411 20.782C195.22 20.8553 195.044 20.8333 194.883 20.716ZM35.896 35.354C36.1747 35.3393 36.4533 35.4053 36.732 35.552C37.0107 35.6987 37.15 35.926 37.15 36.234C37.1207 36.4833 36.9813 36.6447 36.732 36.718C36.4973 36.7767 36.3067 36.806 36.16 36.806C35.8667 36.806 35.5513 36.8133 35.214 36.828C34.8767 36.8427 34.532 36.8647 34.18 36.894C34.1507 37.378 34.1213 37.8327 34.092 38.258C34.0773 38.6833 34.0627 39.0647 34.048 39.402C34.0333 39.7247 34.026 39.9887 34.026 40.194C34.026 40.3993 34.0333 40.5093 34.048 40.524C34.3707 40.4653 34.7153 40.37 35.082 40.238C35.4633 40.0913 35.8373 39.9373 36.204 39.776C36.5853 39.6 36.952 39.424 37.304 39.248C37.6707 39.0573 38.0153 38.8813 38.338 38.72C38.4847 38.6467 38.6167 38.6247 38.734 38.654C38.866 38.6833 38.9467 38.7493 38.976 38.852C39.0053 39.0133 38.9833 39.2113 38.91 39.446C38.8367 39.6807 38.7047 39.8933 38.514 40.084C38.294 40.26 38.0007 40.4653 37.634 40.7C37.282 40.92 36.9007 41.1327 36.49 41.338C36.0793 41.5433 35.6613 41.7267 35.236 41.888C34.8253 42.0347 34.4587 42.1227 34.136 42.152C33.652 42.196 33.2853 42.064 33.036 41.756C32.7867 41.448 32.6473 41.0593 32.618 40.59C32.5887 40.1207 32.5813 39.578 32.596 38.962C32.6253 38.346 32.6547 37.6933 32.684 37.004C32.4053 37.0333 32.134 37.0627 31.87 37.092C31.6207 37.1067 31.3787 37.1287 31.144 37.158C30.9533 37.158 30.7407 37.114 30.506 37.026C30.286 36.938 30.176 36.7693 30.176 36.52C30.176 36.432 30.2127 36.3147 30.286 36.168C30.3593 36.0213 30.5207 35.9113 30.77 35.838C31.3713 35.7353 32.0387 35.6473 32.772 35.574C32.816 34.8847 32.8673 34.2173 32.926 33.572C32.9847 32.9267 33.036 32.34 33.08 31.812C33.0947 31.636 33.146 31.482 33.234 31.35C33.322 31.218 33.4173 31.152 33.52 31.152C33.7693 31.1373 34.004 31.2033 34.224 31.35C34.4587 31.482 34.576 31.636 34.576 31.812C34.5173 32.3107 34.4587 32.8753 34.4 33.506C34.356 34.1367 34.312 34.782 34.268 35.442C34.5613 35.4127 34.84 35.398 35.104 35.398C35.3827 35.3833 35.6467 35.3687 35.896 35.354ZM46.4605 33.66C46.1965 33.8067 45.9178 33.9607 45.6245 34.122C45.3458 34.2833 45.0598 34.474 44.7665 34.694C44.4878 34.8993 44.2165 35.1487 43.9525 35.442C43.7031 35.7207 43.4758 36.058 43.2705 36.454C42.9771 37.0113 42.7791 37.5833 42.6765 38.17C42.5738 38.742 42.5078 39.3067 42.4785 39.864C42.4785 40.128 42.4125 40.3993 42.2805 40.678C42.1631 40.942 41.9945 41.074 41.7745 41.074C41.4958 41.074 41.2685 40.9347 41.0925 40.656C40.9311 40.3627 40.8211 40.084 40.7625 39.82C40.5131 38.7787 40.3078 37.752 40.1465 36.74C39.9851 35.7133 39.8458 34.694 39.7285 33.682C39.7285 33.4767 39.7871 33.3447 39.9045 33.286C40.0365 33.2273 40.1831 33.2053 40.3445 33.22C40.5205 33.2347 40.6891 33.2787 40.8505 33.352C41.0118 33.4253 41.1071 33.5427 41.1365 33.704C41.1951 34.2467 41.2685 34.8187 41.3565 35.42C41.4445 36.0067 41.5325 36.5127 41.6205 36.938C41.6791 36.4393 41.8405 35.9553 42.1045 35.486C42.3685 35.0167 42.6911 34.5913 43.0725 34.21C43.4685 33.8287 43.9085 33.506 44.3925 33.242C44.8911 32.978 45.3971 32.802 45.9105 32.714C46.1305 32.6847 46.3138 32.6847 46.4605 32.714C46.6071 32.7433 46.7098 32.7947 46.7685 32.868C46.8271 32.9413 46.8345 33.0587 46.7905 33.22C46.7611 33.3813 46.6511 33.528 46.4605 33.66ZM54.6087 34.32C54.6527 35.112 54.6967 35.9113 54.7407 36.718C54.7994 37.5247 54.8141 38.324 54.7847 39.116C54.7554 39.8933 54.6747 40.656 54.5427 41.404C54.4254 42.152 54.2201 42.8707 53.9267 43.56C53.6334 44.2347 53.2374 44.8653 52.7387 45.452C52.2547 46.0387 51.6387 46.5667 50.8907 47.036C50.7734 47.1093 50.6414 47.1533 50.4947 47.168C50.3627 47.1827 50.2307 47.1753 50.0987 47.146C49.9667 47.1313 49.8494 47.0947 49.7467 47.036C49.6441 46.992 49.5781 46.926 49.5487 46.838C49.5047 46.706 49.5267 46.5593 49.6147 46.398C49.7027 46.2367 49.8494 46.068 50.0547 45.892C50.7001 45.408 51.2427 44.8947 51.6827 44.352C52.1227 43.8093 52.4747 43.2227 52.7387 42.592C53.0027 41.9613 53.1714 41.2793 53.2447 40.546C53.3327 39.798 53.3327 38.984 53.2447 38.104C53.0687 38.324 52.8634 38.5513 52.6287 38.786C52.3941 39.0207 52.1447 39.2333 51.8807 39.424C51.6167 39.6 51.3454 39.754 51.0667 39.886C50.7881 40.0033 50.5241 40.062 50.2747 40.062C50.0694 40.062 49.8641 40.018 49.6587 39.93C49.4534 39.842 49.2481 39.6733 49.0427 39.424C48.8081 39.116 48.5954 38.7713 48.4047 38.39C48.2287 37.994 48.0747 37.6127 47.9427 37.246C47.8107 36.8793 47.7007 36.5493 47.6127 36.256C47.5394 35.9627 47.4954 35.7573 47.4807 35.64C47.4514 35.4933 47.4514 35.354 47.4807 35.222C47.5101 35.09 47.6054 35.0093 47.7667 34.98C47.9867 34.936 48.1921 34.9507 48.3827 35.024C48.5734 35.0973 48.7054 35.2147 48.7787 35.376C48.8374 35.5373 48.9181 35.7867 49.0207 36.124C49.1234 36.4613 49.2481 36.7987 49.3947 37.136C49.5414 37.4587 49.6954 37.7447 49.8567 37.994C50.0327 38.2433 50.2161 38.368 50.4067 38.368C50.6267 38.368 50.8834 38.258 51.1767 38.038C51.4847 37.818 51.7781 37.532 52.0567 37.18C52.3354 36.828 52.5701 36.4393 52.7607 36.014C52.9661 35.574 53.0687 35.1487 53.0687 34.738C53.0687 34.65 53.0834 34.5473 53.1127 34.43C53.1421 34.3127 53.1861 34.2027 53.2447 34.1C53.3034 33.9827 53.3694 33.8873 53.4427 33.814C53.5307 33.726 53.6187 33.6747 53.7067 33.66C53.9414 33.6307 54.1467 33.6967 54.3227 33.858C54.5134 34.0047 54.6087 34.1587 54.6087 34.32ZM66.5882 32.274C66.5589 32.4207 66.4562 32.5013 66.2802 32.516C66.1042 32.5307 65.9576 32.538 65.8402 32.538C65.4736 32.5527 65.0922 32.5893 64.6962 32.648C64.3149 32.7067 63.9116 32.7947 63.4862 32.912C63.3102 32.9707 63.1196 32.9487 62.9142 32.846C62.7089 32.7433 62.5842 32.538 62.5402 32.23C62.5402 32.1127 62.5842 32.0173 62.6722 31.944C62.7602 31.8707 62.8629 31.8047 62.9802 31.746C63.1709 31.658 63.3982 31.5847 63.6622 31.526C63.9262 31.4527 64.1902 31.4013 64.4542 31.372C64.7329 31.3427 64.9969 31.3353 65.2462 31.35C65.4956 31.35 65.7009 31.372 65.8622 31.416C66.0969 31.4893 66.2802 31.5993 66.4122 31.746C66.5589 31.8927 66.6176 32.0687 66.5882 32.274ZM66.0822 39.6C66.1849 39.8347 66.2362 40.0913 66.2362 40.37C66.2509 40.634 66.1776 40.8173 66.0162 40.92C65.8109 41.052 65.5909 41.0447 65.3562 40.898C65.1216 40.7513 64.9456 40.5533 64.8282 40.304C64.6669 39.996 64.5422 39.622 64.4542 39.182C64.3662 38.7273 64.3002 38.28 64.2562 37.84C64.2122 37.4 64.1829 36.9893 64.1682 36.608C64.1682 36.2267 64.1682 35.9407 64.1682 35.75C64.1829 35.5447 64.2416 35.354 64.3442 35.178C64.4469 35.002 64.5789 34.8993 64.7402 34.87C65.0042 34.8847 65.2169 35.0093 65.3782 35.244C65.5396 35.464 65.6129 35.7427 65.5982 36.08C65.5982 36.344 65.6056 36.6373 65.6202 36.96C65.6349 37.2827 65.6642 37.6053 65.7082 37.928C65.7522 38.2507 65.8036 38.566 65.8622 38.874C65.9209 39.1673 65.9942 39.4093 66.0822 39.6ZM73.2144 35.354C73.493 35.3393 73.7717 35.4053 74.0504 35.552C74.329 35.6987 74.4684 35.926 74.4684 36.234C74.439 36.4833 74.2997 36.6447 74.0504 36.718C73.8157 36.7767 73.625 36.806 73.4784 36.806C73.185 36.806 72.8697 36.8133 72.5324 36.828C72.195 36.8427 71.8504 36.8647 71.4984 36.894C71.469 37.378 71.4397 37.8327 71.4104 38.258C71.3957 38.6833 71.381 39.0647 71.3664 39.402C71.3517 39.7247 71.3444 39.9887 71.3444 40.194C71.3444 40.3993 71.3517 40.5093 71.3664 40.524C71.689 40.4653 72.0337 40.37 72.4004 40.238C72.7817 40.0913 73.1557 39.9373 73.5224 39.776C73.9037 39.6 74.2704 39.424 74.6224 39.248C74.989 39.0573 75.3337 38.8813 75.6564 38.72C75.803 38.6467 75.935 38.6247 76.0524 38.654C76.1844 38.6833 76.265 38.7493 76.2944 38.852C76.3237 39.0133 76.3017 39.2113 76.2284 39.446C76.155 39.6807 76.023 39.8933 75.8324 40.084C75.6124 40.26 75.319 40.4653 74.9524 40.7C74.6004 40.92 74.219 41.1327 73.8084 41.338C73.3977 41.5433 72.9797 41.7267 72.5544 41.888C72.1437 42.0347 71.777 42.1227 71.4544 42.152C70.9704 42.196 70.6037 42.064 70.3544 41.756C70.105 41.448 69.9657 41.0593 69.9364 40.59C69.907 40.1207 69.8997 39.578 69.9144 38.962C69.9437 38.346 69.973 37.6933 70.0024 37.004C69.7237 37.0333 69.4524 37.0627 69.1884 37.092C68.939 37.1067 68.697 37.1287 68.4624 37.158C68.2717 37.158 68.059 37.114 67.8244 37.026C67.6044 36.938 67.4944 36.7693 67.4944 36.52C67.4944 36.432 67.531 36.3147 67.6044 36.168C67.6777 36.0213 67.839 35.9113 68.0884 35.838C68.6897 35.7353 69.357 35.6473 70.0904 35.574C70.1344 34.8847 70.1857 34.2173 70.2444 33.572C70.303 32.9267 70.3544 32.34 70.3984 31.812C70.413 31.636 70.4644 31.482 70.5524 31.35C70.6404 31.218 70.7357 31.152 70.8384 31.152C71.0877 31.1373 71.3224 31.2033 71.5424 31.35C71.777 31.482 71.8944 31.636 71.8944 31.812C71.8357 32.3107 71.777 32.8753 71.7184 33.506C71.6744 34.1367 71.6304 34.782 71.5864 35.442C71.8797 35.4127 72.1584 35.398 72.4224 35.398C72.701 35.3833 72.965 35.3687 73.2144 35.354ZM84.7748 33.99C84.8188 34.21 84.8628 34.4593 84.9068 34.738C84.9655 35.002 85.0242 35.2807 85.0828 35.574C85.1415 35.8527 85.1928 36.1387 85.2368 36.432C85.2808 36.7253 85.3175 37.004 85.3468 37.268C85.5228 36.8867 85.7135 36.4833 85.9188 36.058C86.1242 35.6327 86.3442 35.244 86.5788 34.892C86.8282 34.5253 87.0848 34.2247 87.3488 33.99C87.6275 33.7553 87.9282 33.638 88.2508 33.638C88.7348 33.638 89.1382 33.814 89.4608 34.166C89.7982 34.518 90.0768 34.958 90.2968 35.486C90.5315 35.9993 90.7148 36.542 90.8468 37.114C90.9788 37.686 91.0888 38.192 91.1768 38.632C91.2648 39.028 91.0888 39.3213 90.6488 39.512C90.4435 39.6147 90.2895 39.6293 90.1868 39.556C90.0842 39.4827 90.0255 39.4093 90.0108 39.336C89.9375 39.16 89.8422 38.852 89.7248 38.412C89.6222 37.972 89.4975 37.5247 89.3508 37.07C89.2188 36.6153 89.0648 36.2193 88.8888 35.882C88.7128 35.5447 88.5148 35.3907 88.2948 35.42C88.0308 35.4347 87.7962 35.6327 87.5908 36.014C87.4148 36.322 87.2315 36.6667 87.0408 37.048C86.8648 37.4147 86.6888 37.796 86.5128 38.192C86.3368 38.5733 86.1608 38.962 85.9848 39.358C85.8235 39.7393 85.6695 40.0913 85.5228 40.414C85.4202 40.5167 85.2882 40.59 85.1268 40.634C84.9802 40.6633 84.8262 40.6487 84.6648 40.59C84.5182 40.546 84.4008 40.4727 84.3128 40.37C84.2248 40.2673 84.1808 40.1647 84.1808 40.062C84.0488 38.918 83.9095 37.8767 83.7628 36.938C83.6308 35.9993 83.4548 35.0387 83.2348 34.056C83.1322 33.7187 83.1102 33.4547 83.1688 33.264C83.2422 33.0587 83.4622 32.978 83.8288 33.022C84.3422 33.11 84.6575 33.4327 84.7748 33.99ZM97.7511 33.572C98.1911 33.7333 98.5577 33.9753 98.8511 34.298C99.1591 34.6207 99.3937 34.9873 99.5551 35.398C99.7164 35.794 99.8044 36.2047 99.8191 36.63C99.8484 37.0553 99.8044 37.4513 99.6871 37.818C99.5257 38.2287 99.3204 38.632 99.0711 39.028C98.8217 39.424 98.5357 39.776 98.2131 40.084C97.8904 40.392 97.5237 40.6413 97.1131 40.832C96.7024 41.0227 96.2477 41.118 95.7491 41.118C95.1477 41.118 94.6417 40.9787 94.2311 40.7C93.8204 40.4213 93.4977 40.062 93.2631 39.622C93.0284 39.182 92.8744 38.6833 92.8011 38.126C92.7424 37.5687 92.7571 37.0113 92.8451 36.454C92.9037 36.0433 92.9991 35.6473 93.1311 35.266C93.2777 34.87 93.4611 34.5253 93.6811 34.232C93.9011 33.924 94.1504 33.6747 94.4291 33.484C94.7224 33.2933 95.0524 33.198 95.4191 33.198C95.6244 33.198 95.8811 33.242 96.1891 33.33C96.4971 33.4033 96.7831 33.5133 97.0471 33.66C97.2377 33.484 97.4724 33.4547 97.7511 33.572ZM96.9151 35.178C96.7537 35.0753 96.5631 34.9433 96.3431 34.782C96.1377 34.606 95.9544 34.518 95.7931 34.518C95.6171 34.518 95.4411 34.5987 95.2651 34.76C95.1037 34.9213 94.9571 35.112 94.8251 35.332C94.7077 35.5373 94.6051 35.75 94.5171 35.97C94.4291 36.19 94.3704 36.366 94.3411 36.498C94.2971 36.718 94.2677 36.982 94.2531 37.29C94.2384 37.598 94.2604 37.906 94.3191 38.214C94.3777 38.5073 94.4877 38.7787 94.6491 39.028C94.8251 39.2627 95.0817 39.4313 95.4191 39.534C95.6244 39.5927 95.8664 39.5927 96.1451 39.534C96.4237 39.4607 96.6951 39.336 96.9591 39.16C97.2377 38.984 97.4944 38.7493 97.7291 38.456C97.9784 38.1627 98.1691 37.8253 98.3011 37.444C98.4477 37.0187 98.4477 36.5787 98.3011 36.124C98.1691 35.6547 97.8904 35.3173 97.4651 35.112C97.3624 35.1853 97.2597 35.222 97.1571 35.222C97.0544 35.222 96.9737 35.2073 96.9151 35.178ZM109.418 40.744C109.3 40.9053 109.168 41.0153 109.022 41.074C108.875 41.118 108.743 41.14 108.626 41.14C108.42 41.1253 108.23 41.0593 108.054 40.942C107.878 40.81 107.768 40.678 107.724 40.546C107.636 40.2967 107.54 40.018 107.438 39.71C107.335 39.402 107.232 39.094 107.13 38.786C107.042 38.4633 106.946 38.1553 106.844 37.862C106.741 37.554 106.646 37.2753 106.558 37.026C106.264 37.5393 105.986 38.06 105.722 38.588C105.458 39.1013 105.164 39.6367 104.842 40.194C104.695 40.414 104.526 40.568 104.336 40.656C104.145 40.7293 103.984 40.7587 103.852 40.744C103.661 40.7293 103.485 40.656 103.324 40.524C103.177 40.392 103.06 40.2673 102.972 40.15C102.81 39.886 102.649 39.5487 102.488 39.138C102.326 38.7127 102.172 38.2727 102.026 37.818C101.894 37.3487 101.769 36.8867 101.652 36.432C101.534 35.9627 101.439 35.5447 101.366 35.178C101.322 34.9287 101.322 34.694 101.366 34.474C101.424 34.254 101.556 34.1293 101.762 34.1C102.011 34.0853 102.238 34.1733 102.444 34.364C102.649 34.54 102.766 34.716 102.796 34.892C102.854 35.1853 102.92 35.508 102.994 35.86C103.082 36.1973 103.17 36.542 103.258 36.894C103.36 37.246 103.456 37.5907 103.544 37.928C103.646 38.2653 103.749 38.566 103.852 38.83C104.072 38.478 104.314 38.0747 104.578 37.62C104.856 37.1507 105.12 36.7033 105.37 36.278C105.619 35.838 105.846 35.4567 106.052 35.134C106.257 34.8113 106.418 34.6133 106.536 34.54C106.624 34.4813 106.748 34.4887 106.91 34.562C107.071 34.6207 107.188 34.7087 107.262 34.826C107.584 35.4713 107.848 36.1827 108.054 36.96C108.274 37.7227 108.486 38.434 108.692 39.094C108.897 38.83 109.117 38.4853 109.352 38.06C109.586 37.62 109.814 37.158 110.034 36.674C110.254 36.19 110.459 35.706 110.65 35.222C110.84 34.738 110.994 34.3053 111.112 33.924C111.229 33.528 111.39 33.3373 111.596 33.352C111.86 33.3813 112.087 33.4693 112.278 33.616C112.468 33.7627 112.542 33.9167 112.498 34.078C112.175 35.3687 111.757 36.5567 111.244 37.642C110.73 38.7127 110.122 39.7467 109.418 40.744ZM117.566 29.722C117.434 30.3673 117.294 31.0053 117.148 31.636C117.016 32.2667 116.891 32.8973 116.774 33.528C116.656 34.1587 116.568 34.7893 116.51 35.42C116.451 36.0507 116.444 36.6813 116.488 37.312C116.517 37.4733 116.488 37.6273 116.4 37.774C116.326 37.9207 116.238 38.016 116.136 38.06C115.813 38.1773 115.578 38.0967 115.432 37.818C115.256 37.07 115.16 36.3293 115.146 35.596C115.146 34.8627 115.197 34.1367 115.3 33.418C115.417 32.6993 115.564 31.988 115.74 31.284C115.93 30.5653 116.121 29.854 116.312 29.15C116.385 28.8567 116.502 28.6953 116.664 28.666C116.825 28.6367 116.979 28.6513 117.126 28.71C117.346 28.7833 117.485 28.93 117.544 29.15C117.602 29.37 117.61 29.5607 117.566 29.722ZM116.686 41.558C116.686 41.7193 116.664 41.9393 116.62 42.218C116.59 42.482 116.532 42.7313 116.444 42.966C116.37 43.2007 116.26 43.3913 116.114 43.538C115.982 43.6847 115.813 43.714 115.608 43.626C115.49 43.5527 115.373 43.4133 115.256 43.208C115.138 43.0027 115.087 42.812 115.102 42.636C115.131 42.284 115.204 41.9393 115.322 41.602C115.439 41.2647 115.593 41.0593 115.784 40.986C115.872 40.9567 115.967 40.9567 116.07 40.986C116.187 41.0153 116.29 41.0667 116.378 41.14C116.466 41.1987 116.539 41.272 116.598 41.36C116.656 41.4333 116.686 41.4993 116.686 41.558Z" fill="#646482"/>
<path fill-rule="evenodd" clip-rule="evenodd" d="M0.0189645 9.13292L1.84074 0.568471C1.90788 0.307485 2.10807 0.101919 2.36686 0.0286764C2.62541 -0.04481 2.90348 0.0252584 3.09709 0.21227L8.57243 5.77135C9.25334 6.45861 8.19206 7.52745 7.51139 6.83507L3.007 2.26427L1.46525 9.53429C1.26506 10.4825 -0.18123 10.076 0.0189645 9.13292ZM4.92399 5.5858C5.44767 10.5128 5.81974 15.4498 6.03996 20.3968L23.0573 18.0187C24.0033 17.8832 24.4086 19.3331 23.4577 19.4686L5.52946 21.9772C5.30363 22.0338 5.06462 21.9842 4.87956 21.8426C4.6945 21.7013 4.5839 21.483 4.57853 21.2499C4.36491 16.0184 3.97966 10.797 3.42253 5.5858C3.3173 4.62242 4.82389 4.63243 4.92399 5.5858Z" fill="#646482"/>
</svg>
