<svg width="184" height="47" viewBox="0 0 184 47" fill="none" xmlns="http://www.w3.org/2000/svg">
<path d="M39.4203 19.7865C39.2659 19.7278 39.1029 19.6156 38.9313 19.4499C38.7751 19.284 38.6805 19.1399 38.6477 19.0178C38.5657 18.7125 38.4748 18.3384 38.3751 17.8954C38.2753 17.4524 38.1751 16.9788 38.0742 16.4745C37.9734 15.9701 37.8725 15.4582 37.7714 14.9385C37.6854 14.4033 37.5999 13.8987 37.5149 13.4247C37.4297 12.9355 37.3608 12.4996 37.3081 12.1172C37.2554 11.7347 37.2194 11.4286 37.2 11.1989C37.1958 10.9536 37.2777 10.8142 37.4458 10.7806C37.8436 10.7276 38.1297 10.8683 38.3043 11.2026C38.3857 11.4773 38.4756 11.7901 38.5737 12.1411C38.6718 12.4921 38.7705 12.8738 38.8697 13.2861C39.2353 13.1417 39.5618 12.9596 39.8493 12.7399C40.1369 12.5202 40.3705 12.2861 40.5502 12.0376C40.7449 11.7735 40.8784 11.5104 40.9505 11.2485C41.0376 10.9709 41.0483 10.7023 40.9824 10.4428C40.9007 10.1528 40.6823 9.94194 40.3273 9.81012C39.9723 9.67829 39.5724 9.61626 39.1278 9.62402C38.5146 9.63472 37.9647 9.75934 37.4781 9.99787C37.0066 10.2208 36.5744 10.4967 36.1814 10.8256C35.9998 10.9668 35.8013 11.0163 35.5859 10.974C35.3548 10.9167 35.199 10.7738 35.1183 10.5451C35.1146 10.3305 35.1497 10.1459 35.2237 9.99121C35.2976 9.83657 35.3949 9.69685 35.5154 9.57206C35.9821 9.07317 36.5356 8.71846 37.1761 8.50791C37.8318 8.2971 38.52 8.18541 39.2405 8.17283C39.8231 8.16266 40.3843 8.24488 40.9241 8.41949C41.4792 8.59383 41.9526 8.91528 42.3441 9.38385C42.5335 9.68726 42.6311 10.0076 42.637 10.3449C42.6582 10.6819 42.6179 11.0123 42.5162 11.3361C42.4145 11.66 42.2666 11.9693 42.0724 12.264C41.8935 12.5585 41.7063 12.8148 41.5107 13.033C41.8934 12.9956 42.2851 13.0271 42.6855 13.1275C43.0857 13.2125 43.4413 13.375 43.7522 13.6149C44.0782 13.8393 44.3441 14.1413 44.5501 14.5211C44.7561 14.9009 44.8638 15.3591 44.8732 15.8957C44.8839 16.5089 44.7557 17.0709 44.4885 17.5817C44.2367 18.0921 43.8916 18.5276 43.4532 18.8879C43.0301 19.2481 42.5366 19.5327 41.9729 19.7419C41.4244 19.9508 40.8513 20.0605 40.2533 20.071C39.9927 20.0755 39.7844 20.0025 39.6284 19.8518C39.5518 19.8532 39.4824 19.8314 39.4203 19.7865ZM39.244 14.9588C39.3771 15.5546 39.5029 16.1735 39.6214 16.8155C39.74 17.4575 39.8662 18.0994 40.0001 18.7412L40.0921 18.7396C40.4294 18.7337 40.7962 18.6659 41.1927 18.5363C41.6045 18.4065 41.9847 18.2235 42.3333 17.9874C42.6816 17.7359 42.9678 17.4395 43.1919 17.0982C43.4157 16.7416 43.5162 16.3488 43.4934 15.9198C43.41 15.5379 43.2287 15.2496 42.9492 15.0552C42.6698 14.8607 42.3302 14.7362 41.9305 14.6819C41.5462 14.6272 41.1169 14.6347 40.6427 14.7044C40.1836 14.7584 39.7174 14.8432 39.244 14.9588ZM51.6019 13.938C51.0102 14.301 50.3711 14.5882 49.6847 14.7996C48.998 14.9956 48.256 15.1005 47.4588 15.1145C47.4989 15.6505 47.6597 16.0771 47.9412 16.3942C48.2226 16.696 48.5707 16.874 48.9857 16.9281C49.2316 16.9545 49.4767 16.9425 49.7212 16.8922C49.981 16.8417 50.2175 16.7686 50.4305 16.6728C50.6586 16.5615 50.8635 16.4429 51.0454 16.3171C51.2272 16.1912 51.386 16.0657 51.5219 15.9407C51.6577 15.8156 51.802 15.7364 51.9548 15.7031C52.1073 15.6544 52.2222 15.6447 52.2993 15.6741C52.5153 15.747 52.596 15.9756 52.5413 16.3599C52.3046 16.8548 51.9594 17.2826 51.5056 17.6432C51.0515 17.9885 50.5417 18.2121 49.9761 18.314C49.4871 18.4146 48.9807 18.4004 48.4571 18.2715C47.9334 18.1426 47.4611 17.8825 47.0403 17.4911C46.6815 17.1447 46.406 16.7354 46.2137 16.2634C46.0214 15.7913 45.8979 15.3027 45.8431 14.7976C45.7888 14.3232 45.8192 13.8702 45.9344 13.4388C46.0648 13.0071 46.2653 12.6279 46.5356 12.3011C46.8057 11.959 47.1458 11.6771 47.556 11.4552C47.9662 11.2333 48.447 11.1023 48.9983 11.062C49.6568 11.0045 50.2568 11.1167 50.7985 11.3986C51.3402 11.6805 51.7229 12.0802 51.9466 12.5978C52.0743 12.8869 52.1094 13.1393 52.0518 13.355C52.0096 13.5705 51.8596 13.7648 51.6019 13.938ZM48.93 12.4204C48.7773 12.4537 48.6096 12.5103 48.4269 12.5902C48.2596 12.6698 48.1004 12.7722 47.9492 12.8976C47.8131 13.0073 47.6851 13.1399 47.5651 13.2953C47.4602 13.4352 47.4017 13.5972 47.3896 13.7815C47.6502 13.7769 47.9334 13.749 48.2392 13.6976C48.5604 13.646 48.8661 13.587 49.1563 13.5206C49.4616 13.4386 49.736 13.3494 49.9797 13.2532C50.2388 13.1566 50.4517 13.0532 50.6184 12.943C50.4907 12.6538 50.2576 12.4815 49.9193 12.4261C49.596 12.3551 49.2663 12.3532 48.93 12.4204ZM65.6394 10.5875C65.7082 11.0157 65.7622 11.4748 65.8014 11.9649C65.8557 12.4393 65.8948 12.9217 65.9187 13.412C65.9579 13.9021 65.9816 14.3771 65.9896 14.837C65.9976 15.2969 65.9972 15.711 65.9883 16.0792C66.4847 16.4079 66.7812 16.7018 66.8778 16.9608C66.9896 17.2196 67.009 17.4493 66.9358 17.6499C66.8486 17.9275 66.6826 18.0761 66.4375 18.0957C66.2076 18.0997 65.9378 18.0201 65.6282 17.8568C65.4163 18.0138 65.1739 18.1868 64.9012 18.3755C64.6282 18.549 64.3398 18.7227 64.0361 18.8967C63.7322 19.0554 63.428 19.1987 63.1235 19.3267C62.819 19.4547 62.5369 19.544 62.277 19.5945C61.7878 19.6797 61.3416 19.5955 60.9384 19.3419C60.5506 19.0879 60.2832 18.7015 60.1361 18.1827C60.0379 17.8317 60.0087 17.4718 60.0482 17.103C60.0875 16.719 60.1962 16.3567 60.3743 16.0162C60.5521 15.6604 60.7919 15.3418 61.0937 15.0605C61.4109 14.7789 61.7827 14.5577 62.2093 14.3969C62.3158 14.3491 62.4608 14.3082 62.6443 14.2743C62.843 14.2402 63.0422 14.229 63.2418 14.2409C63.4564 14.2371 63.6717 14.2717 63.8877 14.3446C64.1036 14.4175 64.3052 14.5444 64.4924 14.7251C64.4879 14.4645 64.4752 14.181 64.4546 13.8747C64.4489 13.5527 64.4356 13.2309 64.4147 12.9092C64.3937 12.5875 64.3655 12.289 64.3301 12.0135C64.3096 11.7225 64.2824 11.4776 64.2482 11.2789C64.2135 11.0494 64.1191 10.9131 63.965 10.8697C63.826 10.8108 63.6498 10.8216 63.4365 10.902C63.0707 11.031 62.6456 11.2762 62.1612 11.6373C61.6767 11.9985 61.2157 12.3823 60.778 12.7887C60.6425 12.929 60.4826 12.9932 60.2983 12.9811C60.1294 12.9687 59.9826 12.9022 59.8578 12.7817C59.733 12.6612 59.6616 12.5244 59.6436 12.3714C59.6253 12.203 59.6836 12.0256 59.8183 11.8393C60.0741 11.5588 60.3605 11.27 60.6773 10.9731C60.9942 10.6762 61.3269 10.4097 61.6755 10.1736C62.0239 9.92214 62.3807 9.71655 62.7459 9.55682C63.1112 9.39708 63.4777 9.30634 63.8454 9.28459C64.3817 9.25989 64.7977 9.37531 65.0936 9.63086C65.3892 9.87107 65.5711 10.1899 65.6394 10.5875ZM63.0581 15.5783C62.8596 15.6278 62.6467 15.7312 62.4194 15.8885C62.2072 16.0302 62.0109 16.21 61.8307 16.4278C61.6655 16.6301 61.5392 16.8623 61.4518 17.1246C61.3794 17.3712 61.3837 17.6165 61.4647 17.8604C61.4969 17.9519 61.5595 18.0198 61.6522 18.0642C61.7604 18.1083 61.8755 18.114 61.9976 18.0812C62.3642 17.9981 62.7756 17.8452 63.2318 17.6226C63.703 17.3843 64.0744 17.1325 64.3458 16.867C64.3442 16.775 64.2962 16.6608 64.2018 16.5245C64.1071 16.3728 63.9972 16.229 63.8722 16.0932C63.7469 15.942 63.6066 15.8141 63.4514 15.7094C63.3116 15.6045 63.1805 15.5608 63.0581 15.5783ZM69.2533 11.6056C69.2729 11.8506 69.3013 12.1568 69.3384 12.5242C69.3905 12.876 69.4431 13.2508 69.496 13.6486C69.5487 14.0311 69.6014 14.4136 69.6541 14.7961C69.7221 15.1783 69.7819 15.5299 69.8335 15.8511C69.9962 15.5109 70.196 15.0933 70.4327 14.5984C70.6695 14.1036 70.9143 13.6315 71.1671 13.1824C71.435 12.7177 71.7043 12.3296 71.9749 12.0181C72.2606 11.6911 72.5184 11.5256 72.7484 11.5216C72.9937 11.5173 73.2181 11.636 73.4217 11.8779C73.6403 12.1041 73.8293 12.3845 73.9885 12.7191C74.1477 13.0537 74.2843 13.4117 74.3983 13.7931C74.5276 14.1742 74.6331 14.5098 74.7149 14.7997C74.7727 14.5994 74.8455 14.3757 74.9332 14.1288C75.036 13.8663 75.1387 13.6038 75.2415 13.3413C75.3593 13.0632 75.485 12.7927 75.6184 12.5296C75.7672 12.2663 75.9241 12.0335 76.0893 11.8313C76.2848 11.6132 76.4968 11.4561 76.7252 11.3601C76.9533 11.2488 77.121 11.1922 77.2283 11.1903C77.3663 11.1879 77.528 11.2311 77.7136 11.3199C77.9143 11.393 78.1154 11.4969 78.3171 11.6314C78.5189 11.7659 78.7058 11.9313 78.8779 12.1277C79.0651 12.3084 79.2141 12.4975 79.3249 12.695C79.5467 13.1051 79.7232 13.5545 79.8545 14.0429C80.001 14.5311 80.1088 14.997 80.1779 15.4405C80.247 15.884 80.2923 16.2819 80.3138 16.6343C80.3503 16.971 80.3775 17.2083 80.3952 17.346C80.3987 17.5453 80.3783 17.699 80.3342 17.8071C80.2898 17.8999 80.2069 17.978 80.0853 18.0415C79.918 18.1211 79.7729 18.1543 79.65 18.1411C79.5268 18.1126 79.4262 18.0607 79.3482 17.9854C79.2702 17.91 79.2074 17.8268 79.1598 17.7356C79.1119 17.6291 79.0797 17.5376 79.063 17.4613C79.0109 17.1094 78.9509 16.7501 78.8832 16.3832C78.8307 16.0161 78.7709 15.6644 78.7037 15.3282C78.6362 14.9767 78.554 14.656 78.4569 14.3664C78.3749 14.0611 78.2859 13.7943 78.1899 13.5659C78.1581 13.5051 78.1032 13.4294 78.0249 13.3387C77.9617 13.2325 77.8833 13.1342 77.7897 13.0438C77.7114 12.9532 77.6335 12.8778 77.5557 12.8178C77.478 12.7579 77.4237 12.7205 77.3927 12.7057C77.2394 12.7084 77.081 12.8568 76.9174 13.151C76.7536 13.4299 76.5985 13.77 76.4522 14.1713C76.3058 14.5726 76.1675 14.9967 76.0373 15.4437C75.9222 15.8752 75.8366 16.2447 75.7806 16.5524C75.7876 16.951 75.7162 17.2513 75.5663 17.4533C75.4162 17.6399 75.2569 17.7347 75.0882 17.7377C74.9196 17.7406 74.7345 17.6825 74.5331 17.5633C74.3467 17.4286 74.2214 17.2774 74.1571 17.1098C74.0608 16.8661 73.9564 16.5919 73.8437 16.2872C73.731 15.9824 73.6106 15.6701 73.4823 15.3503C73.3694 15.0302 73.2489 14.718 73.1209 14.4135C73.0082 14.1087 72.8961 13.8347 72.7845 13.5912C72.575 13.8863 72.3659 14.212 72.1575 14.5683C71.9643 14.9244 71.7713 15.2882 71.5784 15.6596C71.4009 16.0308 71.2233 16.4019 71.0458 16.7731C70.8833 17.1286 70.7278 17.4457 70.5793 17.7244C70.4749 17.8949 70.3626 18.0502 70.2424 18.1903C70.1219 18.3151 69.9773 18.379 69.8087 18.3819C69.686 18.384 69.5548 18.3327 69.4149 18.2277C69.2748 18.1075 69.1419 17.9641 69.0163 17.7976C68.8907 17.6311 68.7724 17.4415 68.6614 17.2287C68.5656 17.0157 68.4929 16.8023 68.4431 16.5885C68.309 15.9314 68.1891 15.2127 68.0835 14.4324C67.9929 13.6365 67.9027 12.8637 67.813 12.1138C67.7931 11.8534 67.8196 11.6152 67.8925 11.3993C67.9805 11.1677 68.1464 11.0115 68.3904 10.9305C68.6502 10.88 68.8502 10.9148 68.9903 11.0351C69.1304 11.1553 69.2181 11.3455 69.2533 11.6056ZM87.1353 10.6953C87.5982 10.856 87.9859 11.1022 88.2984 11.4342C88.6262 11.7658 88.8782 12.1448 89.0543 12.5711C89.2302 12.9821 89.3297 13.4098 89.3528 13.8541C89.3912 14.2982 89.3524 14.7129 89.2365 15.0983C89.0753 15.5305 88.868 15.9559 88.6146 16.3744C88.3612 16.7929 88.0687 17.166 87.737 17.4939C87.4054 17.8217 87.0267 18.089 86.6009 18.2958C86.1751 18.5026 85.7016 18.6106 85.1803 18.6197C84.5517 18.6306 84.0203 18.4942 83.5859 18.2104C83.1516 17.9266 82.8077 17.5569 82.5544 17.1013C82.3011 16.6456 82.131 16.1272 82.0442 15.5459C81.9727 14.9644 81.9779 14.3816 82.0597 13.7974C82.1135 13.3671 82.2059 12.9514 82.3369 12.5504C82.483 12.1338 82.6684 11.7701 82.893 11.4595C83.1173 11.1335 83.3734 10.8684 83.6612 10.664C83.9644 10.4593 84.3076 10.3536 84.6909 10.3469C84.9055 10.3432 85.1746 10.3845 85.4981 10.4709C85.8214 10.5419 86.1224 10.6517 86.401 10.8002C86.5971 10.6127 86.8419 10.5778 87.1353 10.6953ZM86.2907 12.3893C86.1202 12.285 85.9185 12.1505 85.6856 11.9858C85.4678 11.8056 85.2745 11.717 85.1059 11.7199C84.9219 11.7231 84.7394 11.8107 84.5584 11.9825C84.3927 12.1541 84.2428 12.3561 84.1089 12.5884C83.99 12.8052 83.8865 13.0294 83.7986 13.261C83.7106 13.4925 83.6525 13.6776 83.6242 13.8161C83.5823 14.0469 83.5564 14.3234 83.5467 14.6456C83.537 14.9678 83.5656 15.2893 83.6325 15.6102C83.6992 15.9158 83.8192 16.1974 83.9923 16.4551C84.1806 16.6972 84.452 16.8688 84.8065 16.9699C85.0222 17.0275 85.2751 17.0231 85.5653 16.9567C85.8553 16.875 86.1366 16.7397 86.4094 16.5509C86.6975 16.3618 86.9615 16.1119 87.2014 15.801C87.4567 15.4898 87.6498 15.1337 87.7809 14.7327C87.9264 14.2854 87.9184 13.8255 87.7568 13.3529C87.6102 12.8647 87.3128 12.5172 86.8644 12.3103C86.7585 12.3888 86.6518 12.429 86.5445 12.4309C86.4372 12.4328 86.3526 12.4189 86.2907 12.3893ZM92.323 11.0419C92.373 11.271 92.4235 11.5308 92.4746 11.8213C92.5407 12.0962 92.6071 12.3864 92.6738 12.692C92.7402 12.9822 92.7991 13.2802 92.8504 13.586C92.9018 13.8919 92.9452 14.1825 92.9807 14.4579C93.1577 14.0561 93.3496 13.631 93.5565 13.1827C93.7634 12.7343 93.9863 12.324 94.2251 11.9518C94.4791 11.564 94.7419 11.245 95.0136 10.9949C95.3006 10.7445 95.6127 10.6164 95.95 10.6105C96.4559 10.6017 96.8807 10.7783 97.2244 11.1403C97.5835 11.5021 97.8828 11.957 98.1224 12.5049C98.377 13.0372 98.5786 13.6011 98.727 14.1966C98.8754 14.7921 98.9996 15.319 99.0996 15.7773C99.1989 16.1896 99.0202 16.4995 98.5638 16.7068C98.351 16.8179 98.1903 16.836 98.0817 16.7612C97.973 16.6864 97.9103 16.6109 97.8937 16.5345C97.8138 16.3518 97.7085 16.0316 97.5779 15.5738C97.4625 15.1158 97.324 14.6505 97.1624 14.1779C97.0162 13.705 96.848 13.2939 96.6578 12.9445C96.4677 12.5951 96.2579 12.4377 96.0285 12.4724C95.7528 12.4925 95.5111 12.7038 95.3034 13.1062C95.1251 13.4313 94.9397 13.7949 94.7474 14.197C94.5701 14.5835 94.3931 14.9853 94.2164 15.4025C94.0393 15.8043 93.8625 16.2138 93.6857 16.6309C93.524 17.0325 93.3695 17.4032 93.2221 17.7432C93.1166 17.8524 92.98 17.9314 92.8121 17.9804C92.6594 18.0137 92.4981 18.0012 92.3284 17.9428C92.1743 17.8995 92.0503 17.825 91.9564 17.7193C91.8626 17.6136 91.8147 17.507 91.8128 17.3997C91.654 16.2063 91.4894 15.1204 91.3189 14.1418C91.1638 13.1631 90.9623 12.1621 90.7144 11.1389C90.6009 10.7882 90.5731 10.5126 90.631 10.3123C90.7039 10.0963 90.9324 10.008 91.3165 10.0473C91.8546 10.1299 92.1901 10.4614 92.323 11.0419ZM104.505 12.0714C104.63 12.2379 104.749 12.4505 104.861 12.7093C104.988 12.9524 105.084 13.2038 105.15 13.4634C105.249 13.8757 105.357 14.3262 105.473 14.8149C105.604 15.2881 105.727 15.7843 105.844 16.3037C105.976 16.8228 106.092 17.3498 106.194 17.8848C106.31 18.4195 106.411 18.9315 106.496 19.4208C106.6 20.0937 106.558 20.7386 106.369 21.3553C106.196 21.9871 105.892 22.5521 105.456 23.0505C105.02 23.5488 104.474 23.9494 103.82 24.2522C103.166 24.555 102.425 24.729 101.598 24.7741C101.414 24.762 101.221 24.6733 101.018 24.5081C100.816 24.3583 100.714 24.1991 100.711 24.0304C100.693 23.8621 100.767 23.7228 100.934 23.6125C101.116 23.5173 101.299 23.4528 101.482 23.4189C101.804 23.3826 102.132 23.3079 102.468 23.1947C102.819 23.0965 103.146 22.9528 103.449 22.7635C103.753 22.5741 104.025 22.347 104.266 22.0821C104.522 21.8169 104.716 21.5068 104.847 21.1518C104.95 20.874 104.998 20.5358 104.991 20.1372C104.983 19.7232 104.946 19.3175 104.877 18.9199C104.824 18.5221 104.749 18.1477 104.651 17.7967C104.568 17.4301 104.494 17.1554 104.429 16.9725C104.324 17.0817 104.188 17.1991 104.021 17.3246C103.87 17.45 103.696 17.568 103.499 17.6788C103.301 17.7896 103.08 17.8778 102.836 17.9434C102.607 18.0088 102.37 18.0359 102.124 18.0249C101.863 18.0141 101.617 17.9264 101.384 17.7617C101.166 17.5969 100.971 17.3856 100.798 17.1279C100.624 16.8549 100.481 16.543 100.367 16.1922C100.269 15.8412 100.217 15.4741 100.21 15.0908C100.224 14.1704 100.44 13.3539 100.857 12.6412C101.289 11.9128 101.985 11.3409 102.944 10.9255C103.02 10.9088 103.119 10.8917 103.242 10.8743C103.379 10.8565 103.517 10.8541 103.656 10.867C103.794 10.8646 103.924 10.8777 104.047 10.9062C104.186 10.9345 104.302 10.9785 104.395 11.0382C104.566 11.1579 104.653 11.3327 104.657 11.5627C104.661 11.7926 104.61 11.9622 104.505 12.0714ZM101.662 15.2725C101.665 15.4411 101.684 15.6325 101.718 15.8466C101.752 16.0454 101.855 16.1893 102.025 16.2783C102.211 16.3824 102.433 16.3939 102.693 16.3127C102.967 16.2312 103.218 16.0965 103.445 15.9085C103.656 15.7361 103.791 15.5497 103.849 15.3494C103.922 15.1334 103.917 14.8498 103.834 14.4985C103.751 14.1472 103.661 13.7807 103.562 13.3991C103.463 13.0174 103.396 12.6735 103.36 12.3674C103.177 12.4626 102.98 12.5964 102.769 12.7688C102.572 12.9409 102.392 13.1588 102.228 13.4223C102.064 13.6706 101.923 13.9491 101.806 14.2578C101.704 14.5663 101.656 14.9046 101.662 15.2725ZM119.181 11.9993C119.472 11.9788 119.765 12.0428 120.059 12.191C120.352 12.3392 120.502 12.5743 120.508 12.8962C120.482 13.1574 120.339 13.3286 120.08 13.4098C119.836 13.4754 119.637 13.5095 119.483 13.5122C119.177 13.5176 118.847 13.531 118.495 13.5525C118.143 13.574 117.783 13.6032 117.415 13.6403C117.394 14.1468 117.371 14.6226 117.348 15.0677C117.341 15.5126 117.332 15.9115 117.323 16.2643C117.314 16.6019 117.311 16.878 117.315 17.0926C117.318 17.3072 117.328 17.4221 117.344 17.4372C117.68 17.3699 118.038 17.264 118.419 17.1193C118.815 16.9591 119.203 16.7913 119.584 16.6159C119.979 16.425 120.359 16.2343 120.724 16.044C121.104 15.838 121.461 15.6477 121.795 15.4732C121.947 15.3938 122.085 15.3684 122.208 15.397C122.346 15.4252 122.432 15.4927 122.464 15.5995C122.498 15.7676 122.479 15.975 122.406 16.2216C122.334 16.4683 122.2 16.693 122.004 16.8957C121.777 17.0837 121.474 17.3037 121.095 17.5557C120.731 17.7921 120.337 18.0213 119.911 18.2435C119.486 18.4656 119.052 18.6649 118.61 18.8413C118.184 19.0021 117.802 19.1007 117.465 19.1373C116.96 19.1921 116.575 19.0608 116.308 18.7434C116.042 18.426 115.889 18.0223 115.85 17.5322C115.811 17.0422 115.793 16.4751 115.797 15.8309C115.817 15.1865 115.836 14.5037 115.854 13.7826C115.563 13.8184 115.28 13.854 115.004 13.8894C114.744 13.9093 114.491 13.9367 114.247 13.9717C114.047 13.9752 113.824 13.933 113.577 13.8453C113.346 13.7574 113.228 13.5831 113.223 13.3224C113.222 13.2305 113.258 13.1071 113.332 12.9525C113.406 12.7978 113.572 12.6799 113.832 12.5987C114.458 12.4804 115.154 12.3763 115.92 12.2862C115.953 11.5649 115.994 10.8664 116.044 10.1907C116.094 9.5151 116.137 8.90092 116.173 8.34821C116.185 8.16397 116.236 8.00205 116.325 7.86247C116.415 7.72288 116.513 7.65215 116.621 7.65028C116.881 7.6304 117.128 7.69511 117.36 7.8444C117.608 7.9781 117.733 8.13694 117.737 8.32091C117.684 8.84323 117.633 9.43455 117.584 10.0949C117.549 10.7549 117.515 11.4303 117.481 12.121C117.787 12.0849 118.078 12.0645 118.354 12.0597C118.645 12.0393 118.921 12.0191 119.181 11.9993ZM124.588 7.87928C124.594 8.24722 124.594 8.66129 124.586 9.12149C124.594 9.58142 124.603 10.0567 124.611 10.5473C124.635 11.0376 124.652 11.5434 124.661 12.0646C124.685 12.5856 124.709 13.0836 124.733 13.5586C124.881 13.2493 125.059 12.9471 125.269 12.6521C125.478 12.3417 125.711 12.0693 125.968 11.8348C126.24 11.6 126.52 11.4111 126.809 11.268C127.113 11.1247 127.442 11.0499 127.794 11.0438C128.178 11.0371 128.517 11.1539 128.813 11.3941C129.124 11.634 129.39 11.9591 129.612 12.3693C129.849 12.7639 130.048 13.2128 130.21 13.716C130.372 14.204 130.504 14.7077 130.605 15.2274C130.721 15.7314 130.806 16.2207 130.86 16.6951C130.914 17.1543 130.96 17.5522 130.996 17.889C131.001 18.1342 130.943 18.3346 130.823 18.4901C130.703 18.6455 130.558 18.7247 130.39 18.7277C130.267 18.7298 130.113 18.6558 129.926 18.5057C129.754 18.34 129.628 18.1429 129.548 17.9142C129.498 17.7311 129.448 17.4636 129.396 17.1118C129.343 16.76 129.283 16.3853 129.215 15.9878C129.146 15.5749 129.062 15.1623 128.963 14.75C128.864 14.3376 128.743 13.9717 128.599 13.6521C128.47 13.317 128.313 13.0591 128.125 12.8783C127.938 12.6975 127.722 12.6323 127.478 12.6826C127.096 12.7659 126.763 13.0401 126.48 13.5051C126.212 13.9699 125.976 14.4954 125.772 15.0817C125.582 15.6678 125.424 16.261 125.297 16.8613C125.184 17.4613 125.101 17.9459 125.046 18.3149C124.989 18.5919 124.908 18.785 124.803 18.8942C124.713 18.9878 124.606 19.0357 124.483 19.0378C124.361 19.0399 124.245 18.9806 124.135 18.8598C124.041 18.7388 123.947 18.5948 123.852 18.4277C123.772 18.2451 123.7 18.0623 123.635 17.8794C123.57 17.6812 123.529 17.5132 123.511 17.3755C123.42 16.549 123.345 15.7605 123.286 15.0101C123.227 14.2443 123.175 13.4785 123.131 12.7124C123.102 11.9462 123.081 11.1644 123.067 10.3672C123.053 9.55465 123.053 8.68818 123.067 7.76779C123.054 7.00124 123.324 6.65148 123.877 6.7185C124.062 6.74595 124.225 6.88112 124.367 7.124C124.509 7.35156 124.583 7.60332 124.588 7.87928ZM137.826 12.4329C137.234 12.796 136.595 13.0832 135.909 13.2945C135.222 13.4905 134.48 13.5955 133.683 13.6094C133.723 14.1455 133.884 14.5721 134.165 14.8892C134.447 15.191 134.795 15.3689 135.21 15.423C135.456 15.4494 135.701 15.4375 135.945 15.3872C136.205 15.3367 136.442 15.2635 136.655 15.1678C136.883 15.0565 137.088 14.9379 137.27 14.812C137.451 14.6861 137.61 14.5607 137.746 14.4356C137.882 14.3106 138.026 14.2314 138.179 14.198C138.331 14.1494 138.446 14.1397 138.524 14.169C138.739 14.2419 138.82 14.4706 138.766 14.8549C138.529 15.3498 138.184 15.7775 137.73 16.1382C137.276 16.4835 136.766 16.7071 136.2 16.809C135.711 16.9095 135.205 16.8954 134.681 16.7665C134.158 16.6376 133.685 16.3775 133.264 15.9861C132.906 15.6396 132.63 15.2304 132.438 14.7583C132.246 14.2863 132.122 13.7977 132.067 13.2926C132.013 12.8181 132.043 12.3652 132.159 11.9338C132.289 11.5021 132.489 11.1229 132.76 10.7961C133.03 10.454 133.37 10.172 133.78 9.95016C134.19 9.7283 134.671 9.59722 135.223 9.55693C135.881 9.49943 136.481 9.61164 137.023 9.89356C137.564 10.1755 137.947 10.5752 138.171 11.0927C138.298 11.3819 138.334 11.6343 138.276 11.85C138.234 12.0654 138.084 12.2597 137.826 12.4329ZM135.154 10.9153C135.001 10.9487 134.834 11.0053 134.651 11.0851C134.484 11.1647 134.325 11.2672 134.173 11.3925C134.037 11.5022 133.909 11.6348 133.789 11.7903C133.684 11.9301 133.626 12.0922 133.614 12.2764C133.874 12.2719 134.158 12.2439 134.463 12.1926C134.785 12.141 135.09 12.082 135.38 12.0155C135.686 11.9335 135.96 11.8444 136.204 11.7481C136.463 11.6516 136.676 11.5482 136.843 11.4379C136.715 11.1488 136.482 10.9765 136.143 10.9211C135.82 10.85 135.49 10.8481 135.154 10.9153ZM146.995 13.4921C146.781 13.5265 146.527 13.5079 146.235 13.4363C145.957 13.3645 145.762 13.1762 145.65 12.8715C145.601 12.7189 145.591 12.5734 145.619 12.4349C145.647 12.2811 145.806 12.1709 146.096 12.1045C146.371 12.0384 146.662 11.9797 146.967 11.9283C147.288 11.8614 147.609 11.8021 147.93 11.7505L147.035 9.18972C146.757 8.21309 146.712 7.37042 146.899 6.66171C147.086 5.95301 147.644 5.43718 148.574 5.11424C148.955 4.9849 149.33 4.93235 149.698 4.95659C150.082 4.98056 150.444 5.07393 150.784 5.23668C151.124 5.39943 151.435 5.61638 151.716 5.88752C151.997 6.15866 152.224 6.47673 152.4 6.84173C152.464 7.0093 152.497 7.16208 152.5 7.30006C152.517 7.42244 152.473 7.53822 152.368 7.64741C152.217 7.8034 152.049 7.87533 151.865 7.86321C151.681 7.83576 151.557 7.78424 151.495 7.70866C151.354 7.54243 151.197 7.37646 151.026 7.21077C150.869 7.02947 150.698 6.8791 150.512 6.75967C150.341 6.62463 150.155 6.52819 149.955 6.47035C149.754 6.39717 149.539 6.37792 149.31 6.4126C149.203 6.4298 149.073 6.48573 148.921 6.5804C148.785 6.67479 148.665 6.82257 148.561 7.02375C148.457 7.2096 148.392 7.4561 148.367 7.76325C148.357 8.07014 148.417 8.45248 148.548 8.91027C148.662 9.29167 148.792 9.70346 148.938 10.1457C149.083 10.5878 149.245 11.0528 149.422 11.5404C150.157 11.4509 150.831 11.4161 151.445 11.4361C151.782 11.4609 152.098 11.5167 152.391 11.6036C152.684 11.6905 152.924 11.8243 153.111 12.0051C153.159 12.1576 153.154 12.2881 153.095 12.3964C153.035 12.4895 152.944 12.5754 152.823 12.6542C152.717 12.7174 152.587 12.7657 152.434 12.799C152.297 12.8321 152.159 12.8575 152.022 12.8752C151.716 12.9113 151.394 12.9552 151.058 13.0071C150.721 13.0436 150.369 13.0805 150.002 13.1175C150.259 13.8032 150.493 14.4585 150.703 15.0836C150.928 15.6931 151.106 16.2037 151.236 16.6155C151.301 16.8444 151.313 17.0896 151.272 17.351C151.23 17.6124 151.173 17.8665 151.101 18.1131C150.985 18.4679 150.836 18.7542 150.656 18.972C150.476 19.1899 150.278 19.2623 150.062 19.1894C149.892 19.1157 149.783 19.0179 149.734 18.8961C149.686 18.7742 149.676 18.6057 149.703 18.3906C149.729 18.1447 149.74 17.8992 149.736 17.6539C149.732 17.4086 149.712 17.1865 149.678 16.9878C149.659 16.7734 149.625 16.59 149.577 16.4375C149.543 16.2694 149.518 16.1548 149.502 16.0937L148.487 13.305C148.242 13.3399 147.997 13.3749 147.752 13.4098C147.507 13.4294 147.255 13.4569 146.995 13.4921ZM158.196 8.09775C158.168 8.2516 158.063 8.33779 157.879 8.35634C157.695 8.37488 157.542 8.38522 157.419 8.38736C157.036 8.40938 156.638 8.45467 156.226 8.52322C155.828 8.5915 155.408 8.69084 154.966 8.82125C154.783 8.88579 154.583 8.86627 154.366 8.7627C154.15 8.65913 154.016 8.44677 153.964 8.12562C153.962 8.00297 154.006 7.90252 154.097 7.82426C154.188 7.746 154.294 7.67513 154.415 7.61167C154.613 7.5162 154.849 7.4354 155.124 7.36926C155.399 7.28779 155.674 7.22931 155.949 7.19383C156.24 7.15809 156.516 7.1456 156.777 7.15639C157.037 7.15184 157.252 7.17109 157.422 7.21414C157.669 7.28651 157.862 7.39815 158.003 7.54905C158.159 7.69968 158.223 7.88258 158.196 8.09775ZM157.801 15.7648C157.913 16.0082 157.971 16.2756 157.976 16.5669C157.996 16.8426 157.923 17.0356 157.756 17.1458C157.544 17.2875 157.314 17.2839 157.066 17.1349C156.818 16.9858 156.63 16.7821 156.503 16.5236C156.329 16.2046 156.192 15.8159 156.092 15.3576C155.992 14.8839 155.914 14.4175 155.86 13.9584C155.806 13.4993 155.768 13.0706 155.746 12.6722C155.739 12.2736 155.734 11.9747 155.73 11.7754C155.742 11.5605 155.8 11.3601 155.904 11.1742C156.008 10.9884 156.144 10.8787 156.312 10.8451C156.588 10.8556 156.813 10.982 156.986 11.2244C157.159 11.4514 157.24 11.7413 157.231 12.0942C157.236 12.3702 157.249 12.6767 157.27 13.0137C157.291 13.3507 157.328 13.6874 157.38 14.0239C157.432 14.3604 157.491 14.6891 157.558 15.0099C157.625 15.3155 157.706 15.5671 157.801 15.7648ZM166.504 9.40197C166.231 9.5601 165.942 9.72616 165.638 9.90015C165.35 10.0739 165.055 10.2784 164.752 10.5137C164.464 10.7334 164.185 10.999 163.915 11.3104C163.659 11.6063 163.428 11.963 163.22 12.3807C162.924 12.9687 162.727 13.5702 162.631 14.1853C162.534 14.7851 162.475 15.3765 162.455 15.9596C162.459 16.2356 162.395 16.5204 162.263 16.8141C162.145 17.0922 161.971 17.2333 161.741 17.2373C161.45 17.2424 161.209 17.1009 161.02 16.8128C160.846 16.5091 160.726 16.2198 160.66 15.945C160.38 14.861 160.147 13.7916 159.96 12.7367C159.773 11.6665 159.608 10.6035 159.467 9.5478C159.464 9.33316 159.522 9.19411 159.644 9.13065C159.781 9.06692 159.934 9.04124 160.103 9.05363C160.287 9.06575 160.464 9.10867 160.634 9.18238C160.804 9.25609 160.906 9.377 160.939 9.5451C161.011 10.1113 161.098 10.7079 161.201 11.3348C161.303 11.9464 161.405 12.4738 161.504 12.9168C161.557 12.3944 161.716 11.8856 161.984 11.3902C162.251 10.8947 162.581 10.4443 162.972 10.0387C163.379 9.63287 163.833 9.28756 164.335 9.00277C164.851 8.71771 165.377 8.52451 165.912 8.42316C166.141 8.38848 166.333 8.38513 166.487 8.41312C166.64 8.44111 166.749 8.49289 166.811 8.56848C166.874 8.64406 166.884 8.76657 166.841 8.93602C166.813 9.10519 166.701 9.26051 166.504 9.40197ZM171.911 10.3657C171.877 10.1976 171.844 10.0372 171.811 9.88443C171.777 9.73165 171.699 9.63334 171.575 9.58948C171.314 9.51738 171.037 9.51453 170.747 9.58094C170.457 9.64735 170.19 9.75168 169.948 9.89394C169.704 10.0209 169.5 10.1701 169.334 10.3417C169.168 10.498 169.079 10.6376 169.066 10.7605C169.024 10.9912 169.089 11.2125 169.261 11.4242C169.434 11.6358 169.683 11.8462 170.008 12.0552C170.55 12.3678 171.116 12.6876 171.704 13.0148C172.293 13.3419 172.789 13.6783 173.194 14.0239C173.599 14.3696 173.874 14.7558 174.019 15.1827C174.18 15.5939 174.158 16.0697 173.952 16.6101C173.791 17.027 173.483 17.3697 173.027 17.6384C172.572 17.907 172.069 18.1228 171.52 18.2858C170.971 18.4334 170.421 18.5427 169.87 18.6136C169.319 18.6693 168.851 18.7004 168.468 18.7071C168.376 18.7087 168.261 18.6801 168.122 18.6211C167.998 18.5466 167.873 18.4644 167.749 18.3746C167.64 18.2845 167.539 18.1942 167.445 18.1039C167.367 17.9979 167.327 17.9066 167.326 17.8299C167.321 17.554 167.44 17.3602 167.684 17.2486C167.927 17.137 168.179 17.0789 168.44 17.0744C168.808 17.0679 169.198 17.0458 169.612 17.0079C170.04 16.9544 170.445 16.886 170.827 16.8026C171.209 16.704 171.552 16.583 171.856 16.4396C172.16 16.2963 172.372 16.1162 172.491 15.8995C172.595 15.7136 172.522 15.5002 172.273 15.2592C172.038 15.0026 171.719 14.7398 171.316 14.4708C170.928 14.2015 170.501 13.9406 170.037 13.688C169.588 13.4351 169.2 13.2042 168.875 12.9951C168.549 12.7861 168.268 12.538 168.033 12.2507C167.798 11.9481 167.646 11.575 167.577 11.1315C167.554 10.7332 167.632 10.3484 167.81 9.97727C167.987 9.60611 168.219 9.28001 168.506 8.99897C168.807 8.70233 169.148 8.46634 169.529 8.29101C169.909 8.11568 170.291 8.02467 170.674 8.01798C171.334 8.03714 171.881 8.21161 172.316 8.5414C172.751 8.85585 173.013 9.33437 173.1 9.97693C173.104 10.1916 173.069 10.3685 172.995 10.5079C172.936 10.6469 172.822 10.7332 172.654 10.7668C172.44 10.8012 172.263 10.7813 172.124 10.7071C172 10.6172 171.929 10.5035 171.911 10.3657ZM180.336 10.9318C180.627 10.9114 180.92 10.9753 181.214 11.1235C181.508 11.2717 181.657 11.5068 181.663 11.8288C181.637 12.0899 181.494 12.2611 181.235 12.3423C180.991 12.4079 180.792 12.4421 180.639 12.4447C180.332 12.4501 180.003 12.4635 179.65 12.485C179.298 12.5065 178.938 12.5358 178.571 12.5729C178.549 13.0793 178.526 13.5551 178.503 14.0002C178.496 14.4451 178.488 14.844 178.478 15.1969C178.469 15.5344 178.466 15.8105 178.47 16.0251C178.474 16.2398 178.483 16.3546 178.499 16.3697C178.835 16.3025 179.194 16.1965 179.574 16.0519C179.97 15.8916 180.358 15.7238 180.739 15.5485C181.134 15.3575 181.514 15.1669 181.879 14.9765C182.259 14.7705 182.616 14.5802 182.95 14.4057C183.102 14.3264 183.24 14.301 183.363 14.3295C183.501 14.3577 183.587 14.4253 183.62 14.532C183.653 14.7001 183.634 14.9075 183.561 15.1542C183.489 15.4008 183.355 15.6255 183.159 15.8283C182.932 16.0163 182.629 16.2362 182.25 16.4882C181.887 16.7246 181.492 16.9539 181.066 17.176C180.641 17.3981 180.207 17.5974 179.766 17.7738C179.339 17.9346 178.957 18.0333 178.62 18.0698C178.115 18.1246 177.73 17.9934 177.463 17.676C177.197 17.3586 177.044 16.9548 177.005 16.4648C176.966 15.9747 176.948 15.4076 176.953 14.7634C176.972 14.119 176.991 13.4362 177.009 12.7151C176.718 12.7509 176.435 12.7865 176.16 12.822C175.899 12.8419 175.647 12.8693 175.402 12.9042C175.203 12.9077 174.979 12.8656 174.733 12.7779C174.501 12.6899 174.383 12.5156 174.378 12.255C174.377 12.163 174.413 12.0397 174.487 11.885C174.561 11.7304 174.728 11.6124 174.987 11.5312C175.614 11.413 176.309 11.3088 177.075 11.2188C177.108 10.4974 177.15 9.7989 177.199 9.12327C177.249 8.44763 177.292 7.83346 177.328 7.28074C177.34 7.0965 177.391 6.93459 177.481 6.795C177.57 6.65542 177.669 6.58469 177.776 6.58281C178.036 6.56293 178.283 6.62764 178.515 6.77694C178.763 6.91064 178.889 7.06947 178.892 7.25344C178.84 7.77577 178.789 8.36708 178.739 9.02738C178.704 9.68742 178.67 10.3628 178.636 11.0535C178.942 11.0175 179.233 10.9971 179.509 10.9922C179.8 10.9718 180.076 10.9517 180.336 10.9318ZM42.8712 32.9882C42.94 33.4164 42.994 33.8756 43.0332 34.3656C43.0875 34.8401 43.1266 35.3225 43.1505 35.8128C43.1897 36.3029 43.2134 36.7779 43.2214 37.2378C43.2294 37.6977 43.229 38.1118 43.2201 38.48C43.7166 38.8087 44.0131 39.1026 44.1096 39.3616C44.2215 39.6204 44.2408 39.8501 44.1676 40.0507C44.0805 40.3283 43.9144 40.4769 43.6693 40.4965C43.4394 40.5005 43.1696 40.4208 42.86 40.2576C42.6481 40.4146 42.4057 40.5875 42.133 40.7763C41.86 40.9498 41.5716 41.1235 41.268 41.2975C40.964 41.4562 40.6598 41.5995 40.3553 41.7275C40.0508 41.8555 39.7687 41.9448 39.5089 41.9953C39.0196 42.0805 38.5734 41.9963 38.1702 41.7426C37.7824 41.4887 37.515 41.1023 37.3679 40.5835C37.2698 40.2324 37.2405 39.8726 37.28 39.5038C37.3193 39.1197 37.428 38.7575 37.6061 38.417C37.7839 38.0611 38.0237 37.7426 38.3256 37.4613C38.6427 37.1797 39.0145 36.9585 39.4411 36.7977C39.5477 36.7498 39.6926 36.709 39.8761 36.6751C40.0748 36.6409 40.274 36.6298 40.4736 36.6416C40.6882 36.6379 40.9035 36.6725 41.1195 36.7454C41.3355 36.8183 41.537 36.9451 41.7242 37.1259C41.7197 36.8653 41.7071 36.5818 41.6864 36.2754C41.6807 35.9535 41.6675 35.6317 41.6465 35.31C41.6256 34.9883 41.5973 34.6897 41.5619 34.4143C41.5415 34.1233 41.5142 33.8784 41.48 33.6796C41.4454 33.4502 41.351 33.3138 41.1969 33.2705C41.0578 33.2116 40.8816 33.2223 40.6683 33.3027C40.3025 33.4318 39.8774 33.6769 39.393 34.0381C38.9085 34.3993 38.4475 34.7831 38.0099 35.1894C37.8743 35.3298 37.7144 35.3939 37.5301 35.3818C37.3612 35.3694 37.2144 35.303 37.0896 35.1825C36.9648 35.062 36.8934 34.9252 36.8754 34.7722C36.8571 34.6038 36.9154 34.4264 37.0501 34.24C37.306 33.9595 37.5923 33.6708 37.9092 33.3739C38.226 33.077 38.5588 32.8105 38.9074 32.5744C39.2557 32.3229 39.6125 32.1173 39.9778 31.9576C40.343 31.7979 40.7095 31.7071 41.0772 31.6854C41.6135 31.6607 42.0296 31.7761 42.3254 32.0316C42.621 32.2718 42.8029 32.5907 42.8712 32.9882ZM40.2899 37.9791C40.0914 38.0285 39.8785 38.1319 39.6512 38.2893C39.439 38.431 39.2428 38.6108 39.0625 38.8286C38.8974 39.0309 38.7711 39.2631 38.6836 39.5253C38.6113 39.772 38.6155 40.0173 38.6965 40.2612C38.7287 40.3527 38.7913 40.4206 38.8841 40.465C38.9922 40.5091 39.1073 40.5148 39.2294 40.4819C39.596 40.3989 40.0074 40.246 40.4636 40.0233C40.9348 39.7851 41.3062 39.5332 41.5776 39.2678C41.576 39.1758 41.528 39.0616 41.4336 38.9252C41.3389 38.7735 41.2291 38.6298 41.104 38.4939C40.9787 38.3428 40.8384 38.2149 40.6832 38.1102C40.5434 38.0053 40.4123 37.9616 40.2899 37.9791ZM46.5743 33.8438C46.6243 34.0729 46.6748 34.3327 46.7259 34.6232C46.7921 34.8981 46.8585 35.1883 46.9252 35.4939C46.9916 35.7841 47.0504 36.0821 47.1018 36.3879C47.1531 36.6938 47.1965 36.9844 47.232 37.2598C47.409 36.858 47.601 36.4329 47.8078 35.9845C48.0147 35.5362 48.2376 35.1259 48.4765 34.7537C48.7304 34.3659 48.9932 34.0469 49.2649 33.7968C49.5519 33.5464 49.864 33.4183 50.2013 33.4124C50.7072 33.4036 51.1321 33.5802 51.4758 33.9422C51.8348 34.304 52.1341 34.7589 52.3737 35.3068C52.6284 35.8391 52.8299 36.403 52.9783 36.9985C53.1267 37.594 53.251 38.1209 53.351 38.5792C53.4502 38.9915 53.2716 39.3014 52.8151 39.5087C52.6024 39.6198 52.4416 39.6379 52.333 39.5631C52.2243 39.4883 52.1617 39.4128 52.145 39.3364C52.0651 39.1537 51.9599 38.8335 51.8292 38.3757C51.7138 37.9177 51.5754 37.4524 51.4138 36.9798C51.2675 36.5069 51.0993 36.0958 50.9092 35.7464C50.719 35.397 50.5093 35.2396 50.2798 35.2743C50.0041 35.2944 49.7625 35.5057 49.5548 35.908C49.3764 36.2332 49.1911 36.5968 48.9987 36.9989C48.8215 37.3854 48.6444 37.7872 48.4677 38.2044C48.2907 38.6062 48.1138 39.0157 47.937 39.4328C47.7754 39.8344 47.6208 40.2051 47.4734 40.5451C47.3679 40.6543 47.2313 40.7333 47.0635 40.7823C46.9107 40.8156 46.7495 40.8031 46.5797 40.7447C46.4256 40.7014 46.3016 40.6269 46.2078 40.5212C46.1139 40.4155 46.0661 40.3089 46.0642 40.2016C45.9053 39.0082 45.7407 37.9223 45.5702 36.9437C45.4151 35.965 45.2136 34.964 44.9657 33.9408C44.8523 33.5901 44.8245 33.3145 44.8823 33.1142C44.9552 32.8982 45.1837 32.8099 45.5678 32.8492C46.106 32.9318 46.4415 33.2633 46.5743 33.8438ZM58.3645 29.5663C58.3137 29.2912 58.3246 29.0379 58.3972 28.8066C58.4852 28.5751 58.6592 28.4417 58.9193 28.4065C59.1488 28.3718 59.3491 28.4296 59.5205 28.58C59.7071 28.7301 59.8256 28.9274 59.8758 29.1719C60.2132 30.9296 60.5275 32.6801 60.8186 34.4232C61.1248 36.1508 61.3998 37.8483 61.6436 39.5156C61.7127 39.9591 61.6874 40.2663 61.5677 40.4371C61.4477 40.5925 61.3041 40.7101 61.1368 40.7897C60.9542 40.8695 60.7778 40.8726 60.6079 40.7989C60.4532 40.7249 60.3512 40.5887 60.3017 40.3902L60.2763 40.2526L60.1847 40.2772C59.682 40.47 59.1549 40.5865 58.6036 40.6268C58.0519 40.6518 57.5218 40.5921 57.0132 40.4476C56.5046 40.3031 56.048 40.0657 55.6436 39.7354C55.2541 39.3894 54.9704 38.9497 54.7924 38.416C54.4038 37.242 54.6151 36.1648 55.4261 35.1845C55.7717 34.7797 56.2024 34.4118 56.718 34.0808C57.2337 33.7497 57.8578 33.4858 58.5905 33.289L59.0028 33.1897L58.3645 29.5663ZM56.1851 37.8166C56.2836 38.183 56.4571 38.4636 56.7059 38.6587C56.9547 38.8537 57.2484 38.9866 57.587 39.0573C57.9254 39.1128 58.2858 39.1142 58.6683 39.0615C59.0507 39.0088 59.4249 38.9179 59.7907 38.7888L59.9964 38.7162L59.2819 34.6801L58.824 34.8031C58.5036 34.9007 58.1612 35.0524 57.7967 35.2581C57.4473 35.4482 57.1369 35.676 56.8655 35.9415C56.5941 36.2069 56.3846 36.5019 56.2369 36.8266C56.1045 37.1509 56.0873 37.4809 56.1851 37.8166ZM73.8591 34.7937C74.1501 34.7733 74.4426 34.8372 74.7366 34.9854C75.0305 35.1337 75.1803 35.3687 75.1859 35.6907C75.1598 35.9519 75.0171 36.123 74.7578 36.2042C74.5136 36.2698 74.3148 36.304 74.1615 36.3067C73.8549 36.312 73.5254 36.3254 73.1731 36.3469C72.8207 36.3684 72.4609 36.3977 72.0934 36.4348C72.0716 36.9412 72.0492 37.417 72.0263 37.8622C72.0188 38.307 72.0104 38.7059 72.0012 39.0588C71.9918 39.3963 71.9889 39.6724 71.9927 39.8871C71.9964 40.1017 72.0061 40.2165 72.0217 40.2316C72.3579 40.1644 72.7164 40.0585 73.0973 39.9138C73.4932 39.7535 73.8814 39.5857 74.2617 39.4104C74.6571 39.2195 75.0372 39.0288 75.4019 38.8384C75.7817 38.6324 76.1388 38.4421 76.4731 38.2676C76.6251 38.1883 76.7626 38.1629 76.8858 38.1914C77.0243 38.2197 77.1099 38.2872 77.1424 38.394C77.176 38.5621 77.1566 38.7694 77.0843 39.0161C77.0119 39.2627 76.8778 39.4874 76.682 39.6902C76.4552 39.8782 76.1523 40.0982 75.7733 40.3501C75.4094 40.5865 75.0147 40.8158 74.5892 41.0379C74.1636 41.26 73.7301 41.4593 73.2884 41.6357C72.8618 41.7965 72.4801 41.8952 72.1434 41.9317C71.6383 41.9866 71.2526 41.8553 70.9863 41.5379C70.7201 41.2205 70.5674 40.8167 70.5281 40.3267C70.4889 39.8366 70.4713 39.2695 70.4754 38.6253C70.4949 37.9809 70.5136 37.2981 70.5317 36.5771C70.2409 36.6128 69.9578 36.6484 69.6824 36.6839C69.4221 36.7038 69.1695 36.7312 68.9247 36.7661C68.7254 36.7696 68.5023 36.7275 68.2554 36.6398C68.0239 36.5518 67.9058 36.3775 67.9013 36.1169C67.8997 36.0249 67.9358 35.9016 68.0098 35.7469C68.0838 35.5923 68.2504 35.4744 68.5097 35.3932C69.1364 35.2749 69.8324 35.1707 70.5976 35.0807C70.631 34.3593 70.6725 33.6608 70.722 32.9852C70.7716 32.3095 70.8145 31.6954 70.8509 31.1427C70.863 30.9584 70.9139 30.7965 71.0034 30.6569C71.093 30.5173 71.1915 30.4466 71.2988 30.4447C71.5591 30.4249 71.8056 30.4896 72.0383 30.6389C72.286 30.7726 72.4114 30.9314 72.4147 31.1154C72.3624 31.6377 72.3114 32.229 72.2616 32.8893C72.2271 33.5493 72.1929 34.2247 72.1589 34.9154C72.465 34.8794 72.756 34.859 73.032 34.8542C73.323 34.8337 73.5987 34.8136 73.8591 34.7937ZM84.5712 32.8355C84.2979 32.9936 84.0094 33.1596 83.7058 33.3336C83.4174 33.5074 83.1219 33.7119 82.8193 33.9472C82.5318 34.1669 82.2527 34.4325 81.9821 34.7439C81.7266 35.0398 81.4951 35.3965 81.2877 35.8142C80.9912 36.4021 80.7947 37.0037 80.6981 37.6188C80.6012 38.2186 80.5425 38.81 80.522 39.3931C80.5268 39.6691 80.4628 39.9539 80.3299 40.2476C80.2121 40.5257 80.0382 40.6668 79.8082 40.6708C79.5169 40.6759 79.2768 40.5344 79.0877 40.2463C78.9137 39.9426 78.7936 39.6533 78.7275 39.3784C78.4479 38.2945 78.2145 37.2251 78.0274 36.1702C77.84 35.0999 77.6758 34.037 77.5347 32.9813C77.5309 32.7667 77.5898 32.6276 77.7114 32.5641C77.8483 32.5004 78.0012 32.4747 78.1701 32.4871C78.3544 32.4992 78.5315 32.5422 78.7015 32.6159C78.8715 32.6896 78.9732 32.8105 79.0069 32.9786C79.0781 33.5448 79.1652 34.1413 79.2681 34.7683C79.3708 35.3799 79.472 35.9073 79.5718 36.3502C79.624 35.8279 79.7838 35.3191 80.0512 34.8236C80.3186 34.3282 80.6481 33.8778 81.0398 33.4722C81.4468 33.0664 81.9008 32.721 82.4019 32.4363C82.9183 32.1512 83.444 31.958 83.979 31.8566C84.2085 31.822 84.4001 31.8186 84.5539 31.8466C84.7078 31.8746 84.816 31.9264 84.8787 32.002C84.9414 32.0776 84.9512 32.2001 84.9081 32.3695C84.8804 32.5387 84.7681 32.694 84.5712 32.8355ZM92.8006 33.3819C92.8611 34.209 92.9216 35.0437 92.9823 35.8861C93.0584 36.7283 93.0883 37.5635 93.0721 38.3919C93.0556 39.205 92.9852 40.0037 92.8609 40.788C92.7519 41.572 92.5504 42.327 92.2563 43.0529C91.962 43.7635 91.5596 44.4299 91.049 45.0523C90.5538 45.6743 89.9195 46.2375 89.1462 46.7417C89.0249 46.8205 88.8877 46.8689 88.7347 46.8869C88.597 46.9047 88.4589 46.8994 88.3204 46.8712C88.1821 46.8582 88.0588 46.8221 87.9504 46.7626C87.8423 46.7185 87.7721 46.6507 87.7398 46.5593C87.6914 46.4221 87.7117 46.2684 87.8008 46.0981C87.8898 45.9279 88.0401 45.7489 88.2515 45.5612C88.9172 45.0435 89.4751 44.497 89.9251 43.9217C90.3751 43.3464 90.7324 42.7268 90.9968 42.0627C91.2613 41.3987 91.4252 40.6827 91.4884 39.9148C91.5668 39.1313 91.5519 38.2805 91.4439 37.3622C91.2639 37.5954 91.0534 37.8368 90.8124 38.0863C90.5714 38.3359 90.3147 38.5628 90.0422 38.7669C89.7694 38.9557 89.4886 39.1216 89.1997 39.2647C88.9106 39.3924 88.6357 39.4585 88.3751 39.4631C88.1604 39.4668 87.945 39.4246 87.7288 39.3363C87.5125 39.2481 87.2948 39.0755 87.0756 38.8187C86.8247 38.501 86.5961 38.1446 86.3899 37.7495C86.1987 37.3387 86.0307 36.9429 85.8861 36.5621C85.7414 36.1812 85.6204 35.8383 85.5231 35.5333C85.441 35.228 85.3913 35.0141 85.3738 34.8918C85.3405 34.739 85.338 34.5933 85.3662 34.4548C85.3945 34.3163 85.4926 34.2303 85.6607 34.1967C85.8899 34.1466 86.1048 34.1582 86.3054 34.2314C86.5061 34.3046 86.6462 34.4248 86.7258 34.5921C86.7901 34.7597 86.8789 35.0189 86.9924 35.3696C87.1059 35.7203 87.2424 36.0707 87.4018 36.4206C87.561 36.7552 87.7272 37.0514 87.9004 37.309C88.0889 37.5665 88.2828 37.6934 88.4821 37.6899C88.7121 37.6859 88.9784 37.5663 89.281 37.3309C89.5989 37.0954 89.9003 36.7911 90.1852 36.418C90.4701 36.045 90.7083 35.6344 90.8998 35.1864C91.1064 34.7227 91.206 34.2762 91.1985 33.847C91.1969 33.755 91.2103 33.6474 91.2389 33.5242C91.2674 33.401 91.3114 33.2852 91.3708 33.1768C91.43 33.0531 91.4973 32.9523 91.5726 32.8743C91.6629 32.7807 91.754 32.7254 91.8457 32.7085C92.0905 32.6735 92.3063 32.7388 92.4932 32.9042C92.6952 33.054 92.7977 33.2133 92.8006 33.3819ZM106.135 32.367C106.598 32.5277 106.986 32.7739 107.298 33.1059C107.626 33.4375 107.878 33.8165 108.054 34.2428C108.23 34.6538 108.329 35.0815 108.352 35.5258C108.391 35.9699 108.352 36.3846 108.236 36.77C108.075 37.2023 107.868 37.6276 107.614 38.0461C107.361 38.4646 107.068 38.8377 106.737 39.1656C106.405 39.4934 106.026 39.7607 105.601 39.9675C105.175 40.1743 104.701 40.2823 104.18 40.2914C103.551 40.3023 103.02 40.1659 102.586 39.8821C102.151 39.5983 101.807 39.2286 101.554 38.773C101.301 38.3173 101.131 37.7989 101.044 37.2176C100.972 36.6361 100.978 36.0533 101.059 35.4691C101.113 35.0388 101.206 34.6231 101.337 34.2221C101.483 33.8055 101.668 33.4418 101.893 33.1312C102.117 32.8052 102.373 32.5401 102.661 32.3357C102.964 32.131 103.307 32.0253 103.691 32.0187C103.905 32.0149 104.174 32.0562 104.498 32.1426C104.821 32.2136 105.122 32.3234 105.401 32.4719C105.597 32.2844 105.842 32.2495 106.135 32.367ZM105.29 34.061C105.12 33.9567 104.918 33.8222 104.685 33.6575C104.467 33.4773 104.274 33.3887 104.106 33.3916C103.922 33.3948 103.739 33.4824 103.558 33.6542C103.392 33.8258 103.243 34.0278 103.109 34.2602C102.99 34.4769 102.886 34.7011 102.798 34.9327C102.71 35.1642 102.652 35.3493 102.624 35.4878C102.582 35.7186 102.556 35.9951 102.546 36.3173C102.537 36.6395 102.565 36.961 102.632 37.2819C102.699 37.5875 102.819 37.8691 102.992 38.1268C103.18 38.3689 103.452 38.5405 103.806 38.6416C104.022 38.6992 104.275 38.6948 104.565 38.6284C104.855 38.5467 105.136 38.4114 105.409 38.2226C105.697 38.0336 105.961 37.7836 106.201 37.4727C106.456 37.1615 106.65 36.8054 106.781 36.4044C106.926 35.9571 106.918 35.4972 106.756 35.0246C106.61 34.5364 106.312 34.1889 105.864 33.982C105.758 34.0606 105.651 34.1008 105.544 34.1026C105.437 34.1045 105.352 34.0906 105.29 34.061ZM111.842 33.4866C111.757 33.9022 111.673 34.3637 111.59 34.8712C111.507 35.3634 111.446 35.8399 111.408 36.3006C111.386 36.7611 111.393 37.175 111.43 37.5424C111.482 37.9096 111.587 38.1685 111.743 38.3191C112.004 38.3605 112.301 38.248 112.634 37.9815C112.966 37.6996 113.29 37.3489 113.605 36.9294C113.919 36.5098 114.203 36.0601 114.455 35.5803C114.707 35.0852 114.884 34.6527 114.985 34.2829C115.043 34.0979 115.093 33.9053 115.136 33.7052C115.178 33.5051 115.197 33.2977 115.194 33.0831C115.192 32.9604 115.266 32.8441 115.418 32.7341C115.584 32.6085 115.721 32.5371 115.828 32.5199C115.904 32.5032 115.989 32.5171 116.082 32.5615C116.19 32.6056 116.283 32.673 116.361 32.7636C116.455 32.8387 116.533 32.937 116.596 33.0586C116.675 33.1646 116.715 33.2789 116.717 33.4015C116.756 33.8609 116.811 34.366 116.882 34.9169C116.953 35.4677 117.032 36.0184 117.118 36.569C117.219 37.1193 117.321 37.6543 117.422 38.174C117.523 38.6936 117.623 39.1596 117.722 39.5719C117.771 39.7398 117.729 39.9322 117.594 40.1492C117.46 40.3663 117.309 40.4993 117.141 40.5482C117.004 40.5813 116.858 40.5685 116.704 40.5098C116.564 40.4509 116.455 40.3302 116.375 40.1475C116.295 39.9342 116.214 39.6749 116.132 39.3697C116.065 39.0488 115.998 38.7202 115.93 38.384C115.878 38.0322 115.826 37.7034 115.775 37.3976C115.723 37.0764 115.688 36.8087 115.669 36.5943C115.446 37.0123 115.178 37.4387 114.863 37.8736C114.564 38.2928 114.233 38.682 113.871 39.041C113.525 39.3845 113.154 39.6593 112.759 39.8656C112.379 40.0563 111.981 40.1322 111.566 40.0934C110.952 40.0275 110.474 39.4607 110.134 38.3932C110.003 37.9661 109.934 37.4919 109.925 36.9706C109.931 36.4491 109.96 35.9348 110.013 35.4278C110.08 34.9052 110.156 34.4132 110.24 33.9516C110.339 33.4898 110.425 33.1126 110.496 32.82C110.525 32.6968 110.584 32.5884 110.675 32.4948C110.765 32.3859 110.871 32.3457 110.995 32.3742C111.225 32.4162 111.435 32.5506 111.623 32.7773C111.826 33.0038 111.899 33.2402 111.842 33.4866ZM125.853 32.1149C125.58 32.273 125.291 32.4391 124.988 32.6131C124.699 32.7868 124.404 32.9913 124.101 33.2266C123.814 33.4463 123.535 33.7119 123.264 34.0234C123.008 34.3192 122.777 34.676 122.569 35.0936C122.273 35.6816 122.077 36.2831 121.98 36.8982C121.883 37.498 121.824 38.0894 121.804 38.6726C121.809 38.9485 121.745 39.2333 121.612 39.527C121.494 39.8051 121.32 39.9462 121.09 39.9502C120.799 39.9553 120.559 39.8138 120.37 39.5257C120.196 39.222 120.075 38.9328 120.009 38.6579C119.73 37.5739 119.496 36.5045 119.309 35.4496C119.122 34.3794 118.958 33.3164 118.816 32.2607C118.813 32.0461 118.872 31.907 118.993 31.8436C119.13 31.7798 119.283 31.7542 119.452 31.7665C119.636 31.7787 119.813 31.8216 119.983 31.8953C120.153 31.969 120.255 32.0899 120.289 32.258C120.36 32.8242 120.447 33.4208 120.55 34.0477C120.653 34.6594 120.754 35.1867 120.854 35.6297C120.906 35.1073 121.066 34.5985 121.333 34.1031C121.6 33.6077 121.93 33.1572 122.322 32.7516C122.729 32.3458 123.183 32.0005 123.684 31.7157C124.2 31.4306 124.726 31.2374 125.261 31.1361C125.49 31.1014 125.682 31.098 125.836 31.126C125.99 31.154 126.098 31.2058 126.16 31.2814C126.223 31.357 126.233 31.4795 126.19 31.6489C126.162 31.8181 126.05 31.9734 125.853 32.1149ZM134.401 28.2161C134.421 28.4611 134.434 28.76 134.44 29.1126C134.461 29.4649 134.483 29.8479 134.506 30.2616C134.528 30.6753 134.559 31.0965 134.597 31.5252C134.635 31.9386 134.688 32.3364 134.756 32.7186C134.979 32.3313 135.235 32.0355 135.522 31.8311C135.826 31.6264 136.13 31.4984 136.436 31.4471C136.91 31.3775 137.325 31.4239 137.68 31.5864C138.036 31.7489 138.331 31.9814 138.567 32.284C138.802 32.5713 138.976 32.898 139.09 33.264C139.203 33.6148 139.263 33.9588 139.269 34.2961C139.282 35.0166 139.102 35.6869 138.729 36.3068C138.372 36.9265 137.944 37.4783 137.447 37.9624C136.964 38.4463 136.481 38.8534 135.996 39.1839C135.526 39.5142 135.185 39.7502 134.973 39.8919C134.669 40.0199 134.37 40.0558 134.078 39.9995C133.785 39.9433 133.592 39.8547 133.498 39.7336C133.418 39.551 133.392 39.3981 133.421 39.2749C133.449 39.1364 133.508 39.0127 133.599 38.9037C133.689 38.7948 133.794 38.701 133.916 38.6222C134.052 38.5278 134.166 38.4414 134.256 38.3632C133.859 36.6832 133.546 34.9864 133.316 33.2728C133.087 31.5439 132.972 29.79 132.971 28.011C132.966 27.7044 133.024 27.527 133.146 27.4789C133.283 27.4305 133.398 27.4055 133.49 27.4039C133.705 27.4308 133.898 27.5118 134.069 27.6468C134.24 27.7818 134.351 27.9716 134.401 28.2161ZM137.865 34.2516C137.856 33.7303 137.719 33.3723 137.455 33.1776C137.191 32.9675 136.921 32.8802 136.646 32.9157C136.416 32.9503 136.211 33.0383 136.029 33.1794C135.847 33.3206 135.689 33.4921 135.555 33.6938C135.42 33.8955 135.317 34.1197 135.245 34.3663C135.188 34.6127 135.169 34.8507 135.188 35.0804C135.225 35.4632 135.271 35.8764 135.325 36.3202C135.394 36.7637 135.47 37.1611 135.553 37.5124C135.795 37.3395 136.052 37.1433 136.324 36.9239C136.596 36.6891 136.845 36.4317 137.07 36.1517C137.311 35.8715 137.505 35.5767 137.653 35.2674C137.8 34.9428 137.871 34.6042 137.865 34.2516ZM146.144 34.2911C145.552 34.6541 144.913 34.9413 144.227 35.1527C143.54 35.3487 142.798 35.4537 142.001 35.4676C142.041 36.0036 142.202 36.4302 142.483 36.7474C142.765 37.0492 143.113 37.2271 143.528 37.2812C143.774 37.3076 144.019 37.2956 144.263 37.2454C144.523 37.1948 144.76 37.1217 144.973 37.0259C145.201 36.9146 145.406 36.796 145.587 36.6702C145.769 36.5443 145.928 36.4188 146.064 36.2938C146.2 36.1687 146.344 36.0895 146.497 36.0562C146.649 36.0075 146.764 35.9979 146.841 36.0272C147.057 36.1001 147.138 36.3287 147.083 36.7131C146.847 37.2079 146.501 37.6357 146.048 37.9963C145.594 38.3416 145.084 38.5652 144.518 38.6671C144.029 38.7677 143.523 38.7535 142.999 38.6246C142.475 38.4958 142.003 38.2356 141.582 37.8442C141.224 37.4978 140.948 37.0885 140.756 36.6165C140.564 36.1444 140.44 35.6558 140.385 35.1507C140.331 34.6763 140.361 34.2233 140.476 33.7919C140.607 33.3602 140.807 32.981 141.078 32.6543C141.348 32.3122 141.688 32.0302 142.098 31.8083C142.508 31.5865 142.989 31.4554 143.54 31.4151C144.199 31.3576 144.799 31.4698 145.341 31.7517C145.882 32.0336 146.265 32.4334 146.489 32.9509C146.616 33.24 146.651 33.4924 146.594 33.7081C146.552 33.9236 146.402 34.1179 146.144 34.2911ZM143.472 32.7735C143.319 32.8068 143.152 32.8634 142.969 32.9433C142.802 33.0229 142.642 33.1254 142.491 33.2507C142.355 33.3604 142.227 33.493 142.107 33.6484C142.002 33.7883 141.944 33.9503 141.932 34.1346C142.192 34.13 142.475 34.1021 142.781 34.0507C143.102 33.9991 143.408 33.9401 143.698 33.8737C144.004 33.7917 144.278 33.7026 144.522 33.6063C144.781 33.5098 144.994 33.4064 145.16 33.2961C145.033 33.007 144.8 32.8347 144.461 32.7792C144.138 32.7082 143.808 32.7063 143.472 32.7735ZM153.548 33.4027C153.839 33.3823 154.132 33.4462 154.426 33.5944C154.72 33.7427 154.869 33.9778 154.875 34.2997C154.849 34.5609 154.706 34.7321 154.447 34.8133C154.203 34.8789 154.004 34.913 153.851 34.9157C153.544 34.921 153.214 34.9345 152.862 34.9559C152.51 34.9774 152.15 35.0067 151.782 35.0438C151.761 35.5503 151.738 36.0261 151.715 36.4712C151.708 36.9161 151.699 37.3149 151.69 37.6678C151.681 38.0054 151.678 38.2814 151.682 38.4961C151.685 38.7107 151.695 38.8256 151.711 38.8406C152.047 38.7734 152.405 38.6675 152.786 38.5228C153.182 38.3625 153.57 38.1947 153.951 38.0194C154.346 37.8285 154.726 37.6378 155.091 37.4474C155.471 37.2414 155.828 37.0512 156.162 36.8766C156.314 36.7973 156.452 36.7719 156.575 36.8004C156.713 36.8287 156.799 36.8962 156.831 37.003C156.865 37.1711 156.846 37.3785 156.773 37.6251C156.701 37.8717 156.567 38.0964 156.371 38.2992C156.144 38.4872 155.841 38.7072 155.462 38.9592C155.098 39.1956 154.704 39.4248 154.278 39.6469C153.853 39.8691 153.419 40.0683 152.977 40.2447C152.551 40.4055 152.169 40.5042 151.832 40.5408C151.327 40.5956 150.942 40.4643 150.675 40.1469C150.409 39.8295 150.256 39.4258 150.217 38.9357C150.178 38.4457 150.16 37.8785 150.164 37.2344C150.184 36.5899 150.203 35.9072 150.221 35.1861C149.93 35.2218 149.647 35.2574 149.371 35.2929C149.111 35.3128 148.859 35.3402 148.614 35.3751C148.414 35.3786 148.191 35.3365 147.944 35.2488C147.713 35.1608 147.595 34.9865 147.59 34.7259C147.589 34.6339 147.625 34.5106 147.699 34.356C147.773 34.2013 147.939 34.0834 148.199 34.0022C148.825 33.8839 149.521 33.7797 150.287 33.6897C150.32 32.9683 150.362 32.2698 150.411 31.5942C150.461 30.9186 150.504 30.3044 150.54 29.7517C150.552 29.5674 150.603 29.4055 150.692 29.2659C150.782 29.1264 150.88 29.0556 150.988 29.0538C151.248 29.0339 151.495 29.0986 151.727 29.2479C151.975 29.3816 152.1 29.5404 152.104 29.7244C152.051 30.2467 152 30.838 151.951 31.4983C151.916 32.1584 151.882 32.8337 151.848 33.5244C152.154 33.4884 152.445 33.468 152.721 33.4632C153.012 33.4428 153.288 33.4226 153.548 33.4027ZM163.123 30.8892C163.192 31.3174 163.246 31.7766 163.285 32.2666C163.34 32.7411 163.379 33.2235 163.403 33.7138C163.442 34.2039 163.466 34.6788 163.474 35.1388C163.482 35.5987 163.481 36.0128 163.472 36.381C163.969 36.7097 164.265 37.0036 164.362 37.2626C164.474 37.5214 164.493 37.751 164.42 37.9517C164.333 38.2293 164.167 38.3778 163.922 38.3975C163.692 38.4015 163.422 38.3218 163.112 38.1585C162.9 38.3156 162.658 38.4885 162.385 38.6773C162.112 38.8508 161.824 39.0245 161.52 39.1985C161.216 39.3571 160.912 39.5005 160.608 39.6285C160.303 39.7565 160.021 39.8457 159.761 39.8963C159.272 39.9815 158.826 39.8973 158.422 39.6436C158.035 39.3897 157.767 39.0033 157.62 38.4844C157.522 38.1334 157.493 37.7736 157.532 37.4048C157.572 37.0207 157.68 36.6584 157.858 36.318C158.036 35.9621 158.276 35.6436 158.578 35.3623C158.895 35.0807 159.267 34.8595 159.693 34.6987C159.8 34.6508 159.945 34.6099 160.128 34.5761C160.327 34.5419 160.526 34.5308 160.726 34.5426C160.94 34.5389 161.156 34.5735 161.372 34.6464C161.588 34.7193 161.789 34.8461 161.976 35.0269C161.972 34.7663 161.959 34.4828 161.939 34.1764C161.933 33.8545 161.92 33.5326 161.899 33.211C161.878 32.8893 161.85 32.5907 161.814 32.3153C161.794 32.0243 161.766 31.7794 161.732 31.5806C161.698 31.3512 161.603 31.2148 161.449 31.1715C161.31 31.1126 161.134 31.1233 160.921 31.2037C160.555 31.3328 160.13 31.5779 159.645 31.9391C159.161 32.3003 158.7 32.684 158.262 33.0904C158.126 33.2308 157.967 33.2949 157.782 33.2828C157.613 33.2704 157.467 33.204 157.342 33.0835C157.217 32.963 157.146 32.8262 157.128 32.6732C157.109 32.5048 157.168 32.3274 157.302 32.141C157.558 31.8605 157.844 31.5718 158.161 31.2749C158.478 30.978 158.811 30.7115 159.16 30.4754C159.508 30.2239 159.865 30.0183 160.23 29.8586C160.595 29.6988 160.962 29.6081 161.329 29.5864C161.866 29.5617 162.282 29.6771 162.578 29.9326C162.873 30.1728 163.055 30.4917 163.123 30.8892ZM160.542 35.88C160.344 35.9295 160.131 36.0329 159.903 36.1902C159.691 36.332 159.495 36.5118 159.315 36.7296C159.15 36.9318 159.023 37.1641 158.936 37.4263C158.863 37.673 158.868 37.9182 158.949 38.1622C158.981 38.2537 159.043 38.3216 159.136 38.366C159.244 38.4101 159.359 38.4157 159.482 38.3829C159.848 38.2999 160.26 38.147 160.716 37.9243C161.187 37.6861 161.558 37.4342 161.83 37.1688C161.828 37.0768 161.78 36.9626 161.686 36.8262C161.591 36.6745 161.481 36.5308 161.356 36.3949C161.231 36.2438 161.091 36.1158 160.935 36.0112C160.796 35.9063 160.664 35.8626 160.542 35.88Z" fill="#8B8BA6"/>
<path fill-rule="evenodd" clip-rule="evenodd" d="M0.019043 9.13281L1.84082 0.568359C1.90796 0.307373 2.10815 0.101807 2.36694 0.0285645C2.62549 -0.0449219 2.90356 0.0251465 3.09717 0.212158L8.57251 5.77124C9.25342 6.4585 8.19214 7.52734 7.51147 6.83496L3.00708 2.26416L1.46533 9.53418C1.26514 10.4824 -0.181152 10.0759 0.019043 9.13281ZM4.92407 5.58569C5.44775 10.5127 5.81982 15.4497 6.04004 20.3967L23.0574 18.0186C24.0034 17.8831 24.4087 19.333 23.4578 19.4685L5.52954 21.9771C5.30371 22.0337 5.0647 21.9841 4.87964 21.8425C4.69458 21.7012 4.58398 21.4829 4.57861 21.2498C4.36499 16.0183 3.97974 10.7969 3.42261 5.58569C3.31738 4.62231 4.82397 4.63232 4.92407 5.58569Z" fill="#8B8BA6"/>
</svg>
