<svg width="261" height="40" viewBox="0 0 261 40" fill="none" xmlns="http://www.w3.org/2000/svg">
<rect width="261" height="39.5934" fill="#9D9DBF"/>
<g clip-path="url(#clip0)">
<path d="M33.742 6.17657C26.3071 6.17657 20.2803 12.2034 20.2803 19.6383C20.2803 27.0733 26.3071 33.1001 33.742 33.1001C41.177 33.1001 47.2038 27.0733 47.2038 19.6383C47.2038 17.8705 46.8556 16.12 46.1791 14.4867C45.5026 12.8535 44.511 11.3695 43.261 10.1194C42.0109 8.8694 40.5269 7.87781 38.8936 7.20129C37.2604 6.52477 35.5099 6.17657 33.742 6.17657V6.17657ZM33.742 30.4078C30.8858 30.4078 28.1466 29.2731 26.1269 27.2535C24.1073 25.2338 22.9726 22.4946 22.9726 19.6383C22.9726 16.7821 24.1073 14.0429 26.1269 12.0232C28.1466 10.0036 30.8858 8.86893 33.742 8.86893C36.5983 8.86893 39.3375 10.0036 41.3572 12.0232C43.3768 14.0429 44.5115 16.7821 44.5115 19.6383C44.5115 22.4946 43.3768 25.2338 41.3572 27.2535C39.3375 29.2731 36.5983 30.4078 33.742 30.4078V30.4078ZM34.9267 19.1537V12.2344C34.9267 12.0559 34.8558 11.8847 34.7295 11.7584C34.6033 11.6322 34.4321 11.5613 34.2536 11.5613H33.2305C33.052 11.5613 32.8808 11.6322 32.7546 11.7584C32.6283 11.8847 32.5574 12.0559 32.5574 12.2344V19.8537C32.564 20.0304 32.636 20.1983 32.7593 20.3249L38.144 25.7096C38.2721 25.8338 38.4435 25.9032 38.6219 25.9032C38.8003 25.9032 38.9717 25.8338 39.0998 25.7096L39.8133 24.9961C39.9375 24.868 40.0069 24.6966 40.0069 24.5182C40.0069 24.3398 39.9375 24.1684 39.8133 24.0403L34.9267 19.1537V19.1537Z" fill="white"/>
</g>
<path d="M78.5872 28.216C82.7152 28.216 85.2112 25.696 85.6192 22.24H82.7632C82.4032 24.232 81.1072 25.648 78.5872 25.648C75.1552 25.648 73.7392 23.008 73.7392 19.624C73.7392 16.24 75.1552 13.576 78.5872 13.576C81.2032 13.576 82.5232 15.112 82.7392 17.128H85.6192C85.3072 13.576 82.7392 10.984 78.5872 10.984C73.5232 10.984 70.8592 14.584 70.8592 19.624C70.8592 24.592 73.4992 28.216 78.5872 28.216ZM95.6268 28.216C100.883 28.216 103.379 24.4 103.379 19.6C103.379 14.776 100.883 10.984 95.6268 10.984C90.3468 10.984 87.8748 14.776 87.8748 19.6C87.8748 24.4 90.3468 28.216 95.6268 28.216ZM95.6268 25.624C92.1468 25.624 90.7548 22.984 90.7548 19.6C90.7548 16.216 92.1228 13.576 95.6268 13.576C99.1068 13.576 100.499 16.216 100.499 19.6C100.499 22.984 99.1068 25.624 95.6268 25.624ZM106.6 28H109.312V15.592H109.408L114.952 25.168H115.192L120.736 15.664H120.832V28H123.544V11.2H120.4L115.144 20.368H115.048L109.792 11.2H106.6V28ZM127.718 28H130.55V11.2H127.718V28ZM134.725 28H137.485V15.736H137.581L145.141 28H148.381V11.2H145.597V23.536H145.501L137.941 11.2H134.725V28ZM159.281 28.216C163.745 28.216 166.577 25.264 166.577 20.68V19.072H159.761V21.568H163.745C163.601 23.824 162.161 25.648 159.281 25.648C155.849 25.648 154.481 23.032 154.481 19.648C154.481 16.264 155.849 13.576 159.281 13.576C161.921 13.576 163.241 14.992 163.481 16.792H166.361C166.025 13.48 163.457 10.984 159.281 10.984C154.241 10.984 151.601 14.608 151.601 19.648C151.601 24.616 154.193 28.216 159.281 28.216ZM182.244 28.216C186.636 28.216 188.844 26.248 188.844 23.248C188.844 20.368 186.876 18.904 183.756 18.256L181.476 17.776C179.796 17.416 179.028 16.744 179.028 15.688C179.028 14.296 180.132 13.528 182.22 13.528C184.548 13.528 185.604 14.656 185.7 16.192H188.556C188.532 13.096 185.964 10.984 182.268 10.984C178.452 10.984 176.124 12.856 176.124 15.688C176.124 18.52 177.996 19.816 180.9 20.44L183.348 20.968C185.028 21.328 185.94 21.976 185.94 23.296C185.94 24.856 184.764 25.696 182.244 25.696C179.964 25.696 178.572 24.616 178.428 22.648H175.572C175.716 26.008 177.996 28.216 182.244 28.216ZM198.728 28.216C203.984 28.216 206.48 24.4 206.48 19.6C206.48 14.776 203.984 10.984 198.728 10.984C193.448 10.984 190.976 14.776 190.976 19.6C190.976 24.4 193.448 28.216 198.728 28.216ZM198.728 25.624C195.248 25.624 193.856 22.984 193.856 19.6C193.856 16.216 195.224 13.576 198.728 13.576C202.208 13.576 203.6 16.216 203.6 19.6C203.6 22.984 202.208 25.624 198.728 25.624ZM216.494 28.216C221.75 28.216 224.246 24.4 224.246 19.6C224.246 14.776 221.75 10.984 216.494 10.984C211.214 10.984 208.742 14.776 208.742 19.6C208.742 24.4 211.214 28.216 216.494 28.216ZM216.494 25.624C213.014 25.624 211.622 22.984 211.622 19.6C211.622 16.216 212.99 13.576 216.494 13.576C219.974 13.576 221.366 16.216 221.366 19.6C221.366 22.984 219.974 25.624 216.494 25.624ZM227.468 28H230.228V15.736H230.324L237.884 28H241.124V11.2H238.34V23.536H238.244L230.684 11.2H227.468V28Z" fill="white"/>
<defs>
<clipPath id="clip0">
<rect width="32.3083" height="32.3083" fill="white" transform="translate(15 3.48422)"/>
</clipPath>
</defs>
</svg>
