<svg width="119" height="119" viewBox="0 0 119 119" fill="none" xmlns="http://www.w3.org/2000/svg">
    <path opacity="0.23" fill-rule="evenodd" clip-rule="evenodd" d="M67.7639 3.30554C68.6766 3.30554 69.4166 2.56555 69.4166 1.65277C69.4166 0.73999 68.6766 0 67.7639 0C66.8511 0 66.1111 0.73999 66.1111 1.65277C66.1111 2.56555 66.8511 3.30554 67.7639 3.30554ZM1.65283 69.4167C2.56555 69.4167 3.30554 68.6767 3.30554 67.7639C3.30554 66.8511 2.56555 66.1111 1.65283 66.1111C0.73999 66.1111 0 66.8511 0 67.7639C0 68.6767 0.73999 69.4167 1.65283 69.4167ZM69.4166 67.7639C69.4166 68.6767 68.6766 69.4167 67.7639 69.4167C66.8511 69.4167 66.1111 68.6767 66.1111 67.7639C66.1111 66.8511 66.8511 66.1111 67.7639 66.1111C68.6766 66.1111 69.4166 66.8511 69.4166 67.7639ZM69.4166 84.2917C69.4166 85.2045 68.6766 85.9444 67.7639 85.9444C66.8511 85.9444 66.1111 85.2045 66.1111 84.2917C66.1111 83.3788 66.8511 82.6389 67.7639 82.6389C68.6766 82.6389 69.4166 83.3788 69.4166 84.2917ZM84.2917 69.4167C85.2045 69.4167 85.9445 68.6767 85.9445 67.7639C85.9445 66.8511 85.2045 66.1111 84.2917 66.1111C83.3789 66.1111 82.6389 66.8511 82.6389 67.7639C82.6389 68.6767 83.3789 69.4167 84.2917 69.4167ZM85.9445 84.2917C85.9445 85.2045 85.2045 85.9444 84.2917 85.9444C83.3789 85.9444 82.6389 85.2045 82.6389 84.2917C82.6389 83.3788 83.3789 82.6389 84.2917 82.6389C85.2045 82.6389 85.9445 83.3788 85.9445 84.2917ZM100.819 69.4167C101.732 69.4167 102.472 68.6767 102.472 67.7639C102.472 66.8511 101.732 66.1111 100.819 66.1111C99.9067 66.1111 99.1667 66.8511 99.1667 67.7639C99.1667 68.6767 99.9067 69.4167 100.819 69.4167ZM102.472 84.2917C102.472 85.2045 101.732 85.9444 100.819 85.9444C99.9067 85.9444 99.1667 85.2045 99.1667 84.2917C99.1667 83.3788 99.9067 82.6389 100.819 82.6389C101.732 82.6389 102.472 83.3788 102.472 84.2917ZM117.347 69.4167C118.26 69.4167 119 68.6767 119 67.7639C119 66.8511 118.26 66.1111 117.347 66.1111C116.434 66.1111 115.694 66.8511 115.694 67.7639C115.694 68.6767 116.434 69.4167 117.347 69.4167ZM119 84.2917C119 85.2045 118.26 85.9444 117.347 85.9444C116.434 85.9444 115.694 85.2045 115.694 84.2917C115.694 83.3788 116.434 82.6389 117.347 82.6389C118.26 82.6389 119 83.3788 119 84.2917ZM67.7639 102.472C68.6766 102.472 69.4166 101.732 69.4166 100.819C69.4166 99.9066 68.6766 99.1667 67.7639 99.1667C66.8511 99.1667 66.1111 99.9066 66.1111 100.819C66.1111 101.732 66.8511 102.472 67.7639 102.472ZM85.9445 100.819C85.9445 101.732 85.2045 102.472 84.2917 102.472C83.3789 102.472 82.6389 101.732 82.6389 100.819C82.6389 99.9066 83.3789 99.1667 84.2917 99.1667C85.2045 99.1667 85.9445 99.9066 85.9445 100.819ZM100.819 102.472C101.732 102.472 102.472 101.732 102.472 100.819C102.472 99.9066 101.732 99.1667 100.819 99.1667C99.9067 99.1667 99.1667 99.9066 99.1667 100.819C99.1667 101.732 99.9067 102.472 100.819 102.472ZM119 100.819C119 101.732 118.26 102.472 117.347 102.472C116.434 102.472 115.694 101.732 115.694 100.819C115.694 99.9066 116.434 99.1667 117.347 99.1667C118.26 99.1667 119 99.9066 119 100.819ZM67.7639 119C68.6766 119 69.4166 118.26 69.4166 117.347C69.4166 116.434 68.6766 115.694 67.7639 115.694C66.8511 115.694 66.1111 116.434 66.1111 117.347C66.1111 118.26 66.8511 119 67.7639 119ZM85.9445 117.347C85.9445 118.26 85.2045 119 84.2917 119C83.3789 119 82.6389 118.26 82.6389 117.347C82.6389 116.434 83.3789 115.694 84.2917 115.694C85.2045 115.694 85.9445 116.434 85.9445 117.347ZM100.819 119C101.732 119 102.472 118.26 102.472 117.347C102.472 116.434 101.732 115.694 100.819 115.694C99.9067 115.694 99.1667 116.434 99.1667 117.347C99.1667 118.26 99.9067 119 100.819 119ZM119 117.347C119 118.26 118.26 119 117.347 119C116.434 119 115.694 118.26 115.694 117.347C115.694 116.434 116.434 115.694 117.347 115.694C118.26 115.694 119 116.434 119 117.347ZM3.30554 84.2917C3.30554 85.2045 2.56555 85.9444 1.65283 85.9444C0.73999 85.9444 0 85.2045 0 84.2917C0 83.3788 0.73999 82.6389 1.65283 82.6389C2.56555 82.6389 3.30554 83.3788 3.30554 84.2917ZM18.1805 69.4167C19.0933 69.4167 19.8333 68.6767 19.8333 67.7639C19.8333 66.8511 19.0933 66.1111 18.1805 66.1111C17.2678 66.1111 16.5278 66.8511 16.5278 67.7639C16.5278 68.6767 17.2678 69.4167 18.1805 69.4167ZM19.8333 84.2917C19.8333 85.2045 19.0933 85.9444 18.1805 85.9444C17.2678 85.9444 16.5278 85.2045 16.5278 84.2917C16.5278 83.3788 17.2678 82.6389 18.1805 82.6389C19.0933 82.6389 19.8333 83.3788 19.8333 84.2917ZM34.7083 69.4167C35.6211 69.4167 36.3611 68.6767 36.3611 67.7639C36.3611 66.8511 35.6211 66.1111 34.7083 66.1111C33.7955 66.1111 33.0555 66.8511 33.0555 67.7639C33.0555 68.6767 33.7955 69.4167 34.7083 69.4167ZM36.3611 84.2917C36.3611 85.2045 35.6211 85.9444 34.7083 85.9444C33.7955 85.9444 33.0555 85.2045 33.0555 84.2917C33.0555 83.3788 33.7955 82.6389 34.7083 82.6389C35.6211 82.6389 36.3611 83.3788 36.3611 84.2917ZM51.2361 69.4167C52.1489 69.4167 52.8889 68.6767 52.8889 67.7639C52.8889 66.8511 52.1489 66.1111 51.2361 66.1111C50.3233 66.1111 49.5833 66.8511 49.5833 67.7639C49.5833 68.6767 50.3233 69.4167 51.2361 69.4167ZM52.8889 84.2917C52.8889 85.2045 52.1489 85.9444 51.2361 85.9444C50.3233 85.9444 49.5833 85.2045 49.5833 84.2917C49.5833 83.3788 50.3233 82.6389 51.2361 82.6389C52.1489 82.6389 52.8889 83.3788 52.8889 84.2917ZM1.65283 102.472C2.56555 102.472 3.30554 101.732 3.30554 100.819C3.30554 99.9066 2.56555 99.1667 1.65283 99.1667C0.73999 99.1667 0 99.9066 0 100.819C0 101.732 0.73999 102.472 1.65283 102.472ZM19.8333 100.819C19.8333 101.732 19.0933 102.472 18.1805 102.472C17.2678 102.472 16.5278 101.732 16.5278 100.819C16.5278 99.9066 17.2678 99.1667 18.1805 99.1667C19.0933 99.1667 19.8333 99.9066 19.8333 100.819ZM34.7083 102.472C35.6211 102.472 36.3611 101.732 36.3611 100.819C36.3611 99.9066 35.6211 99.1667 34.7083 99.1667C33.7955 99.1667 33.0555 99.9066 33.0555 100.819C33.0555 101.732 33.7955 102.472 34.7083 102.472ZM52.8889 100.819C52.8889 101.732 52.1489 102.472 51.2361 102.472C50.3233 102.472 49.5833 101.732 49.5833 100.819C49.5833 99.9066 50.3233 99.1667 51.2361 99.1667C52.1489 99.1667 52.8889 99.9066 52.8889 100.819ZM1.65283 119C2.56555 119 3.30554 118.26 3.30554 117.347C3.30554 116.434 2.56555 115.694 1.65283 115.694C0.73999 115.694 0 116.434 0 117.347C0 118.26 0.73999 119 1.65283 119ZM19.8333 117.347C19.8333 118.26 19.0933 119 18.1805 119C17.2678 119 16.5278 118.26 16.5278 117.347C16.5278 116.434 17.2678 115.694 18.1805 115.694C19.0933 115.694 19.8333 116.434 19.8333 117.347ZM34.7083 119C35.6211 119 36.3611 118.26 36.3611 117.347C36.3611 116.434 35.6211 115.694 34.7083 115.694C33.7955 115.694 33.0555 116.434 33.0555 117.347C33.0555 118.26 33.7955 119 34.7083 119ZM52.8889 117.347C52.8889 118.26 52.1489 119 51.2361 119C50.3233 119 49.5833 118.26 49.5833 117.347C49.5833 116.434 50.3233 115.694 51.2361 115.694C52.1489 115.694 52.8889 116.434 52.8889 117.347ZM69.4166 18.1805C69.4166 19.0933 68.6766 19.8333 67.7639 19.8333C66.8511 19.8333 66.1111 19.0933 66.1111 18.1805C66.1111 17.2678 66.8511 16.5278 67.7639 16.5278C68.6766 16.5278 69.4166 17.2678 69.4166 18.1805ZM84.2917 3.30554C85.2045 3.30554 85.9445 2.56555 85.9445 1.65277C85.9445 0.73999 85.2045 0 84.2917 0C83.3789 0 82.6389 0.73999 82.6389 1.65277C82.6389 2.56555 83.3789 3.30554 84.2917 3.30554ZM85.9445 18.1805C85.9445 19.0933 85.2045 19.8333 84.2917 19.8333C83.3789 19.8333 82.6389 19.0933 82.6389 18.1805C82.6389 17.2678 83.3789 16.5278 84.2917 16.5278C85.2045 16.5278 85.9445 17.2678 85.9445 18.1805ZM100.819 3.30554C101.732 3.30554 102.472 2.56555 102.472 1.65277C102.472 0.73999 101.732 0 100.819 0C99.9067 0 99.1667 0.73999 99.1667 1.65277C99.1667 2.56555 99.9067 3.30554 100.819 3.30554ZM102.472 18.1805C102.472 19.0933 101.732 19.8333 100.819 19.8333C99.9067 19.8333 99.1667 19.0933 99.1667 18.1805C99.1667 17.2678 99.9067 16.5278 100.819 16.5278C101.732 16.5278 102.472 17.2678 102.472 18.1805ZM117.347 3.30554C118.26 3.30554 119 2.56555 119 1.65277C119 0.73999 118.26 0 117.347 0C116.434 0 115.694 0.73999 115.694 1.65277C115.694 2.56555 116.434 3.30554 117.347 3.30554ZM119 18.1805C119 19.0933 118.26 19.8333 117.347 19.8333C116.434 19.8333 115.694 19.0933 115.694 18.1805C115.694 17.2678 116.434 16.5278 117.347 16.5278C118.26 16.5278 119 17.2678 119 18.1805ZM67.7639 36.3611C68.6766 36.3611 69.4166 35.6211 69.4166 34.7083C69.4166 33.7955 68.6766 33.0555 67.7639 33.0555C66.8511 33.0555 66.1111 33.7955 66.1111 34.7083C66.1111 35.6211 66.8511 36.3611 67.7639 36.3611ZM85.9445 34.7083C85.9445 35.6211 85.2045 36.3611 84.2917 36.3611C83.3789 36.3611 82.6389 35.6211 82.6389 34.7083C82.6389 33.7955 83.3789 33.0555 84.2917 33.0555C85.2045 33.0555 85.9445 33.7955 85.9445 34.7083ZM100.819 36.3611C101.732 36.3611 102.472 35.6211 102.472 34.7083C102.472 33.7955 101.732 33.0555 100.819 33.0555C99.9067 33.0555 99.1667 33.7955 99.1667 34.7083C99.1667 35.6211 99.9067 36.3611 100.819 36.3611ZM119 34.7083C119 35.6211 118.26 36.3611 117.347 36.3611C116.434 36.3611 115.694 35.6211 115.694 34.7083C115.694 33.7955 116.434 33.0555 117.347 33.0555C118.26 33.0555 119 33.7955 119 34.7083ZM67.7639 52.8889C68.6766 52.8889 69.4166 52.1489 69.4166 51.2361C69.4166 50.3233 68.6766 49.5833 67.7639 49.5833C66.8511 49.5833 66.1111 50.3233 66.1111 51.2361C66.1111 52.1489 66.8511 52.8889 67.7639 52.8889ZM85.9445 51.2361C85.9445 52.1489 85.2045 52.8889 84.2917 52.8889C83.3789 52.8889 82.6389 52.1489 82.6389 51.2361C82.6389 50.3233 83.3789 49.5833 84.2917 49.5833C85.2045 49.5833 85.9445 50.3233 85.9445 51.2361ZM100.819 52.8889C101.732 52.8889 102.472 52.1489 102.472 51.2361C102.472 50.3233 101.732 49.5833 100.819 49.5833C99.9067 49.5833 99.1667 50.3233 99.1667 51.2361C99.1667 52.1489 99.9067 52.8889 100.819 52.8889ZM119 51.2361C119 52.1489 118.26 52.8889 117.347 52.8889C116.434 52.8889 115.694 52.1489 115.694 51.2361C115.694 50.3233 116.434 49.5833 117.347 49.5833C118.26 49.5833 119 50.3233 119 51.2361ZM1.65283 3.30554C2.56555 3.30554 3.30554 2.56555 3.30554 1.65277C3.30554 0.73999 2.56555 0 1.65283 0C0.73999 0 0 0.73999 0 1.65277C0 2.56555 0.73999 3.30554 1.65283 3.30554ZM3.30554 18.1805C3.30554 19.0933 2.56555 19.8333 1.65283 19.8333C0.73999 19.8333 0 19.0933 0 18.1805C0 17.2678 0.73999 16.5278 1.65283 16.5278C2.56555 16.5278 3.30554 17.2678 3.30554 18.1805ZM18.1805 3.30554C19.0933 3.30554 19.8333 2.56555 19.8333 1.65277C19.8333 0.73999 19.0933 0 18.1805 0C17.2678 0 16.5278 0.73999 16.5278 1.65277C16.5278 2.56555 17.2678 3.30554 18.1805 3.30554ZM19.8333 18.1805C19.8333 19.0933 19.0933 19.8333 18.1805 19.8333C17.2678 19.8333 16.5278 19.0933 16.5278 18.1805C16.5278 17.2678 17.2678 16.5278 18.1805 16.5278C19.0933 16.5278 19.8333 17.2678 19.8333 18.1805ZM34.7083 3.30554C35.6211 3.30554 36.3611 2.56555 36.3611 1.65277C36.3611 0.73999 35.6211 0 34.7083 0C33.7955 0 33.0555 0.73999 33.0555 1.65277C33.0555 2.56555 33.7955 3.30554 34.7083 3.30554ZM36.3611 18.1805C36.3611 19.0933 35.6211 19.8333 34.7083 19.8333C33.7955 19.8333 33.0555 19.0933 33.0555 18.1805C33.0555 17.2678 33.7955 16.5278 34.7083 16.5278C35.6211 16.5278 36.3611 17.2678 36.3611 18.1805ZM51.2361 3.30554C52.1489 3.30554 52.8889 2.56555 52.8889 1.65277C52.8889 0.73999 52.1489 0 51.2361 0C50.3233 0 49.5833 0.73999 49.5833 1.65277C49.5833 2.56555 50.3233 3.30554 51.2361 3.30554ZM52.8889 18.1805C52.8889 19.0933 52.1489 19.8333 51.2361 19.8333C50.3233 19.8333 49.5833 19.0933 49.5833 18.1805C49.5833 17.2678 50.3233 16.5278 51.2361 16.5278C52.1489 16.5278 52.8889 17.2678 52.8889 18.1805ZM1.65283 36.3611C2.56555 36.3611 3.30554 35.6211 3.30554 34.7083C3.30554 33.7955 2.56555 33.0555 1.65283 33.0555C0.73999 33.0555 0 33.7955 0 34.7083C0 35.6211 0.73999 36.3611 1.65283 36.3611ZM19.8333 34.7083C19.8333 35.6211 19.0933 36.3611 18.1805 36.3611C17.2678 36.3611 16.5278 35.6211 16.5278 34.7083C16.5278 33.7955 17.2678 33.0555 18.1805 33.0555C19.0933 33.0555 19.8333 33.7955 19.8333 34.7083ZM34.7083 36.3611C35.6211 36.3611 36.3611 35.6211 36.3611 34.7083C36.3611 33.7955 35.6211 33.0555 34.7083 33.0555C33.7955 33.0555 33.0555 33.7955 33.0555 34.7083C33.0555 35.6211 33.7955 36.3611 34.7083 36.3611ZM52.8889 34.7083C52.8889 35.6211 52.1489 36.3611 51.2361 36.3611C50.3233 36.3611 49.5833 35.6211 49.5833 34.7083C49.5833 33.7955 50.3233 33.0555 51.2361 33.0555C52.1489 33.0555 52.8889 33.7955 52.8889 34.7083ZM1.65283 52.8889C2.56555 52.8889 3.30554 52.1489 3.30554 51.2361C3.30554 50.3233 2.56555 49.5833 1.65283 49.5833C0.73999 49.5833 0 50.3233 0 51.2361C0 52.1489 0.73999 52.8889 1.65283 52.8889ZM19.8333 51.2361C19.8333 52.1489 19.0933 52.8889 18.1805 52.8889C17.2678 52.8889 16.5278 52.1489 16.5278 51.2361C16.5278 50.3233 17.2678 49.5833 18.1805 49.5833C19.0933 49.5833 19.8333 50.3233 19.8333 51.2361ZM34.7083 52.8889C35.6211 52.8889 36.3611 52.1489 36.3611 51.2361C36.3611 50.3233 35.6211 49.5833 34.7083 49.5833C33.7955 49.5833 33.0555 50.3233 33.0555 51.2361C33.0555 52.1489 33.7955 52.8889 34.7083 52.8889ZM52.8889 51.2361C52.8889 52.1489 52.1489 52.8889 51.2361 52.8889C50.3233 52.8889 49.5833 52.1489 49.5833 51.2361C49.5833 50.3233 50.3233 49.5833 51.2361 49.5833C52.1489 49.5833 52.8889 50.3233 52.8889 51.2361Z" fill="white"/>
</svg>