<svg xmlns="http://www.w3.org/2000/svg" width="15" height="23" viewBox="0 0 15 23">
    <g fill="none" fill-rule="nonzero">
        <path fill="#FFF" d="M3.59 11.53h7.82c1.249 0 1.701.13 2.158.373.456.244.814.603 1.058 1.059.244.456.374.909.374 2.157v3.41c0 1.247-.13 1.7-.374 2.156a2.544 2.544 0 0 1-1.058 1.059c-.457.244-.91.374-2.157.374H3.589c-1.248 0-1.7-.13-2.157-.374a2.544 2.544 0 0 1-1.058-1.059C.13 20.23 0 19.776 0 18.528v-3.41c0-1.247.13-1.7.374-2.156a2.544 2.544 0 0 1 1.058-1.059c.457-.244.91-.374 2.157-.374zm1.263 6.176a1.324 1.324 0 1 0 0-2.647 1.324 1.324 0 0 0 0 2.647zm5.294 0a1.324 1.324 0 1 0 0-2.647 1.324 1.324 0 0 0 0 2.647zM4.412 8h6.176a.882.882 0 1 1 0 1.765H4.412a.882.882 0 1 1 0-1.765z"/>
        <circle cx="7.5" cy="1.5" r="1.5" fill="#43BAFF"/>
    </g>
</svg>
