<svg xmlns="http://www.w3.org/2000/svg" width="19" height="30" viewBox="0 0 19 30">
    <g fill="none" fill-rule="nonzero">
        <path fill="#181927" d="M17.996 13.043a.318.318 0 0 0-.207-.35c-2.7-1.209-5.393-2.424-8.08-3.645a.429.429 0 0 0-.393 0A1336.742 1336.742 0 0 1 1.21 12.7a.286.286 0 0 0-.207.311c.019 1.87-.002 3.74.019 5.612a12.143 12.143 0 0 0 2.356 7.141c1.469 2.01 3.347 3.447 5.726 4.174.257.083.533.083.79 0a10.792 10.792 0 0 0 5.513-3.882 12.173 12.173 0 0 0 2.586-7.56V16.07c-.008-1.008-.008-2.018.004-3.028zm-2.275 5.722a8.917 8.917 0 0 1-1.891 5.538 7.906 7.906 0 0 1-4.04 2.847c-.126.04-.318.04-.579 0l.152-15.309c.13-.03.226-.03.286 0 1.972.895 3.946 1.785 5.922 2.673a.232.232 0 0 1 .157.255c-.007.74-.004 1.48-.004 2.22-.003.592-.003 1.185-.003 1.776z"/>
        <circle cx="17.5" cy="6.5" r="1.5" fill="#43BAFF"/>
        <circle cx="1.5" cy="6.5" r="1.5" fill="#43BAFF"/>
        <circle cx="9.5" cy="1.5" r="1.5" fill="#43BAFF"/>
    </g>
</svg>
