<?xml version="1.0" encoding="utf-8"?>
<!-- Generator: Adobe Illustrator 22.1.0, SVG Export Plug-In . SVG Version: 6.00 Build 0)  -->
<svg version="1.1" id="Ebene_1" xmlns="http://www.w3.org/2000/svg" xmlns:xlink="http://www.w3.org/1999/xlink" x="0px" y="0px"
	 viewBox="0 0 91.9 145.3" style="enable-background:new 0 0 91.9 145.3;" xml:space="preserve">
<style type="text/css">
	.st0{fill:#020203;}
</style>
<path class="st0" d="M80.5,105.6c-3.5,0.2-6.4,3-6.7,6.6c-0.3,3.9,2.7,7.3,6.5,7.6c-3.5,6.6-9.8,11.9-16.4,14.1
	c-1.5,0.5-2.7-0.5-2.7-2.1V50.5L77,43.9L81.3,32l-9.9-3.3l-10.2,4.4V5.3c0-0.5-0.5-0.8-0.9-0.6L19,23.3c-0.2,0.1-0.4,0.3-0.4,0.6
	v31.5L4,61.7l7.8,5l-2.5,9.7l9.3-3.9v26.8c0,0,0,5.6,0,6.4c0,19.1,16.5,34.8,35.7,34.8c20.5,0,33.8-17.4,33.8-27.9
	C88,108.6,84.6,105.3,80.5,105.6z"/>
</svg>
