<?xml version="1.0" encoding="utf-8"?>
<!-- Generator: Adobe Illustrator 22.1.0, SVG Export Plug-In . SVG Version: 6.00 Build 0)  -->
<svg version="1.1" id="Ebene_1" xmlns="http://www.w3.org/2000/svg" xmlns:xlink="http://www.w3.org/1999/xlink" x="0px" y="0px"
	 viewBox="0 0 300.8 158.2" style="enable-background:new 0 0 300.8 158.2;" xml:space="preserve">
<style type="text/css">
	.st0{fill:#020203;}
</style>
<path class="st0" d="M90.4,114.1c-3.5,0.2-6.4,3-6.7,6.6c-0.3,3.9,2.7,7.3,6.5,7.6c-3.5,6.6-9.8,11.9-16.4,14.1
	c-1.5,0.5-2.7-0.5-2.7-2.1V59l15.8-6.6l4.3-11.9l-9.9-3.3l-10.2,4.4V13.8c0-0.5-0.5-0.8-0.9-0.6L28.9,31.8c-0.2,0.1-0.4,0.3-0.4,0.6
	v31.5l-14.6,6.3l7.8,5l-2.5,9.7l9.3-3.9v26.8c0,0,0,5.6,0,6.4c0,19.1,16.5,34.8,35.7,34.8c20.5,0,33.8-17.4,33.8-27.9
	C97.9,117.1,94.5,113.8,90.4,114.1z"/>
<g>
	<path class="st0" d="M114.3,98.3V77.9c0,0,0-0.1-0.1-0.1h-3.8c0,0-0.1,0-0.1-0.1v-8.6c0,0,0-0.1,0.1-0.1h3.8c0,0,0.1,0,0.1-0.1
		v-9.8c0,0,0-0.1,0.1-0.1h10.2c0,0,0.1,0,0.1,0.1v9.8c0,0,0,0.1,0.1,0.1h7.5c0,0,0.1,0,0.1,0.1v8.6c0,0,0,0.1-0.1,0.1h-7.5
		c0,0-0.1,0-0.1,0.1v18.3c0,2.3,1,3.3,3.2,3.3c1.6,0,3-0.4,4.3-1c0.1,0,0.1,0,0.1,0.1v8v0.1c-2,1.2-4.5,2-7.6,2
		C118.6,108.7,114.3,106.4,114.3,98.3z"/>
	<path class="st0" d="M137.5,69h9.6c0.2,0,0.4,0.2,0.4,0.4v4.9c0,0.4,0.5,0.5,0.7,0.2c1.9-3.8,4.8-6.2,9.5-6.1
		c0.2,0,0.3,0.2,0.3,0.4v10.9h-0.4c-6.3,0-10.1,3.9-10.1,12.1v16c0,0.2-0.2,0.4-0.4,0.4h-9.6c-0.2,0-0.4-0.2-0.4-0.4V69.5
		C137.1,69.2,137.3,69,137.5,69z"/>
	<path class="st0" d="M158.4,96.9v-0.4c0-8.6,5.6-12.4,13.6-12.4c2.9,0,5.2,0.5,7.4,1.3c0.4,0.1,0.7-0.1,0.7-0.5v-0.4
		c0-4.5-2.7-6.8-7.3-6.8c-3.4,0-6.1,1-8.4,2c-0.3,0.1-0.6,0-0.7-0.3l-2.5-7.1c-0.1-0.3,0-0.6,0.3-0.7c3.6-1.8,7.5-2.9,12.9-2.9
		c5.3,0,9.3,1.5,11.9,4c2.7,2.7,4,6.8,4,11.8v23c0,0.3-0.2,0.6-0.6,0.6h-9c-0.3,0-0.6-0.2-0.6-0.6v-2.1c0-0.5-0.6-0.7-1-0.4
		c-2.2,2.4-5.2,3.8-9.2,3.8C163.5,108.8,158.4,104.5,158.4,96.9z M180.3,95.2v-2.9c0-0.2-0.1-0.4-0.3-0.5c-1.5-0.6-3.5-1.1-5.4-1.1
		c-3.8,0-6.2,1.9-6.2,5.5v0.1c0,3.2,2,4.8,5,4.9C177.4,101.3,180.3,98.8,180.3,95.2z"/>
	<path class="st0" d="M197,55.5h10.1c0.1,0,0.1,0,0.1,0.1v52.3c0,0.1,0,0.1-0.1,0.1H197c-0.1,0-0.1,0-0.1-0.1V55.6
		C196.9,55.6,196.9,55.5,197,55.5z"/>
	<path class="st0" d="M214.4,69h10.1c0.1,0,0.1,0,0.1,0.1v38.8c0,0.1,0,0.1-0.1,0.1h-10.1c-0.1,0-0.1,0-0.1-0.1V69.1L214.4,69z"/>
	<path class="st0" d="M233,98.3V77.9c0-0.1-0.1-0.1-0.1-0.1h-3.6c-0.1,0-0.1-0.1-0.1-0.1v-8.5c0-0.1,0.1-0.1,0.1-0.1h3.6
		c0.1,0,0.1-0.1,0.1-0.1v-9.7c0-0.1,0.1-0.1,0.1-0.1h10.1c0.1,0,0.1,0.1,0.1,0.1V69c0,0.1,0.1,0.1,0.1,0.1h7.4
		c0.1,0,0.1,0.1,0.1,0.1v8.5c0,0.1-0.1,0.1-0.1,0.1h-7.4c-0.1,0-0.1,0.1-0.1,0.1v18.3c0,2.3,1,3.3,3.2,3.3c1.5,0,3-0.4,4.2-1
		c0.1,0,0.2,0,0.2,0.1v7.9c0,0.1,0,0.1-0.1,0.1c-2,1.1-4.5,2-7.6,2C237.4,108.7,233,106.4,233,98.3z"/>
	<path class="st0" d="M278.2,69h10.1c0.1,0,0.2,0.1,0.2,0.3l-12.7,39.3c-2.6,7.8-5.6,10.8-11.7,10.8c-3,0-5.8-0.8-8.2-2.2
		c-0.1,0-0.1-0.2-0.1-0.2l2.7-7.3c0-0.1,0.2-0.2,0.3-0.1c1.2,0.7,2.7,1.2,4,1.2c1.6,0,2.6-0.6,3.3-2.4v-0.1L253,69.6
		c0-0.1,0.1-0.3,0.2-0.3h10.3c0.1,0,0.2,0.1,0.2,0.1l7.1,25c0.1,0.2,0.3,0.2,0.4,0l6.9-25C278,69.1,278.1,69,278.2,69z"/>
	<circle class="st0" cx="219.5" cy="60.3" r="5.7"/>
</g>
</svg>
