<svg width="239" height="47" viewBox="0 0 239 47" fill="none" xmlns="http://www.w3.org/2000/svg">
<path d="M35.149 7.994C35.529 8.13333 35.8457 8.34233 36.099 8.621C36.365 8.89967 36.5677 9.21633 36.707 9.571C36.8463 9.913 36.9223 10.2677 36.935 10.635C36.9603 11.0023 36.9223 11.3443 36.821 11.661C36.6817 12.0157 36.5043 12.364 36.289 12.706C36.0737 13.048 35.8267 13.352 35.548 13.618C35.2693 13.884 34.9527 14.0993 34.598 14.264C34.2433 14.4287 33.8507 14.511 33.42 14.511C32.9007 14.511 32.4637 14.3907 32.109 14.15C31.7543 13.9093 31.4757 13.599 31.273 13.219C31.0703 12.839 30.9373 12.4083 30.874 11.927C30.8233 11.4457 30.836 10.9643 30.912 10.483C30.9627 10.1283 31.045 9.78633 31.159 9.457C31.2857 9.115 31.444 8.81733 31.634 8.564C31.824 8.298 32.0393 8.08267 32.28 7.918C32.5333 7.75333 32.8183 7.671 33.135 7.671C33.3123 7.671 33.534 7.709 33.8 7.785C34.066 7.84833 34.313 7.94333 34.541 8.07C34.7057 7.918 34.9083 7.89267 35.149 7.994ZM34.427 9.381C34.2877 9.29233 34.123 9.17833 33.933 9.039C33.7557 8.887 33.5973 8.811 33.458 8.811C33.306 8.811 33.154 8.88067 33.002 9.02C32.8627 9.15933 32.736 9.324 32.622 9.514C32.5207 9.69133 32.432 9.875 32.356 10.065C32.28 10.255 32.2293 10.407 32.204 10.521C32.166 10.711 32.1407 10.939 32.128 11.205C32.1153 11.471 32.1343 11.737 32.185 12.003C32.2357 12.2563 32.3307 12.4907 32.47 12.706C32.622 12.9087 32.8437 13.0543 33.135 13.143C33.3123 13.1937 33.5213 13.1937 33.762 13.143C34.0027 13.0797 34.237 12.972 34.465 12.82C34.7057 12.668 34.9273 12.4653 35.13 12.212C35.3453 11.9587 35.51 11.6673 35.624 11.338C35.7507 10.9707 35.7507 10.5907 35.624 10.198C35.51 9.79267 35.2693 9.50133 34.902 9.324C34.8133 9.38733 34.7247 9.419 34.636 9.419C34.5473 9.419 34.4777 9.40633 34.427 9.381ZM39.6766 8.355C39.7146 8.545 39.7526 8.76033 39.7906 9.001C39.8413 9.229 39.892 9.46967 39.9426 9.723C39.9933 9.96367 40.0376 10.2107 40.0756 10.464C40.1136 10.7173 40.1453 10.958 40.1706 11.186C40.3226 10.8567 40.4873 10.5083 40.6646 10.141C40.842 9.77367 41.032 9.438 41.2346 9.134C41.45 8.81733 41.6716 8.55767 41.8996 8.355C42.1403 8.15233 42.4 8.051 42.6786 8.051C43.0966 8.051 43.445 8.203 43.7236 8.507C44.015 8.811 44.2556 9.191 44.4456 9.647C44.6483 10.0903 44.8066 10.559 44.9206 11.053C45.0346 11.547 45.1296 11.984 45.2056 12.364C45.2816 12.706 45.1296 12.9593 44.7496 13.124C44.5723 13.2127 44.4393 13.2253 44.3506 13.162C44.262 13.0987 44.2113 13.0353 44.1986 12.972C44.1353 12.82 44.053 12.554 43.9516 12.174C43.863 11.794 43.7553 11.4077 43.6286 11.015C43.5146 10.6223 43.3816 10.2803 43.2296 9.989C43.0776 9.69767 42.9066 9.56467 42.7166 9.59C42.4886 9.60267 42.286 9.77367 42.1086 10.103C41.9566 10.369 41.7983 10.6667 41.6336 10.996C41.4816 11.3127 41.3296 11.642 41.1776 11.984C41.0256 12.3133 40.8736 12.649 40.7216 12.991C40.5823 13.3203 40.4493 13.6243 40.3226 13.903C40.234 13.9917 40.12 14.055 39.9806 14.093C39.854 14.1183 39.721 14.1057 39.5816 14.055C39.455 14.017 39.3536 13.9537 39.2776 13.865C39.2016 13.7763 39.1636 13.6877 39.1636 13.599C39.0496 12.611 38.9293 11.7117 38.8026 10.901C38.6886 10.0903 38.5366 9.26067 38.3466 8.412C38.258 8.12067 38.239 7.89267 38.2896 7.728C38.353 7.55067 38.543 7.481 38.8596 7.519C39.303 7.595 39.5753 7.87367 39.6766 8.355ZM48.1094 5.733C48.1727 7.11367 48.2804 8.545 48.4324 10.027C48.5844 11.4963 48.749 12.9023 48.9264 14.245C48.9644 14.8023 48.8124 15.0873 48.4704 15.1C48.3944 15.1 48.3184 15.0747 48.2424 15.024C48.1664 14.9607 48.0967 14.8847 48.0334 14.796C47.97 14.7073 47.9067 14.6123 47.8434 14.511C47.7927 14.4097 47.761 14.321 47.7484 14.245C47.647 13.599 47.552 12.915 47.4634 12.193C47.3747 11.471 47.2924 10.749 47.2164 10.027C47.153 9.29233 47.096 8.57667 47.0454 7.88C46.9947 7.18333 46.963 6.54367 46.9504 5.961C46.9757 5.657 47.02 5.40367 47.0834 5.201C47.1467 4.98567 47.2797 4.88433 47.4824 4.897C47.6977 4.90967 47.8497 4.99833 47.9384 5.163C48.0397 5.315 48.0967 5.505 48.1094 5.733ZM56.3741 8.64C56.4121 9.324 56.4501 10.0143 56.4881 10.711C56.5387 11.4077 56.5514 12.098 56.5261 12.782C56.5007 13.4533 56.4311 14.112 56.3171 14.758C56.2157 15.404 56.0384 16.0247 55.7851 16.62C55.5317 17.2027 55.1897 17.7473 54.7591 18.254C54.3411 18.7607 53.8091 19.2167 53.1631 19.622C53.0617 19.6853 52.9477 19.7233 52.8211 19.736C52.7071 19.7487 52.5931 19.7423 52.4791 19.717C52.3651 19.7043 52.2637 19.6727 52.1751 19.622C52.0864 19.584 52.0294 19.527 52.0041 19.451C51.9661 19.337 51.9851 19.2103 52.0611 19.071C52.1371 18.9317 52.2637 18.786 52.4411 18.634C52.9984 18.216 53.4671 17.7727 53.8471 17.304C54.2271 16.8353 54.5311 16.3287 54.7591 15.784C54.9871 15.2393 55.1327 14.6503 55.1961 14.017C55.2721 13.371 55.2721 12.668 55.1961 11.908C55.0441 12.098 54.8667 12.2943 54.6641 12.497C54.4614 12.6997 54.2461 12.8833 54.0181 13.048C53.7901 13.2 53.5557 13.333 53.3151 13.447C53.0744 13.5483 52.8464 13.599 52.6311 13.599C52.4537 13.599 52.2764 13.561 52.0991 13.485C51.9217 13.409 51.7444 13.2633 51.5671 13.048C51.3644 12.782 51.1807 12.4843 51.0161 12.155C50.8641 11.813 50.7311 11.4837 50.6171 11.167C50.5031 10.8503 50.4081 10.5653 50.3321 10.312C50.2687 10.0587 50.2307 9.88133 50.2181 9.78C50.1927 9.65333 50.1927 9.533 50.2181 9.419C50.2434 9.305 50.3257 9.23533 50.4651 9.21C50.6551 9.172 50.8324 9.18467 50.9971 9.248C51.1617 9.31133 51.2757 9.41267 51.3391 9.552C51.3897 9.69133 51.4594 9.90667 51.5481 10.198C51.6367 10.4893 51.7444 10.7807 51.8711 11.072C51.9977 11.3507 52.1307 11.5977 52.2701 11.813C52.4221 12.0283 52.5804 12.136 52.7451 12.136C52.9351 12.136 53.1567 12.041 53.4101 11.851C53.6761 11.661 53.9294 11.414 54.1701 11.11C54.4107 10.806 54.6134 10.4703 54.7781 10.103C54.9554 9.723 55.0441 9.35567 55.0441 9.001C55.0441 8.925 55.0567 8.83633 55.0821 8.735C55.1074 8.63367 55.1454 8.53867 55.1961 8.45C55.2467 8.34867 55.3037 8.26633 55.3671 8.203C55.4431 8.127 55.5191 8.08267 55.5951 8.07C55.7977 8.04467 55.9751 8.10167 56.1271 8.241C56.2917 8.36767 56.3741 8.50067 56.3741 8.64ZM68.278 7.595C68.3287 7.94967 68.3667 8.32967 68.392 8.735C68.43 9.12767 68.4554 9.52667 68.468 9.932C68.4934 10.3373 68.506 10.73 68.506 11.11C68.506 11.49 68.4997 11.832 68.487 12.136C68.8924 12.4147 69.133 12.6617 69.209 12.877C69.2977 13.0923 69.3104 13.2823 69.247 13.447C69.171 13.675 69.0317 13.7953 68.829 13.808C68.639 13.808 68.4174 13.7383 68.164 13.599C67.9867 13.7257 67.784 13.865 67.556 14.017C67.328 14.1563 67.0874 14.2957 66.834 14.435C66.5807 14.5617 66.3274 14.6757 66.074 14.777C65.8207 14.8783 65.5864 14.948 65.371 14.986C64.9657 15.0493 64.5984 14.9733 64.269 14.758C63.9524 14.5427 63.737 14.2197 63.623 13.789C63.547 13.4977 63.528 13.2 63.566 12.896C63.604 12.5793 63.699 12.2817 63.851 12.003C64.003 11.7117 64.2057 11.452 64.459 11.224C64.725 10.996 65.0354 10.8187 65.39 10.692C65.4787 10.654 65.599 10.6223 65.751 10.597C65.9157 10.5717 66.0804 10.5653 66.245 10.578C66.4224 10.578 66.5997 10.6097 66.777 10.673C66.9544 10.7363 67.119 10.844 67.271 10.996C67.271 10.7807 67.2647 10.5463 67.252 10.293C67.252 10.027 67.2457 9.761 67.233 9.495C67.2204 9.229 67.2014 8.982 67.176 8.754C67.1634 8.51333 67.1444 8.31067 67.119 8.146C67.0937 7.956 67.0177 7.842 66.891 7.804C66.777 7.75333 66.6314 7.75967 66.454 7.823C66.15 7.92433 65.7954 8.12067 65.39 8.412C64.9847 8.70333 64.5984 9.01367 64.231 9.343C64.117 9.457 63.984 9.50767 63.832 9.495C63.6927 9.48233 63.5724 9.42533 63.471 9.324C63.3697 9.22267 63.3127 9.10867 63.3 8.982C63.2874 8.84267 63.338 8.697 63.452 8.545C63.6674 8.317 63.908 8.08267 64.174 7.842C64.44 7.60133 64.7187 7.386 65.01 7.196C65.3014 6.99333 65.599 6.82867 65.903 6.702C66.207 6.57533 66.511 6.50567 66.815 6.493C67.2584 6.48033 67.6004 6.58167 67.841 6.797C68.0817 6.99967 68.2274 7.26567 68.278 7.595ZM66.074 11.68C65.9094 11.718 65.732 11.8003 65.542 11.927C65.3647 12.041 65.2 12.1867 65.048 12.364C64.9087 12.5287 64.801 12.7187 64.725 12.934C64.6617 13.1367 64.6617 13.3393 64.725 13.542C64.7504 13.618 64.801 13.675 64.877 13.713C64.9657 13.751 65.0607 13.7573 65.162 13.732C65.466 13.6687 65.808 13.5483 66.188 13.371C66.5807 13.181 66.891 12.9783 67.119 12.763C67.119 12.687 67.081 12.592 67.005 12.478C66.929 12.3513 66.8404 12.231 66.739 12.117C66.6377 11.9903 66.5237 11.8827 66.397 11.794C66.283 11.7053 66.1754 11.6673 66.074 11.68ZM76.3463 11.167C76.169 11.1923 75.96 11.1733 75.7193 11.11C75.4913 11.0467 75.333 10.8883 75.2443 10.635C75.2063 10.5083 75.2 10.388 75.2253 10.274C75.2507 10.1473 75.3837 10.0587 75.6243 10.008C75.8523 9.95733 76.093 9.913 76.3463 9.875C76.6123 9.82433 76.8783 9.78 77.1443 9.742L76.4413 7.614C76.226 6.80333 76.2007 6.10667 76.3653 5.524C76.53 4.94133 76.9987 4.52333 77.7713 4.27C78.088 4.16867 78.3983 4.13067 78.7023 4.156C79.019 4.18133 79.3167 4.26367 79.5953 4.403C79.874 4.54233 80.1273 4.726 80.3553 4.954C80.5833 5.182 80.767 5.448 80.9063 5.752C80.957 5.89133 80.9823 6.018 80.9823 6.132C80.995 6.23333 80.957 6.32833 80.8683 6.417C80.7417 6.54367 80.6023 6.60067 80.4503 6.588C80.2983 6.56267 80.197 6.51833 80.1463 6.455C80.0323 6.31567 79.9057 6.17633 79.7663 6.037C79.6397 5.885 79.5003 5.75833 79.3483 5.657C79.209 5.543 79.057 5.46067 78.8923 5.41C78.7277 5.34667 78.5503 5.32767 78.3603 5.353C78.2717 5.36567 78.164 5.41 78.0373 5.486C77.9233 5.562 77.822 5.68233 77.7333 5.847C77.6447 5.999 77.5877 6.20167 77.5623 6.455C77.5497 6.70833 77.594 7.025 77.6953 7.405C77.784 7.72167 77.8853 8.06367 77.9993 8.431C78.1133 8.79833 78.24 9.18467 78.3793 9.59C78.9873 9.52667 79.5447 9.50767 80.0513 9.533C80.33 9.55833 80.5897 9.609 80.8303 9.685C81.071 9.761 81.2673 9.875 81.4193 10.027C81.4573 10.1537 81.451 10.2613 81.4003 10.35C81.3497 10.426 81.2737 10.4957 81.1723 10.559C81.0837 10.6097 80.976 10.6477 80.8493 10.673C80.7353 10.6983 80.6213 10.7173 80.5073 10.73C80.254 10.7553 79.988 10.787 79.7093 10.825C79.4307 10.8503 79.1393 10.8757 78.8353 10.901C79.038 11.471 79.2217 12.0157 79.3863 12.535C79.5637 13.0417 79.703 13.466 79.8043 13.808C79.855 13.998 79.8613 14.2007 79.8233 14.416C79.7853 14.6313 79.7347 14.8403 79.6713 15.043C79.57 15.3343 79.4433 15.5687 79.2913 15.746C79.1393 15.9233 78.9747 15.9803 78.7973 15.917C78.658 15.8537 78.5693 15.7713 78.5313 15.67C78.4933 15.5687 78.487 15.4293 78.5123 15.252C78.5377 15.0493 78.5503 14.8467 78.5503 14.644C78.5503 14.4413 78.5377 14.2577 78.5123 14.093C78.4997 13.9157 78.4743 13.7637 78.4363 13.637C78.411 13.4977 78.392 13.4027 78.3793 13.352L77.5813 11.034C77.3787 11.0593 77.176 11.0847 76.9733 11.11C76.7707 11.1227 76.5617 11.1417 76.3463 11.167ZM87.3301 10.16C86.8361 10.4513 86.3041 10.6793 85.7341 10.844C85.1641 10.996 84.5498 11.072 83.8911 11.072C83.9165 11.5153 84.0431 11.87 84.2711 12.136C84.4991 12.3893 84.7841 12.5413 85.1261 12.592C85.3288 12.6173 85.5315 12.611 85.7341 12.573C85.9495 12.535 86.1458 12.478 86.3231 12.402C86.5131 12.3133 86.6841 12.2183 86.8361 12.117C86.9881 12.0157 87.1211 11.9143 87.2351 11.813C87.3491 11.7117 87.4695 11.6483 87.5961 11.623C87.7228 11.585 87.8178 11.5787 87.8811 11.604C88.0585 11.6673 88.1218 11.8573 88.0711 12.174C87.8685 12.5793 87.5771 12.9277 87.1971 13.219C86.8171 13.4977 86.3928 13.675 85.9241 13.751C85.5188 13.827 85.1008 13.808 84.6701 13.694C84.2395 13.58 83.8531 13.3583 83.5111 13.029C83.2198 12.7377 82.9981 12.3957 82.8461 12.003C82.6941 11.6103 82.5991 11.205 82.5611 10.787C82.5231 10.3943 82.5548 10.0207 82.6561 9.666C82.7701 9.31133 82.9411 9.001 83.1691 8.735C83.3971 8.45633 83.6821 8.22833 84.0241 8.051C84.3661 7.87367 84.7651 7.77233 85.2211 7.747C85.7658 7.709 86.2598 7.81033 86.7031 8.051C87.1465 8.29167 87.4568 8.62733 87.6341 9.058C87.7355 9.29867 87.7608 9.50767 87.7101 9.685C87.6721 9.86233 87.5455 10.0207 87.3301 10.16ZM85.1451 8.868C85.0185 8.89333 84.8791 8.93767 84.7271 9.001C84.5878 9.06433 84.4548 9.14667 84.3281 9.248C84.2141 9.33667 84.1065 9.44433 84.0051 9.571C83.9165 9.685 83.8658 9.818 83.8531 9.97C84.0685 9.97 84.3028 9.951 84.5561 9.913C84.8221 9.875 85.0755 9.83067 85.3161 9.78C85.5695 9.71667 85.7975 9.647 86.0001 9.571C86.2155 9.495 86.3928 9.41267 86.5321 9.324C86.4308 9.08333 86.2408 8.93767 85.9621 8.887C85.6961 8.82367 85.4238 8.81733 85.1451 8.868ZM96.1573 14.188C96.0559 14.3273 95.9419 14.4223 95.8153 14.473C95.6886 14.511 95.5746 14.53 95.4733 14.53C95.2959 14.5173 95.1313 14.4603 94.9793 14.359C94.8273 14.245 94.7323 14.131 94.6943 14.017C94.6183 13.8017 94.5359 13.561 94.4473 13.295C94.3586 13.029 94.2699 12.763 94.1813 12.497C94.1053 12.2183 94.0229 11.9523 93.9343 11.699C93.8456 11.433 93.7633 11.1923 93.6873 10.977C93.4339 11.4203 93.1933 11.87 92.9653 12.326C92.7373 12.7693 92.4839 13.2317 92.2053 13.713C92.0786 13.903 91.9329 14.036 91.7683 14.112C91.6036 14.1753 91.4643 14.2007 91.3503 14.188C91.1856 14.1753 91.0336 14.112 90.8943 13.998C90.7676 13.884 90.6663 13.7763 90.5903 13.675C90.4509 13.447 90.3116 13.1557 90.1723 12.801C90.0329 12.4337 89.8999 12.0537 89.7733 11.661C89.6593 11.2557 89.5516 10.8567 89.4503 10.464C89.3489 10.0587 89.2666 9.69767 89.2033 9.381C89.1653 9.16567 89.1653 8.963 89.2033 8.773C89.2539 8.583 89.3679 8.47533 89.5453 8.45C89.7606 8.43733 89.9569 8.51333 90.1343 8.678C90.3116 8.83 90.4129 8.982 90.4383 9.134C90.4889 9.38733 90.5459 9.666 90.6093 9.97C90.6853 10.2613 90.7613 10.559 90.8373 10.863C90.9259 11.167 91.0083 11.4647 91.0843 11.756C91.1729 12.0473 91.2616 12.307 91.3503 12.535C91.5403 12.231 91.7493 11.8827 91.9773 11.49C92.2179 11.0847 92.4459 10.6983 92.6613 10.331C92.8766 9.951 93.0729 9.62167 93.2503 9.343C93.4276 9.06433 93.5669 8.89333 93.6683 8.83C93.7443 8.77933 93.8519 8.78567 93.9913 8.849C94.1306 8.89967 94.2319 8.97567 94.2953 9.077C94.5739 9.63433 94.8019 10.2487 94.9793 10.92C95.1693 11.5787 95.3529 12.193 95.5303 12.763C95.7076 12.535 95.8976 12.2373 96.1003 11.87C96.3029 11.49 96.4993 11.091 96.6893 10.673C96.8793 10.255 97.0566 9.837 97.2213 9.419C97.3859 9.001 97.5189 8.62733 97.6203 8.298C97.7216 7.956 97.8609 7.79133 98.0383 7.804C98.2663 7.82933 98.4626 7.90533 98.6273 8.032C98.7919 8.15867 98.8553 8.29167 98.8173 8.431C98.5386 9.54567 98.1776 10.5717 97.7343 11.509C97.2909 12.4337 96.7653 13.3267 96.1573 14.188ZM108.728 4.992C108.69 4.764 108.703 4.555 108.766 4.365C108.842 4.175 108.988 4.06733 109.203 4.042C109.393 4.01667 109.558 4.06733 109.697 4.194C109.849 4.32067 109.944 4.48533 109.982 4.688C110.236 6.14467 110.47 7.595 110.685 9.039C110.913 10.4703 111.116 11.8763 111.293 13.257C111.344 13.6243 111.319 13.8777 111.217 14.017C111.116 14.1437 110.996 14.2387 110.856 14.302C110.704 14.3653 110.559 14.3653 110.419 14.302C110.293 14.2387 110.21 14.1247 110.172 13.96L110.153 13.846L110.077 13.865C109.659 14.017 109.222 14.1057 108.766 14.131C108.31 14.1437 107.873 14.0867 107.455 13.96C107.037 13.8333 106.664 13.6307 106.334 13.352C106.018 13.0607 105.79 12.6933 105.65 12.25C105.346 11.2747 105.536 10.388 106.22 9.59C106.512 9.26067 106.873 8.963 107.303 8.697C107.734 8.431 108.253 8.222 108.861 8.07L109.203 7.994L108.728 4.992ZM106.809 11.775C106.885 12.079 107.025 12.3133 107.227 12.478C107.43 12.6427 107.671 12.7567 107.949 12.82C108.228 12.8707 108.526 12.877 108.842 12.839C109.159 12.801 109.469 12.7313 109.773 12.63L109.944 12.573L109.412 9.229L109.032 9.324C108.766 9.4 108.481 9.52033 108.177 9.685C107.886 9.837 107.626 10.0207 107.398 10.236C107.17 10.4513 106.993 10.692 106.866 10.958C106.752 11.224 106.733 11.4963 106.809 11.775ZM117.058 7.595C117.109 7.94967 117.147 8.32967 117.172 8.735C117.21 9.12767 117.236 9.52667 117.248 9.932C117.274 10.3373 117.286 10.73 117.286 11.11C117.286 11.49 117.28 11.832 117.267 12.136C117.673 12.4147 117.913 12.6617 117.989 12.877C118.078 13.0923 118.091 13.2823 118.027 13.447C117.951 13.675 117.812 13.7953 117.609 13.808C117.419 13.808 117.198 13.7383 116.944 13.599C116.767 13.7257 116.564 13.865 116.336 14.017C116.108 14.1563 115.868 14.2957 115.614 14.435C115.361 14.5617 115.108 14.6757 114.854 14.777C114.601 14.8783 114.367 14.948 114.151 14.986C113.746 15.0493 113.379 14.9733 113.049 14.758C112.733 14.5427 112.517 14.2197 112.403 13.789C112.327 13.4977 112.308 13.2 112.346 12.896C112.384 12.5793 112.479 12.2817 112.631 12.003C112.783 11.7117 112.986 11.452 113.239 11.224C113.505 10.996 113.816 10.8187 114.17 10.692C114.259 10.654 114.379 10.6223 114.531 10.597C114.696 10.5717 114.861 10.5653 115.025 10.578C115.203 10.578 115.38 10.6097 115.557 10.673C115.735 10.7363 115.899 10.844 116.051 10.996C116.051 10.7807 116.045 10.5463 116.032 10.293C116.032 10.027 116.026 9.761 116.013 9.495C116.001 9.229 115.982 8.982 115.956 8.754C115.944 8.51333 115.925 8.31067 115.899 8.146C115.874 7.956 115.798 7.842 115.671 7.804C115.557 7.75333 115.412 7.75967 115.234 7.823C114.93 7.92433 114.576 8.12067 114.17 8.412C113.765 8.70333 113.379 9.01367 113.011 9.343C112.897 9.457 112.764 9.50767 112.612 9.495C112.473 9.48233 112.353 9.42533 112.251 9.324C112.15 9.22267 112.093 9.10867 112.08 8.982C112.068 8.84267 112.118 8.697 112.232 8.545C112.448 8.317 112.688 8.08267 112.954 7.842C113.22 7.60133 113.499 7.386 113.79 7.196C114.082 6.99333 114.379 6.82867 114.683 6.702C114.987 6.57533 115.291 6.50567 115.595 6.493C116.039 6.48033 116.381 6.58167 116.621 6.797C116.862 6.99967 117.008 7.26567 117.058 7.595ZM114.854 11.68C114.69 11.718 114.512 11.8003 114.322 11.927C114.145 12.041 113.98 12.1867 113.828 12.364C113.689 12.5287 113.581 12.7187 113.505 12.934C113.442 13.1367 113.442 13.3393 113.505 13.542C113.531 13.618 113.581 13.675 113.657 13.713C113.746 13.751 113.841 13.7573 113.942 13.732C114.246 13.6687 114.588 13.5483 114.968 13.371C115.361 13.181 115.671 12.9783 115.899 12.763C115.899 12.687 115.861 12.592 115.785 12.478C115.709 12.3513 115.621 12.231 115.519 12.117C115.418 11.9903 115.304 11.8827 115.177 11.794C115.063 11.7053 114.956 11.6673 114.854 11.68ZM125.026 8.64C125.064 9.324 125.102 10.0143 125.14 10.711C125.191 11.4077 125.204 12.098 125.178 12.782C125.153 13.4533 125.083 14.112 124.969 14.758C124.868 15.404 124.691 16.0247 124.437 16.62C124.184 17.2027 123.842 17.7473 123.411 18.254C122.993 18.7607 122.461 19.2167 121.815 19.622C121.714 19.6853 121.6 19.7233 121.473 19.736C121.359 19.7487 121.245 19.7423 121.131 19.717C121.017 19.7043 120.916 19.6727 120.827 19.622C120.739 19.584 120.682 19.527 120.656 19.451C120.618 19.337 120.637 19.2103 120.713 19.071C120.789 18.9317 120.916 18.786 121.093 18.634C121.651 18.216 122.119 17.7727 122.499 17.304C122.879 16.8353 123.183 16.3287 123.411 15.784C123.639 15.2393 123.785 14.6503 123.848 14.017C123.924 13.371 123.924 12.668 123.848 11.908C123.696 12.098 123.519 12.2943 123.316 12.497C123.114 12.6997 122.898 12.8833 122.67 13.048C122.442 13.2 122.208 13.333 121.967 13.447C121.727 13.5483 121.499 13.599 121.283 13.599C121.106 13.599 120.929 13.561 120.751 13.485C120.574 13.409 120.397 13.2633 120.219 13.048C120.017 12.782 119.833 12.4843 119.668 12.155C119.516 11.813 119.383 11.4837 119.269 11.167C119.155 10.8503 119.06 10.5653 118.984 10.312C118.921 10.0587 118.883 9.88133 118.87 9.78C118.845 9.65333 118.845 9.533 118.87 9.419C118.896 9.305 118.978 9.23533 119.117 9.21C119.307 9.172 119.485 9.18467 119.649 9.248C119.814 9.31133 119.928 9.41267 119.991 9.552C120.042 9.69133 120.112 9.90667 120.2 10.198C120.289 10.4893 120.397 10.7807 120.523 11.072C120.65 11.3507 120.783 11.5977 120.922 11.813C121.074 12.0283 121.233 12.136 121.397 12.136C121.587 12.136 121.809 12.041 122.062 11.851C122.328 11.661 122.582 11.414 122.822 11.11C123.063 10.806 123.266 10.4703 123.43 10.103C123.608 9.723 123.696 9.35567 123.696 9.001C123.696 8.925 123.709 8.83633 123.734 8.735C123.76 8.63367 123.798 8.53867 123.848 8.45C123.899 8.34867 123.956 8.26633 124.019 8.203C124.095 8.127 124.171 8.08267 124.247 8.07C124.45 8.04467 124.627 8.10167 124.779 8.241C124.944 8.36767 125.026 8.50067 125.026 8.64ZM130.408 8.944C130.383 8.80467 130.358 8.67167 130.332 8.545C130.307 8.41833 130.244 8.336 130.142 8.298C129.927 8.23467 129.699 8.22833 129.458 8.279C129.218 8.32967 128.996 8.412 128.793 8.526C128.591 8.62733 128.42 8.74767 128.28 8.887C128.141 9.01367 128.065 9.12767 128.052 9.229C128.014 9.419 128.065 9.60267 128.204 9.78C128.344 9.95733 128.546 10.1347 128.812 10.312C129.256 10.578 129.718 10.8503 130.199 11.129C130.681 11.4077 131.086 11.6927 131.415 11.984C131.745 12.2753 131.966 12.5983 132.08 12.953C132.207 13.295 132.182 13.6877 132.004 14.131C131.865 14.473 131.605 14.7517 131.225 14.967C130.845 15.1823 130.427 15.3533 129.971 15.48C129.515 15.594 129.059 15.6763 128.603 15.727C128.147 15.765 127.761 15.784 127.444 15.784C127.368 15.784 127.273 15.7587 127.159 15.708C127.058 15.6447 126.957 15.575 126.855 15.499C126.767 15.423 126.684 15.347 126.608 15.271C126.545 15.1823 126.513 15.1063 126.513 15.043C126.513 14.815 126.615 14.6567 126.817 14.568C127.02 14.4793 127.229 14.435 127.444 14.435C127.748 14.435 128.071 14.4223 128.413 14.397C128.768 14.359 129.104 14.3083 129.42 14.245C129.737 14.169 130.022 14.074 130.275 13.96C130.529 13.846 130.706 13.7003 130.807 13.523C130.896 13.371 130.839 13.1937 130.636 12.991C130.446 12.7757 130.187 12.554 129.857 12.326C129.541 12.098 129.192 11.8763 128.812 11.661C128.445 11.4457 128.128 11.2493 127.862 11.072C127.596 10.8947 127.368 10.6857 127.178 10.445C126.988 10.1917 126.868 9.88133 126.817 9.514C126.805 9.18467 126.874 8.868 127.026 8.564C127.178 8.26 127.375 7.994 127.615 7.766C127.869 7.52533 128.154 7.33533 128.47 7.196C128.787 7.05667 129.104 6.987 129.42 6.987C129.965 7.01233 130.415 7.16433 130.769 7.443C131.124 7.709 131.333 8.108 131.396 8.64C131.396 8.81733 131.365 8.963 131.301 9.077C131.251 9.191 131.156 9.26067 131.016 9.286C130.839 9.31133 130.693 9.29233 130.579 9.229C130.478 9.153 130.421 9.058 130.408 8.944ZM142.989 7.994C143.369 8.13333 143.686 8.34233 143.939 8.621C144.205 8.89967 144.408 9.21633 144.547 9.571C144.686 9.913 144.762 10.2677 144.775 10.635C144.8 11.0023 144.762 11.3443 144.661 11.661C144.522 12.0157 144.344 12.364 144.129 12.706C143.914 13.048 143.667 13.352 143.388 13.618C143.109 13.884 142.793 14.0993 142.438 14.264C142.083 14.4287 141.691 14.511 141.26 14.511C140.741 14.511 140.304 14.3907 139.949 14.15C139.594 13.9093 139.316 13.599 139.113 13.219C138.91 12.839 138.777 12.4083 138.714 11.927C138.663 11.4457 138.676 10.9643 138.752 10.483C138.803 10.1283 138.885 9.78633 138.999 9.457C139.126 9.115 139.284 8.81733 139.474 8.564C139.664 8.298 139.879 8.08267 140.12 7.918C140.373 7.75333 140.658 7.671 140.975 7.671C141.152 7.671 141.374 7.709 141.64 7.785C141.906 7.84833 142.153 7.94333 142.381 8.07C142.546 7.918 142.748 7.89267 142.989 7.994ZM142.267 9.381C142.128 9.29233 141.963 9.17833 141.773 9.039C141.596 8.887 141.437 8.811 141.298 8.811C141.146 8.811 140.994 8.88067 140.842 9.02C140.703 9.15933 140.576 9.324 140.462 9.514C140.361 9.69133 140.272 9.875 140.196 10.065C140.12 10.255 140.069 10.407 140.044 10.521C140.006 10.711 139.981 10.939 139.968 11.205C139.955 11.471 139.974 11.737 140.025 12.003C140.076 12.2563 140.171 12.4907 140.31 12.706C140.462 12.9087 140.684 13.0543 140.975 13.143C141.152 13.1937 141.361 13.1937 141.602 13.143C141.843 13.0797 142.077 12.972 142.305 12.82C142.546 12.668 142.767 12.4653 142.97 12.212C143.185 11.9587 143.35 11.6673 143.464 11.338C143.591 10.9707 143.591 10.5907 143.464 10.198C143.35 9.79267 143.109 9.50133 142.742 9.324C142.653 9.38733 142.565 9.419 142.476 9.419C142.387 9.419 142.318 9.40633 142.267 9.381ZM146.965 11.167C146.788 11.1923 146.579 11.1733 146.338 11.11C146.11 11.0467 145.952 10.8883 145.863 10.635C145.825 10.5083 145.819 10.388 145.844 10.274C145.87 10.1473 146.003 10.0587 146.243 10.008C146.471 9.95733 146.712 9.913 146.965 9.875C147.231 9.82433 147.497 9.78 147.763 9.742L147.06 7.614C146.845 6.80333 146.82 6.10667 146.984 5.524C147.149 4.94133 147.618 4.52333 148.39 4.27C148.707 4.16867 149.017 4.13067 149.321 4.156C149.638 4.18133 149.936 4.26367 150.214 4.403C150.493 4.54233 150.746 4.726 150.974 4.954C151.202 5.182 151.386 5.448 151.525 5.752C151.576 5.89133 151.601 6.018 151.601 6.132C151.614 6.23333 151.576 6.32833 151.487 6.417C151.361 6.54367 151.221 6.60067 151.069 6.588C150.917 6.56267 150.816 6.51833 150.765 6.455C150.651 6.31567 150.525 6.17633 150.385 6.037C150.259 5.885 150.119 5.75833 149.967 5.657C149.828 5.543 149.676 5.46067 149.511 5.41C149.347 5.34667 149.169 5.32767 148.979 5.353C148.891 5.36567 148.783 5.41 148.656 5.486C148.542 5.562 148.441 5.68233 148.352 5.847C148.264 5.999 148.207 6.20167 148.181 6.455C148.169 6.70833 148.213 7.025 148.314 7.405C148.403 7.72167 148.504 8.06367 148.618 8.431C148.732 8.79833 148.859 9.18467 148.998 9.59C149.606 9.52667 150.164 9.50767 150.67 9.533C150.949 9.55833 151.209 9.609 151.449 9.685C151.69 9.761 151.886 9.875 152.038 10.027C152.076 10.1537 152.07 10.2613 152.019 10.35C151.969 10.426 151.893 10.4957 151.791 10.559C151.703 10.6097 151.595 10.6477 151.468 10.673C151.354 10.6983 151.24 10.7173 151.126 10.73C150.873 10.7553 150.607 10.787 150.328 10.825C150.05 10.8503 149.758 10.8757 149.454 10.901C149.657 11.471 149.841 12.0157 150.005 12.535C150.183 13.0417 150.322 13.466 150.423 13.808C150.474 13.998 150.48 14.2007 150.442 14.416C150.404 14.6313 150.354 14.8403 150.29 15.043C150.189 15.3343 150.062 15.5687 149.91 15.746C149.758 15.9233 149.594 15.9803 149.416 15.917C149.277 15.8537 149.188 15.7713 149.15 15.67C149.112 15.5687 149.106 15.4293 149.131 15.252C149.157 15.0493 149.169 14.8467 149.169 14.644C149.169 14.4413 149.157 14.2577 149.131 14.093C149.119 13.9157 149.093 13.7637 149.055 13.637C149.03 13.4977 149.011 13.4027 148.998 13.352L148.2 11.034C147.998 11.0593 147.795 11.0847 147.592 11.11C147.39 11.1227 147.181 11.1417 146.965 11.167ZM160.766 14.815C160.64 14.7643 160.507 14.6693 160.367 14.53C160.241 14.3907 160.165 14.2703 160.139 14.169C160.076 13.9157 160.006 13.6053 159.93 13.238C159.854 12.8707 159.778 12.478 159.702 12.06C159.626 11.642 159.55 11.2177 159.474 10.787C159.411 10.3437 159.348 9.92567 159.284 9.533C159.221 9.12767 159.17 8.76667 159.132 8.45C159.094 8.13333 159.069 7.88 159.056 7.69C159.056 7.48733 159.126 7.37333 159.265 7.348C159.595 7.31 159.829 7.43033 159.968 7.709C160.032 7.937 160.101 8.19667 160.177 8.488C160.253 8.77933 160.329 9.096 160.405 9.438C160.709 9.324 160.982 9.17833 161.222 9.001C161.463 8.82367 161.659 8.63367 161.811 8.431C161.976 8.21567 162.09 8.00033 162.153 7.785C162.229 7.557 162.242 7.33533 162.191 7.12C162.128 6.87933 161.951 6.702 161.659 6.588C161.368 6.474 161.039 6.417 160.671 6.417C160.165 6.417 159.709 6.512 159.303 6.702C158.911 6.87933 158.55 7.101 158.22 7.367C158.068 7.481 157.904 7.519 157.726 7.481C157.536 7.43033 157.41 7.31 157.346 7.12C157.346 6.94267 157.378 6.79067 157.441 6.664C157.505 6.53733 157.587 6.42333 157.688 6.322C158.081 5.91667 158.543 5.63167 159.075 5.467C159.62 5.30233 160.19 5.22 160.785 5.22C161.267 5.22 161.729 5.296 162.172 5.448C162.628 5.6 163.015 5.87233 163.331 6.265C163.483 6.51833 163.559 6.78433 163.559 7.063C163.572 7.34167 163.534 7.614 163.445 7.88C163.357 8.146 163.23 8.39933 163.065 8.64C162.913 8.88067 162.755 9.08967 162.59 9.267C162.907 9.24167 163.23 9.27333 163.559 9.362C163.889 9.438 164.18 9.57733 164.433 9.78C164.699 9.97 164.915 10.2233 165.079 10.54C165.244 10.8567 165.326 11.2367 165.326 11.68C165.326 12.1867 165.212 12.649 164.984 13.067C164.769 13.485 164.478 13.8397 164.11 14.131C163.756 14.4223 163.344 14.6503 162.875 14.815C162.419 14.9797 161.944 15.062 161.45 15.062C161.235 15.062 161.064 14.9987 160.937 14.872C160.874 14.872 160.817 14.853 160.766 14.815ZM160.69 10.825C160.792 11.319 160.887 11.832 160.975 12.364C161.064 12.896 161.159 13.428 161.26 13.96H161.336C161.615 13.96 161.919 13.9093 162.248 13.808C162.59 13.7067 162.907 13.561 163.198 13.371C163.49 13.1683 163.73 12.9277 163.92 12.649C164.11 12.3577 164.199 12.0347 164.186 11.68C164.123 11.3633 163.977 11.1227 163.749 10.958C163.521 10.7933 163.243 10.6857 162.913 10.635C162.597 10.5843 162.242 10.5843 161.849 10.635C161.469 10.673 161.083 10.7363 160.69 10.825ZM171.16 10.16C170.666 10.4513 170.134 10.6793 169.564 10.844C168.994 10.996 168.38 11.072 167.721 11.072C167.747 11.5153 167.873 11.87 168.101 12.136C168.329 12.3893 168.614 12.5413 168.956 12.592C169.159 12.6173 169.362 12.611 169.564 12.573C169.78 12.535 169.976 12.478 170.153 12.402C170.343 12.3133 170.514 12.2183 170.666 12.117C170.818 12.0157 170.951 11.9143 171.065 11.813C171.179 11.7117 171.3 11.6483 171.426 11.623C171.553 11.585 171.648 11.5787 171.711 11.604C171.889 11.6673 171.952 11.8573 171.901 12.174C171.699 12.5793 171.407 12.9277 171.027 13.219C170.647 13.4977 170.223 13.675 169.754 13.751C169.349 13.827 168.931 13.808 168.5 13.694C168.07 13.58 167.683 13.3583 167.341 13.029C167.05 12.7377 166.828 12.3957 166.676 12.003C166.524 11.6103 166.429 11.205 166.391 10.787C166.353 10.3943 166.385 10.0207 166.486 9.666C166.6 9.31133 166.771 9.001 166.999 8.735C167.227 8.45633 167.512 8.22833 167.854 8.051C168.196 7.87367 168.595 7.77233 169.051 7.747C169.596 7.709 170.09 7.81033 170.533 8.051C170.977 8.29167 171.287 8.62733 171.464 9.058C171.566 9.29867 171.591 9.50767 171.54 9.685C171.502 9.86233 171.376 10.0207 171.16 10.16ZM168.975 8.868C168.849 8.89333 168.709 8.93767 168.557 9.001C168.418 9.06433 168.285 9.14667 168.158 9.248C168.044 9.33667 167.937 9.44433 167.835 9.571C167.747 9.685 167.696 9.818 167.683 9.97C167.899 9.97 168.133 9.951 168.386 9.913C168.652 9.875 168.906 9.83067 169.146 9.78C169.4 9.71667 169.628 9.647 169.83 9.571C170.046 9.495 170.223 9.41267 170.362 9.324C170.261 9.08333 170.071 8.93767 169.792 8.887C169.526 8.82367 169.254 8.81733 168.975 8.868ZM177.536 9.533C177.777 9.52033 178.018 9.57733 178.258 9.704C178.499 9.83067 178.619 10.027 178.619 10.293C178.594 10.5083 178.474 10.6477 178.258 10.711C178.056 10.7617 177.891 10.787 177.764 10.787C177.511 10.787 177.239 10.7933 176.947 10.806C176.656 10.8187 176.358 10.8377 176.054 10.863C176.029 11.281 176.004 11.6737 175.978 12.041C175.966 12.4083 175.953 12.7377 175.94 13.029C175.928 13.3077 175.921 13.5357 175.921 13.713C175.921 13.8903 175.928 13.9853 175.94 13.998C176.219 13.9473 176.517 13.865 176.833 13.751C177.163 13.6243 177.486 13.4913 177.802 13.352C178.132 13.2 178.448 13.048 178.752 12.896C179.069 12.7313 179.367 12.5793 179.645 12.44C179.772 12.3767 179.886 12.3577 179.987 12.383C180.101 12.4083 180.171 12.4653 180.196 12.554C180.222 12.6933 180.203 12.8643 180.139 13.067C180.076 13.2697 179.962 13.4533 179.797 13.618C179.607 13.77 179.354 13.9473 179.037 14.15C178.733 14.34 178.404 14.5237 178.049 14.701C177.695 14.8783 177.334 15.0367 176.966 15.176C176.612 15.3027 176.295 15.3787 176.016 15.404C175.598 15.442 175.282 15.328 175.066 15.062C174.851 14.796 174.731 14.4603 174.705 14.055C174.68 13.6497 174.674 13.181 174.686 12.649C174.712 12.117 174.737 11.5533 174.762 10.958C174.522 10.9833 174.287 11.0087 174.059 11.034C173.844 11.0467 173.635 11.0657 173.432 11.091C173.268 11.091 173.084 11.053 172.881 10.977C172.691 10.901 172.596 10.7553 172.596 10.54C172.596 10.464 172.628 10.3627 172.691 10.236C172.755 10.1093 172.894 10.0143 173.109 9.951C173.629 9.86233 174.205 9.78633 174.838 9.723C174.876 9.12767 174.921 8.55133 174.971 7.994C175.022 7.43667 175.066 6.93 175.104 6.474C175.117 6.322 175.161 6.189 175.237 6.075C175.313 5.961 175.396 5.904 175.484 5.904C175.7 5.89133 175.902 5.94833 176.092 6.075C176.295 6.189 176.396 6.322 176.396 6.474C176.346 6.90467 176.295 7.39233 176.244 7.937C176.206 8.48167 176.168 9.039 176.13 9.609C176.384 9.58367 176.624 9.571 176.852 9.571C177.093 9.55833 177.321 9.54567 177.536 9.533ZM185.729 7.595C185.78 7.94967 185.818 8.32967 185.843 8.735C185.881 9.12767 185.907 9.52667 185.919 9.932C185.945 10.3373 185.957 10.73 185.957 11.11C185.957 11.49 185.951 11.832 185.938 12.136C186.344 12.4147 186.584 12.6617 186.66 12.877C186.749 13.0923 186.762 13.2823 186.698 13.447C186.622 13.675 186.483 13.7953 186.28 13.808C186.09 13.808 185.869 13.7383 185.615 13.599C185.438 13.7257 185.235 13.865 185.007 14.017C184.779 14.1563 184.539 14.2957 184.285 14.435C184.032 14.5617 183.779 14.6757 183.525 14.777C183.272 14.8783 183.038 14.948 182.822 14.986C182.417 15.0493 182.05 14.9733 181.72 14.758C181.404 14.5427 181.188 14.2197 181.074 13.789C180.998 13.4977 180.979 13.2 181.017 12.896C181.055 12.5793 181.15 12.2817 181.302 12.003C181.454 11.7117 181.657 11.452 181.91 11.224C182.176 10.996 182.487 10.8187 182.841 10.692C182.93 10.654 183.05 10.6223 183.202 10.597C183.367 10.5717 183.532 10.5653 183.696 10.578C183.874 10.578 184.051 10.6097 184.228 10.673C184.406 10.7363 184.57 10.844 184.722 10.996C184.722 10.7807 184.716 10.5463 184.703 10.293C184.703 10.027 184.697 9.761 184.684 9.495C184.672 9.229 184.653 8.982 184.627 8.754C184.615 8.51333 184.596 8.31067 184.57 8.146C184.545 7.956 184.469 7.842 184.342 7.804C184.228 7.75333 184.083 7.75967 183.905 7.823C183.601 7.92433 183.247 8.12067 182.841 8.412C182.436 8.70333 182.05 9.01367 181.682 9.343C181.568 9.457 181.435 9.50767 181.283 9.495C181.144 9.48233 181.024 9.42533 180.922 9.324C180.821 9.22267 180.764 9.10867 180.751 8.982C180.739 8.84267 180.789 8.697 180.903 8.545C181.119 8.317 181.359 8.08267 181.625 7.842C181.891 7.60133 182.17 7.386 182.461 7.196C182.753 6.99333 183.05 6.82867 183.354 6.702C183.658 6.57533 183.962 6.50567 184.266 6.493C184.71 6.48033 185.052 6.58167 185.292 6.797C185.533 6.99967 185.679 7.26567 185.729 7.595ZM183.525 11.68C183.361 11.718 183.183 11.8003 182.993 11.927C182.816 12.041 182.651 12.1867 182.499 12.364C182.36 12.5287 182.252 12.7187 182.176 12.934C182.113 13.1367 182.113 13.3393 182.176 13.542C182.202 13.618 182.252 13.675 182.328 13.713C182.417 13.751 182.512 13.7573 182.613 13.732C182.917 13.6687 183.259 13.5483 183.639 13.371C184.032 13.181 184.342 12.9783 184.57 12.763C184.57 12.687 184.532 12.592 184.456 12.478C184.38 12.3513 184.292 12.231 184.19 12.117C184.089 11.9903 183.975 11.8827 183.848 11.794C183.734 11.7053 183.627 11.6673 183.525 11.68ZM194.729 5.733C194.792 7.11367 194.9 8.545 195.052 10.027C195.204 11.4963 195.368 12.9023 195.546 14.245C195.584 14.8023 195.432 15.0873 195.09 15.1C195.014 15.1 194.938 15.0747 194.862 15.024C194.786 14.9607 194.716 14.8847 194.653 14.796C194.589 14.7073 194.526 14.6123 194.463 14.511C194.412 14.4097 194.38 14.321 194.368 14.245C194.266 13.599 194.171 12.915 194.083 12.193C193.994 11.471 193.912 10.749 193.836 10.027C193.772 9.29233 193.715 8.57667 193.665 7.88C193.614 7.18333 193.582 6.54367 193.57 5.961C193.595 5.657 193.639 5.40367 193.703 5.201C193.766 4.98567 193.899 4.88433 194.102 4.897C194.317 4.90967 194.469 4.99833 194.558 5.163C194.659 5.315 194.716 5.505 194.729 5.733ZM201.701 10.16C201.207 10.4513 200.675 10.6793 200.105 10.844C199.535 10.996 198.921 11.072 198.262 11.072C198.288 11.5153 198.414 11.87 198.642 12.136C198.87 12.3893 199.155 12.5413 199.497 12.592C199.7 12.6173 199.903 12.611 200.105 12.573C200.321 12.535 200.517 12.478 200.694 12.402C200.884 12.3133 201.055 12.2183 201.207 12.117C201.359 12.0157 201.492 11.9143 201.606 11.813C201.72 11.7117 201.841 11.6483 201.967 11.623C202.094 11.585 202.189 11.5787 202.252 11.604C202.43 11.6673 202.493 11.8573 202.442 12.174C202.24 12.5793 201.948 12.9277 201.568 13.219C201.188 13.4977 200.764 13.675 200.295 13.751C199.89 13.827 199.472 13.808 199.041 13.694C198.611 13.58 198.224 13.3583 197.882 13.029C197.591 12.7377 197.369 12.3957 197.217 12.003C197.065 11.6103 196.97 11.205 196.932 10.787C196.894 10.3943 196.926 10.0207 197.027 9.666C197.141 9.31133 197.312 9.001 197.54 8.735C197.768 8.45633 198.053 8.22833 198.395 8.051C198.737 7.87367 199.136 7.77233 199.592 7.747C200.137 7.709 200.631 7.81033 201.074 8.051C201.518 8.29167 201.828 8.62733 202.005 9.058C202.107 9.29867 202.132 9.50767 202.081 9.685C202.043 9.86233 201.917 10.0207 201.701 10.16ZM199.516 8.868C199.39 8.89333 199.25 8.93767 199.098 9.001C198.959 9.06433 198.826 9.14667 198.699 9.248C198.585 9.33667 198.478 9.44433 198.376 9.571C198.288 9.685 198.237 9.818 198.224 9.97C198.44 9.97 198.674 9.951 198.927 9.913C199.193 9.875 199.447 9.83067 199.687 9.78C199.941 9.71667 200.169 9.647 200.371 9.571C200.587 9.495 200.764 9.41267 200.903 9.324C200.802 9.08333 200.612 8.93767 200.333 8.887C200.067 8.82367 199.795 8.81733 199.516 8.868ZM204.429 11.167C204.252 11.1923 204.043 11.1733 203.802 11.11C203.574 11.0467 203.416 10.8883 203.327 10.635C203.289 10.5083 203.283 10.388 203.308 10.274C203.334 10.1473 203.467 10.0587 203.707 10.008C203.935 9.95733 204.176 9.913 204.429 9.875C204.695 9.82433 204.961 9.78 205.227 9.742L204.524 7.614C204.309 6.80333 204.284 6.10667 204.448 5.524C204.613 4.94133 205.082 4.52333 205.854 4.27C206.171 4.16867 206.481 4.13067 206.785 4.156C207.102 4.18133 207.4 4.26367 207.678 4.403C207.957 4.54233 208.21 4.726 208.438 4.954C208.666 5.182 208.85 5.448 208.989 5.752C209.04 5.89133 209.065 6.018 209.065 6.132C209.078 6.23333 209.04 6.32833 208.951 6.417C208.825 6.54367 208.685 6.60067 208.533 6.588C208.381 6.56267 208.28 6.51833 208.229 6.455C208.115 6.31567 207.989 6.17633 207.849 6.037C207.723 5.885 207.583 5.75833 207.431 5.657C207.292 5.543 207.14 5.46067 206.975 5.41C206.811 5.34667 206.633 5.32767 206.443 5.353C206.355 5.36567 206.247 5.41 206.12 5.486C206.006 5.562 205.905 5.68233 205.816 5.847C205.728 5.999 205.671 6.20167 205.645 6.455C205.633 6.70833 205.677 7.025 205.778 7.405C205.867 7.72167 205.968 8.06367 206.082 8.431C206.196 8.79833 206.323 9.18467 206.462 9.59C207.07 9.52667 207.628 9.50767 208.134 9.533C208.413 9.55833 208.673 9.609 208.913 9.685C209.154 9.761 209.35 9.875 209.502 10.027C209.54 10.1537 209.534 10.2613 209.483 10.35C209.433 10.426 209.357 10.4957 209.255 10.559C209.167 10.6097 209.059 10.6477 208.932 10.673C208.818 10.6983 208.704 10.7173 208.59 10.73C208.337 10.7553 208.071 10.787 207.792 10.825C207.514 10.8503 207.222 10.8757 206.918 10.901C207.121 11.471 207.305 12.0157 207.469 12.535C207.647 13.0417 207.786 13.466 207.887 13.808C207.938 13.998 207.944 14.2007 207.906 14.416C207.868 14.6313 207.818 14.8403 207.754 15.043C207.653 15.3343 207.526 15.5687 207.374 15.746C207.222 15.9233 207.058 15.9803 206.88 15.917C206.741 15.8537 206.652 15.7713 206.614 15.67C206.576 15.5687 206.57 15.4293 206.595 15.252C206.621 15.0493 206.633 14.8467 206.633 14.644C206.633 14.4413 206.621 14.2577 206.595 14.093C206.583 13.9157 206.557 13.7637 206.519 13.637C206.494 13.4977 206.475 13.4027 206.462 13.352L205.664 11.034C205.462 11.0593 205.259 11.0847 205.056 11.11C204.854 11.1227 204.645 11.1417 204.429 11.167ZM215.128 9.533C215.369 9.52033 215.609 9.57733 215.85 9.704C216.091 9.83067 216.211 10.027 216.211 10.293C216.186 10.5083 216.065 10.6477 215.85 10.711C215.647 10.7617 215.483 10.787 215.356 10.787C215.103 10.787 214.83 10.7933 214.539 10.806C214.248 10.8187 213.95 10.8377 213.646 10.863C213.621 11.281 213.595 11.6737 213.57 12.041C213.557 12.4083 213.545 12.7377 213.532 13.029C213.519 13.3077 213.513 13.5357 213.513 13.713C213.513 13.8903 213.519 13.9853 213.532 13.998C213.811 13.9473 214.108 13.865 214.425 13.751C214.754 13.6243 215.077 13.4913 215.394 13.352C215.723 13.2 216.04 13.048 216.344 12.896C216.661 12.7313 216.958 12.5793 217.237 12.44C217.364 12.3767 217.478 12.3577 217.579 12.383C217.693 12.4083 217.763 12.4653 217.788 12.554C217.813 12.6933 217.794 12.8643 217.731 13.067C217.668 13.2697 217.554 13.4533 217.389 13.618C217.199 13.77 216.946 13.9473 216.629 14.15C216.325 14.34 215.996 14.5237 215.641 14.701C215.286 14.8783 214.925 15.0367 214.558 15.176C214.203 15.3027 213.887 15.3787 213.608 15.404C213.19 15.442 212.873 15.328 212.658 15.062C212.443 14.796 212.322 14.4603 212.297 14.055C212.272 13.6497 212.265 13.181 212.278 12.649C212.303 12.117 212.329 11.5533 212.354 10.958C212.113 10.9833 211.879 11.0087 211.651 11.034C211.436 11.0467 211.227 11.0657 211.024 11.091C210.859 11.091 210.676 11.053 210.473 10.977C210.283 10.901 210.188 10.7553 210.188 10.54C210.188 10.464 210.22 10.3627 210.283 10.236C210.346 10.1093 210.486 10.0143 210.701 9.951C211.22 9.86233 211.797 9.78633 212.43 9.723C212.468 9.12767 212.512 8.55133 212.563 7.994C212.614 7.43667 212.658 6.93 212.696 6.474C212.709 6.322 212.753 6.189 212.829 6.075C212.905 5.961 212.987 5.904 213.076 5.904C213.291 5.89133 213.494 5.94833 213.684 6.075C213.887 6.189 213.988 6.322 213.988 6.474C213.937 6.90467 213.887 7.39233 213.836 7.937C213.798 8.48167 213.76 9.039 213.722 9.609C213.975 9.58367 214.216 9.571 214.444 9.571C214.685 9.55833 214.913 9.54567 215.128 9.533ZM220.053 14.321C220.116 14.777 219.926 15.0367 219.483 15.1C219.255 15.1253 219.065 15.062 218.913 14.91C218.774 14.758 218.685 14.5743 218.647 14.359C218.609 14.131 218.622 13.9093 218.685 13.694C218.761 13.4787 218.9 13.3583 219.103 13.333C219.356 13.295 219.572 13.39 219.749 13.618C219.926 13.8333 220.028 14.0677 220.053 14.321ZM39.944 30.494C38.4333 30.4207 36.9813 30.538 35.588 30.846C34.1947 31.154 32.816 31.572 31.452 32.1C31.1 32.232 30.8287 32.2173 30.638 32.056C30.462 31.8947 30.374 31.7333 30.374 31.572C30.4767 31.2933 30.66 31.066 30.924 30.89C33.9307 29.4233 36.9373 28.8807 39.944 29.262C40.0907 29.306 40.208 29.416 40.296 29.592C40.3987 29.7533 40.4353 29.8927 40.406 30.01C40.3767 30.1567 40.3327 30.2813 40.274 30.384C40.2153 30.472 40.1053 30.5087 39.944 30.494ZM36.82 38.172C36.82 38.3333 36.7613 38.48 36.644 38.612C36.5413 38.7293 36.4093 38.8027 36.248 38.832C35.9547 38.876 35.764 38.8247 35.676 38.678C35.588 38.5313 35.5367 38.3627 35.522 38.172C35.5073 37.1453 35.4853 36.126 35.456 35.114C35.4413 34.0873 35.3973 33.0607 35.324 32.034C35.324 31.9753 35.3167 31.9093 35.302 31.836C35.2873 31.748 35.2873 31.6673 35.302 31.594C35.3167 31.506 35.346 31.4327 35.39 31.374C35.4487 31.3153 35.5367 31.2713 35.654 31.242C35.9913 31.1833 36.2333 31.242 36.38 31.418C36.5267 31.5793 36.6 31.7407 36.6 31.902C36.7173 32.958 36.7907 34.0067 36.82 35.048C36.8493 36.0893 36.8493 37.1307 36.82 38.172ZM48.3296 31.66C48.0656 31.8067 47.7869 31.9607 47.4936 32.122C47.2149 32.2833 46.9289 32.474 46.6356 32.694C46.3569 32.8993 46.0856 33.1487 45.8216 33.442C45.5723 33.7207 45.3449 34.058 45.1396 34.454C44.8463 35.0113 44.6483 35.5833 44.5456 36.17C44.4429 36.742 44.3769 37.3067 44.3476 37.864C44.3476 38.128 44.2816 38.3993 44.1496 38.678C44.0323 38.942 43.8636 39.074 43.6436 39.074C43.3649 39.074 43.1376 38.9347 42.9616 38.656C42.8003 38.3627 42.6903 38.084 42.6316 37.82C42.3823 36.7787 42.1769 35.752 42.0156 34.74C41.8543 33.7133 41.7149 32.694 41.5976 31.682C41.5976 31.4767 41.6563 31.3447 41.7736 31.286C41.9056 31.2273 42.0523 31.2053 42.2136 31.22C42.3896 31.2347 42.5583 31.2787 42.7196 31.352C42.8809 31.4253 42.9763 31.5427 43.0056 31.704C43.0643 32.2467 43.1376 32.8187 43.2256 33.42C43.3136 34.0067 43.4016 34.5127 43.4896 34.938C43.5483 34.4393 43.7096 33.9553 43.9736 33.486C44.2376 33.0167 44.5603 32.5913 44.9416 32.21C45.3376 31.8287 45.7776 31.506 46.2616 31.242C46.7603 30.978 47.2663 30.802 47.7796 30.714C47.9996 30.6847 48.1829 30.6847 48.3296 30.714C48.4763 30.7433 48.5789 30.7947 48.6376 30.868C48.6963 30.9413 48.7036 31.0587 48.6596 31.22C48.6303 31.3813 48.5203 31.528 48.3296 31.66ZM56.4779 32.32C56.5219 33.112 56.5659 33.9113 56.6099 34.718C56.6685 35.5247 56.6832 36.324 56.6539 37.116C56.6245 37.8933 56.5439 38.656 56.4119 39.404C56.2945 40.152 56.0892 40.8707 55.7959 41.56C55.5025 42.2347 55.1065 42.8653 54.6079 43.452C54.1239 44.0387 53.5079 44.5667 52.7599 45.036C52.6425 45.1093 52.5105 45.1533 52.3639 45.168C52.2319 45.1827 52.0999 45.1753 51.9679 45.146C51.8359 45.1313 51.7185 45.0947 51.6159 45.036C51.5132 44.992 51.4472 44.926 51.4179 44.838C51.3739 44.706 51.3959 44.5593 51.4839 44.398C51.5719 44.2367 51.7185 44.068 51.9239 43.892C52.5692 43.408 53.1119 42.8947 53.5519 42.352C53.9919 41.8093 54.3439 41.2227 54.6079 40.592C54.8719 39.9613 55.0405 39.2793 55.1139 38.546C55.2019 37.798 55.2019 36.984 55.1139 36.104C54.9379 36.324 54.7325 36.5513 54.4979 36.786C54.2632 37.0207 54.0139 37.2333 53.7499 37.424C53.4859 37.6 53.2145 37.754 52.9359 37.886C52.6572 38.0033 52.3932 38.062 52.1439 38.062C51.9385 38.062 51.7332 38.018 51.5279 37.93C51.3225 37.842 51.1172 37.6733 50.9119 37.424C50.6772 37.116 50.4645 36.7713 50.2739 36.39C50.0979 35.994 49.9439 35.6127 49.8119 35.246C49.6799 34.8793 49.5699 34.5493 49.4819 34.256C49.4085 33.9627 49.3645 33.7573 49.3499 33.64C49.3205 33.4933 49.3205 33.354 49.3499 33.222C49.3792 33.09 49.4745 33.0093 49.6359 32.98C49.8559 32.936 50.0612 32.9507 50.2519 33.024C50.4425 33.0973 50.5745 33.2147 50.6479 33.376C50.7065 33.5373 50.7872 33.7867 50.8899 34.124C50.9925 34.4613 51.1172 34.7987 51.2639 35.136C51.4105 35.4587 51.5645 35.7447 51.7259 35.994C51.9019 36.2433 52.0852 36.368 52.2759 36.368C52.4959 36.368 52.7525 36.258 53.0459 36.038C53.3539 35.818 53.6472 35.532 53.9259 35.18C54.2045 34.828 54.4392 34.4393 54.6299 34.014C54.8352 33.574 54.9379 33.1487 54.9379 32.738C54.9379 32.65 54.9525 32.5473 54.9819 32.43C55.0112 32.3127 55.0552 32.2027 55.1139 32.1C55.1725 31.9827 55.2385 31.8873 55.3119 31.814C55.3999 31.726 55.4879 31.6747 55.5759 31.66C55.8105 31.6307 56.0159 31.6967 56.1919 31.858C56.3825 32.0047 56.4779 32.1587 56.4779 32.32ZM68.8754 32.672C68.846 32.5107 68.8167 32.3567 68.7874 32.21C68.758 32.0633 68.6847 31.968 68.5674 31.924C68.318 31.8507 68.054 31.8433 67.7754 31.902C67.4967 31.9607 67.24 32.056 67.0054 32.188C66.7707 32.3053 66.5727 32.4447 66.4114 32.606C66.25 32.7527 66.162 32.8847 66.1474 33.002C66.1034 33.222 66.162 33.4347 66.3234 33.64C66.4847 33.8453 66.7194 34.0507 67.0274 34.256C67.5407 34.564 68.076 34.8793 68.6334 35.202C69.1907 35.5247 69.66 35.8547 70.0414 36.192C70.4227 36.5293 70.6794 36.9033 70.8114 37.314C70.958 37.71 70.9287 38.1647 70.7234 38.678C70.562 39.074 70.2614 39.3967 69.8214 39.646C69.3814 39.8953 68.8974 40.0933 68.3694 40.24C67.8414 40.372 67.3134 40.4673 66.7854 40.526C66.2574 40.57 65.81 40.592 65.4434 40.592C65.3554 40.592 65.2454 40.5627 65.1134 40.504C64.996 40.4307 64.8787 40.35 64.7614 40.262C64.6587 40.174 64.5634 40.086 64.4754 39.998C64.402 39.8953 64.3654 39.8073 64.3654 39.734C64.3654 39.47 64.4827 39.2867 64.7174 39.184C64.952 39.0813 65.194 39.03 65.4434 39.03C65.7954 39.03 66.1694 39.0153 66.5654 38.986C66.976 38.942 67.3647 38.8833 67.7314 38.81C68.098 38.722 68.428 38.612 68.7214 38.48C69.0147 38.348 69.22 38.1793 69.3374 37.974C69.44 37.798 69.374 37.5927 69.1394 37.358C68.9194 37.1087 68.6187 36.852 68.2374 36.588C67.8707 36.324 67.4674 36.0673 67.0274 35.818C66.602 35.5687 66.2354 35.3413 65.9274 35.136C65.6194 34.9307 65.3554 34.6887 65.1354 34.41C64.9154 34.1167 64.776 33.7573 64.7174 33.332C64.7027 32.9507 64.7834 32.584 64.9594 32.232C65.1354 31.88 65.3627 31.572 65.6414 31.308C65.9347 31.0293 66.2647 30.8093 66.6314 30.648C66.998 30.4867 67.3647 30.406 67.7314 30.406C68.362 30.4353 68.8827 30.6113 69.2934 30.934C69.704 31.242 69.946 31.704 70.0194 32.32C70.0194 32.5253 69.9827 32.694 69.9094 32.826C69.8507 32.958 69.7407 33.0387 69.5794 33.068C69.374 33.0973 69.2054 33.0753 69.0734 33.002C68.956 32.914 68.89 32.804 68.8754 32.672ZM77.2105 33.354C77.4891 33.3393 77.7678 33.4053 78.0465 33.552C78.3251 33.6987 78.4645 33.926 78.4645 34.234C78.4351 34.4833 78.2958 34.6447 78.0465 34.718C77.8118 34.7767 77.6211 34.806 77.4745 34.806C77.1811 34.806 76.8658 34.8133 76.5285 34.828C76.1911 34.8427 75.8465 34.8647 75.4945 34.894C75.4651 35.378 75.4358 35.8327 75.4065 36.258C75.3918 36.6833 75.3771 37.0647 75.3625 37.402C75.3478 37.7247 75.3405 37.9887 75.3405 38.194C75.3405 38.3993 75.3478 38.5093 75.3625 38.524C75.6851 38.4653 76.0298 38.37 76.3965 38.238C76.7778 38.0913 77.1518 37.9373 77.5185 37.776C77.8998 37.6 78.2665 37.424 78.6185 37.248C78.9851 37.0573 79.3298 36.8813 79.6525 36.72C79.7991 36.6467 79.9311 36.6247 80.0485 36.654C80.1805 36.6833 80.2611 36.7493 80.2905 36.852C80.3198 37.0133 80.2978 37.2113 80.2245 37.446C80.1511 37.6807 80.0191 37.8933 79.8285 38.084C79.6085 38.26 79.3151 38.4653 78.9485 38.7C78.5965 38.92 78.2151 39.1327 77.8045 39.338C77.3938 39.5433 76.9758 39.7267 76.5505 39.888C76.1398 40.0347 75.7731 40.1227 75.4505 40.152C74.9665 40.196 74.5998 40.064 74.3505 39.756C74.1011 39.448 73.9618 39.0593 73.9325 38.59C73.9031 38.1207 73.8958 37.578 73.9105 36.962C73.9398 36.346 73.9691 35.6933 73.9985 35.004C73.7198 35.0333 73.4485 35.0627 73.1845 35.092C72.9351 35.1067 72.6931 35.1287 72.4585 35.158C72.2678 35.158 72.0551 35.114 71.8205 35.026C71.6005 34.938 71.4905 34.7693 71.4905 34.52C71.4905 34.432 71.5271 34.3147 71.6005 34.168C71.6738 34.0213 71.8351 33.9113 72.0845 33.838C72.6858 33.7353 73.3531 33.6473 74.0865 33.574C74.1305 32.8847 74.1818 32.2173 74.2405 31.572C74.2991 30.9267 74.3505 30.34 74.3945 29.812C74.4091 29.636 74.4605 29.482 74.5485 29.35C74.6365 29.218 74.7318 29.152 74.8345 29.152C75.0838 29.1373 75.3185 29.2033 75.5385 29.35C75.7731 29.482 75.8905 29.636 75.8905 29.812C75.8318 30.3107 75.7731 30.8753 75.7145 31.506C75.6705 32.1367 75.6265 32.782 75.5825 33.442C75.8758 33.4127 76.1545 33.398 76.4185 33.398C76.6971 33.3833 76.9611 33.3687 77.2105 33.354ZM84.8929 30.274C84.8636 30.4207 84.7609 30.5013 84.5849 30.516C84.4089 30.5307 84.2623 30.538 84.1449 30.538C83.7783 30.5527 83.3969 30.5893 83.0009 30.648C82.6196 30.7067 82.2163 30.7947 81.7909 30.912C81.6149 30.9707 81.4243 30.9487 81.2189 30.846C81.0136 30.7433 80.8889 30.538 80.8449 30.23C80.8449 30.1127 80.8889 30.0173 80.9769 29.944C81.0649 29.8707 81.1676 29.8047 81.2849 29.746C81.4756 29.658 81.7029 29.5847 81.9669 29.526C82.2309 29.4527 82.4949 29.4013 82.7589 29.372C83.0376 29.3427 83.3016 29.3353 83.5509 29.35C83.8003 29.35 84.0056 29.372 84.1669 29.416C84.4016 29.4893 84.5849 29.5993 84.7169 29.746C84.8636 29.8927 84.9223 30.0687 84.8929 30.274ZM84.3869 37.6C84.4896 37.8347 84.5409 38.0913 84.5409 38.37C84.5556 38.634 84.4823 38.8173 84.3209 38.92C84.1156 39.052 83.8956 39.0447 83.6609 38.898C83.4263 38.7513 83.2503 38.5533 83.1329 38.304C82.9716 37.996 82.8469 37.622 82.7589 37.182C82.6709 36.7273 82.6049 36.28 82.5609 35.84C82.5169 35.4 82.4876 34.9893 82.4729 34.608C82.4729 34.2267 82.4729 33.9407 82.4729 33.75C82.4876 33.5447 82.5463 33.354 82.6489 33.178C82.7516 33.002 82.8836 32.8993 83.0449 32.87C83.3089 32.8847 83.5216 33.0093 83.6829 33.244C83.8443 33.464 83.9176 33.7427 83.9029 34.08C83.9029 34.344 83.9103 34.6373 83.9249 34.96C83.9396 35.2827 83.9689 35.6053 84.0129 35.928C84.0569 36.2507 84.1083 36.566 84.1669 36.874C84.2256 37.1673 84.2989 37.4093 84.3869 37.6ZM88.373 28.954C88.4464 30.5527 88.571 32.21 88.747 33.926C88.923 35.6273 89.1137 37.2553 89.319 38.81C89.363 39.4553 89.187 39.7853 88.791 39.8C88.703 39.8 88.615 39.7707 88.527 39.712C88.439 39.6387 88.3584 39.5507 88.285 39.448C88.2117 39.3453 88.1384 39.2353 88.065 39.118C88.0064 39.0007 87.9697 38.898 87.955 38.81C87.8377 38.062 87.7277 37.27 87.625 36.434C87.5224 35.598 87.427 34.762 87.339 33.926C87.2657 33.0753 87.1997 32.2467 87.141 31.44C87.0824 30.6333 87.0457 29.8927 87.031 29.218C87.0604 28.866 87.1117 28.5727 87.185 28.338C87.2584 28.0887 87.4124 27.9713 87.647 27.986C87.8964 28.0007 88.0724 28.1033 88.175 28.294C88.2924 28.47 88.3584 28.69 88.373 28.954ZM92.9707 28.954C93.044 30.5527 93.1687 32.21 93.3447 33.926C93.5207 35.6273 93.7114 37.2553 93.9167 38.81C93.9607 39.4553 93.7847 39.7853 93.3887 39.8C93.3007 39.8 93.2127 39.7707 93.1247 39.712C93.0367 39.6387 92.956 39.5507 92.8827 39.448C92.8094 39.3453 92.736 39.2353 92.6627 39.118C92.604 39.0007 92.5674 38.898 92.5527 38.81C92.4354 38.062 92.3254 37.27 92.2227 36.434C92.12 35.598 92.0247 34.762 91.9367 33.926C91.8634 33.0753 91.7974 32.2467 91.7387 31.44C91.68 30.6333 91.6434 29.8927 91.6287 29.218C91.658 28.866 91.7094 28.5727 91.7827 28.338C91.856 28.0887 92.01 27.9713 92.2447 27.986C92.494 28.0007 92.67 28.1033 92.7727 28.294C92.89 28.47 92.956 28.69 92.9707 28.954ZM102.656 35.246C102.451 35.2753 102.209 35.2533 101.93 35.18C101.666 35.1067 101.483 34.9233 101.38 34.63C101.336 34.4833 101.329 34.344 101.358 34.212C101.388 34.0653 101.542 33.9627 101.82 33.904C102.084 33.8453 102.363 33.794 102.656 33.75C102.964 33.6913 103.272 33.64 103.58 33.596L102.766 31.132C102.517 30.1933 102.488 29.3867 102.678 28.712C102.869 28.0373 103.412 27.5533 104.306 27.26C104.673 27.1427 105.032 27.0987 105.384 27.128C105.751 27.1573 106.096 27.2527 106.418 27.414C106.741 27.5753 107.034 27.788 107.298 28.052C107.562 28.316 107.775 28.624 107.936 28.976C107.995 29.1373 108.024 29.284 108.024 29.416C108.039 29.5333 107.995 29.6433 107.892 29.746C107.746 29.8927 107.584 29.9587 107.408 29.944C107.232 29.9147 107.115 29.8633 107.056 29.79C106.924 29.6287 106.778 29.4673 106.616 29.306C106.47 29.13 106.308 28.9833 106.132 28.866C105.971 28.734 105.795 28.6387 105.604 28.58C105.414 28.5067 105.208 28.4847 104.988 28.514C104.886 28.5287 104.761 28.58 104.614 28.668C104.482 28.756 104.365 28.8953 104.262 29.086C104.16 29.262 104.094 29.4967 104.064 29.79C104.05 30.0833 104.101 30.45 104.218 30.89C104.321 31.2567 104.438 31.6527 104.57 32.078C104.702 32.5033 104.849 32.9507 105.01 33.42C105.714 33.3467 106.36 33.3247 106.946 33.354C107.269 33.3833 107.57 33.442 107.848 33.53C108.127 33.618 108.354 33.75 108.53 33.926C108.574 34.0727 108.567 34.1973 108.508 34.3C108.45 34.388 108.362 34.4687 108.244 34.542C108.142 34.6007 108.017 34.6447 107.87 34.674C107.738 34.7033 107.606 34.7253 107.474 34.74C107.181 34.7693 106.873 34.806 106.55 34.85C106.228 34.8793 105.89 34.9087 105.538 34.938C105.773 35.598 105.986 36.2287 106.176 36.83C106.382 37.4167 106.543 37.908 106.66 38.304C106.719 38.524 106.726 38.7587 106.682 39.008C106.638 39.2573 106.58 39.4993 106.506 39.734C106.389 40.0713 106.242 40.3427 106.066 40.548C105.89 40.7533 105.7 40.8193 105.494 40.746C105.333 40.6727 105.23 40.5773 105.186 40.46C105.142 40.3427 105.135 40.1813 105.164 39.976C105.194 39.7413 105.208 39.5067 105.208 39.272C105.208 39.0373 105.194 38.8247 105.164 38.634C105.15 38.4287 105.12 38.2527 105.076 38.106C105.047 37.9447 105.025 37.8347 105.01 37.776L104.086 35.092C103.852 35.1213 103.617 35.1507 103.382 35.18C103.148 35.1947 102.906 35.2167 102.656 35.246ZM115.11 31.572C115.55 31.7333 115.917 31.9753 116.21 32.298C116.518 32.6207 116.753 32.9873 116.914 33.398C117.076 33.794 117.164 34.2047 117.178 34.63C117.208 35.0553 117.164 35.4513 117.046 35.818C116.885 36.2287 116.68 36.632 116.43 37.028C116.181 37.424 115.895 37.776 115.572 38.084C115.25 38.392 114.883 38.6413 114.472 38.832C114.062 39.0227 113.607 39.118 113.108 39.118C112.507 39.118 112.001 38.9787 111.59 38.7C111.18 38.4213 110.857 38.062 110.622 37.622C110.388 37.182 110.234 36.6833 110.16 36.126C110.102 35.5687 110.116 35.0113 110.204 34.454C110.263 34.0433 110.358 33.6473 110.49 33.266C110.637 32.87 110.82 32.5253 111.04 32.232C111.26 31.924 111.51 31.6747 111.788 31.484C112.082 31.2933 112.412 31.198 112.778 31.198C112.984 31.198 113.24 31.242 113.548 31.33C113.856 31.4033 114.142 31.5133 114.406 31.66C114.597 31.484 114.832 31.4547 115.11 31.572ZM114.274 33.178C114.113 33.0753 113.922 32.9433 113.702 32.782C113.497 32.606 113.314 32.518 113.152 32.518C112.976 32.518 112.8 32.5987 112.624 32.76C112.463 32.9213 112.316 33.112 112.184 33.332C112.067 33.5373 111.964 33.75 111.876 33.97C111.788 34.19 111.73 34.366 111.7 34.498C111.656 34.718 111.627 34.982 111.612 35.29C111.598 35.598 111.62 35.906 111.678 36.214C111.737 36.5073 111.847 36.7787 112.008 37.028C112.184 37.2627 112.441 37.4313 112.778 37.534C112.984 37.5927 113.226 37.5927 113.504 37.534C113.783 37.4607 114.054 37.336 114.318 37.16C114.597 36.984 114.854 36.7493 115.088 36.456C115.338 36.1627 115.528 35.8253 115.66 35.444C115.807 35.0187 115.807 34.5787 115.66 34.124C115.528 33.6547 115.25 33.3173 114.824 33.112C114.722 33.1853 114.619 33.222 114.516 33.222C114.414 33.222 114.333 33.2073 114.274 33.178ZM125.523 31.66C125.259 31.8067 124.98 31.9607 124.687 32.122C124.408 32.2833 124.122 32.474 123.829 32.694C123.55 32.8993 123.279 33.1487 123.015 33.442C122.766 33.7207 122.538 34.058 122.333 34.454C122.04 35.0113 121.842 35.5833 121.739 36.17C121.636 36.742 121.57 37.3067 121.541 37.864C121.541 38.128 121.475 38.3993 121.343 38.678C121.226 38.942 121.057 39.074 120.837 39.074C120.558 39.074 120.331 38.9347 120.155 38.656C119.994 38.3627 119.884 38.084 119.825 37.82C119.576 36.7787 119.37 35.752 119.209 34.74C119.048 33.7133 118.908 32.694 118.791 31.682C118.791 31.4767 118.85 31.3447 118.967 31.286C119.099 31.2273 119.246 31.2053 119.407 31.22C119.583 31.2347 119.752 31.2787 119.913 31.352C120.074 31.4253 120.17 31.5427 120.199 31.704C120.258 32.2467 120.331 32.8187 120.419 33.42C120.507 34.0067 120.595 34.5127 120.683 34.938C120.742 34.4393 120.903 33.9553 121.167 33.486C121.431 33.0167 121.754 32.5913 122.135 32.21C122.531 31.8287 122.971 31.506 123.455 31.242C123.954 30.978 124.46 30.802 124.973 30.714C125.193 30.6847 125.376 30.6847 125.523 30.714C125.67 30.7433 125.772 30.7947 125.831 30.868C125.89 30.9413 125.897 31.0587 125.853 31.22C125.824 31.3813 125.714 31.528 125.523 31.66ZM133.787 35.246C133.582 35.2753 133.34 35.2533 133.061 35.18C132.797 35.1067 132.614 34.9233 132.511 34.63C132.467 34.4833 132.46 34.344 132.489 34.212C132.519 34.0653 132.673 33.9627 132.951 33.904C133.215 33.8453 133.494 33.794 133.787 33.75C134.095 33.6913 134.403 33.64 134.711 33.596L133.897 31.132C133.648 30.1933 133.619 29.3867 133.809 28.712C134 28.0373 134.543 27.5533 135.437 27.26C135.804 27.1427 136.163 27.0987 136.515 27.128C136.882 27.1573 137.227 27.2527 137.549 27.414C137.872 27.5753 138.165 27.788 138.429 28.052C138.693 28.316 138.906 28.624 139.067 28.976C139.126 29.1373 139.155 29.284 139.155 29.416C139.17 29.5333 139.126 29.6433 139.023 29.746C138.877 29.8927 138.715 29.9587 138.539 29.944C138.363 29.9147 138.246 29.8633 138.187 29.79C138.055 29.6287 137.909 29.4673 137.747 29.306C137.601 29.13 137.439 28.9833 137.263 28.866C137.102 28.734 136.926 28.6387 136.735 28.58C136.545 28.5067 136.339 28.4847 136.119 28.514C136.017 28.5287 135.892 28.58 135.745 28.668C135.613 28.756 135.496 28.8953 135.393 29.086C135.291 29.262 135.225 29.4967 135.195 29.79C135.181 30.0833 135.232 30.45 135.349 30.89C135.452 31.2567 135.569 31.6527 135.701 32.078C135.833 32.5033 135.98 32.9507 136.141 33.42C136.845 33.3467 137.491 33.3247 138.077 33.354C138.4 33.3833 138.701 33.442 138.979 33.53C139.258 33.618 139.485 33.75 139.661 33.926C139.705 34.0727 139.698 34.1973 139.639 34.3C139.581 34.388 139.493 34.4687 139.375 34.542C139.273 34.6007 139.148 34.6447 139.001 34.674C138.869 34.7033 138.737 34.7253 138.605 34.74C138.312 34.7693 138.004 34.806 137.681 34.85C137.359 34.8793 137.021 34.9087 136.669 34.938C136.904 35.598 137.117 36.2287 137.307 36.83C137.513 37.4167 137.674 37.908 137.791 38.304C137.85 38.524 137.857 38.7587 137.813 39.008C137.769 39.2573 137.711 39.4993 137.637 39.734C137.52 40.0713 137.373 40.3427 137.197 40.548C137.021 40.7533 136.831 40.8193 136.625 40.746C136.464 40.6727 136.361 40.5773 136.317 40.46C136.273 40.3427 136.266 40.1813 136.295 39.976C136.325 39.7413 136.339 39.5067 136.339 39.272C136.339 39.0373 136.325 38.8247 136.295 38.634C136.281 38.4287 136.251 38.2527 136.207 38.106C136.178 37.9447 136.156 37.8347 136.141 37.776L135.217 35.092C134.983 35.1213 134.748 35.1507 134.513 35.18C134.279 35.1947 134.037 35.2167 133.787 35.246ZM147.759 31.66C147.495 31.8067 147.217 31.9607 146.923 32.122C146.645 32.2833 146.359 32.474 146.065 32.694C145.787 32.8993 145.515 33.1487 145.251 33.442C145.002 33.7207 144.775 34.058 144.569 34.454C144.276 35.0113 144.078 35.5833 143.975 36.17C143.873 36.742 143.807 37.3067 143.777 37.864C143.777 38.128 143.711 38.3993 143.579 38.678C143.462 38.942 143.293 39.074 143.073 39.074C142.795 39.074 142.567 38.9347 142.391 38.656C142.23 38.3627 142.12 38.084 142.061 37.82C141.812 36.7787 141.607 35.752 141.445 34.74C141.284 33.7133 141.145 32.694 141.027 31.682C141.027 31.4767 141.086 31.3447 141.203 31.286C141.335 31.2273 141.482 31.2053 141.643 31.22C141.819 31.2347 141.988 31.2787 142.149 31.352C142.311 31.4253 142.406 31.5427 142.435 31.704C142.494 32.2467 142.567 32.8187 142.655 33.42C142.743 34.0067 142.831 34.5127 142.919 34.938C142.978 34.4393 143.139 33.9553 143.403 33.486C143.667 33.0167 143.99 32.5913 144.371 32.21C144.767 31.8287 145.207 31.506 145.691 31.242C146.19 30.978 146.696 30.802 147.209 30.714C147.429 30.6847 147.613 30.6847 147.759 30.714C147.906 30.7433 148.009 30.7947 148.067 30.868C148.126 30.9413 148.133 31.0587 148.089 31.22C148.06 31.3813 147.95 31.528 147.759 31.66ZM154.412 34.08C153.84 34.4173 153.224 34.6813 152.564 34.872C151.904 35.048 151.192 35.136 150.43 35.136C150.459 35.6493 150.606 36.06 150.87 36.368C151.134 36.6613 151.464 36.8373 151.86 36.896C152.094 36.9253 152.329 36.918 152.564 36.874C152.813 36.83 153.04 36.764 153.246 36.676C153.466 36.5733 153.664 36.4633 153.84 36.346C154.016 36.2287 154.17 36.1113 154.302 35.994C154.434 35.8767 154.573 35.8033 154.72 35.774C154.866 35.73 154.976 35.7227 155.05 35.752C155.255 35.8253 155.328 36.0453 155.27 36.412C155.035 36.8813 154.698 37.2847 154.258 37.622C153.818 37.9447 153.326 38.15 152.784 38.238C152.314 38.326 151.83 38.304 151.332 38.172C150.833 38.04 150.386 37.7833 149.99 37.402C149.652 37.0647 149.396 36.6687 149.22 36.214C149.044 35.7593 148.934 35.29 148.89 34.806C148.846 34.3513 148.882 33.9187 149 33.508C149.132 33.0973 149.33 32.738 149.594 32.43C149.858 32.1073 150.188 31.8433 150.584 31.638C150.98 31.4327 151.442 31.3153 151.97 31.286C152.6 31.242 153.172 31.3593 153.686 31.638C154.199 31.9167 154.558 32.3053 154.764 32.804C154.881 33.0827 154.91 33.3247 154.852 33.53C154.808 33.7353 154.661 33.9187 154.412 34.08ZM151.882 32.584C151.735 32.6133 151.574 32.6647 151.398 32.738C151.236 32.8113 151.082 32.9067 150.936 33.024C150.804 33.1267 150.679 33.2513 150.562 33.398C150.459 33.53 150.4 33.684 150.386 33.86C150.635 33.86 150.906 33.838 151.2 33.794C151.508 33.75 151.801 33.6987 152.08 33.64C152.373 33.5667 152.637 33.486 152.872 33.398C153.121 33.31 153.326 33.2147 153.488 33.112C153.37 32.8333 153.15 32.6647 152.828 32.606C152.52 32.5327 152.204 32.5253 151.882 32.584ZM162.124 34.08C161.552 34.4173 160.936 34.6813 160.276 34.872C159.616 35.048 158.905 35.136 158.142 35.136C158.172 35.6493 158.318 36.06 158.582 36.368C158.846 36.6613 159.176 36.8373 159.572 36.896C159.807 36.9253 160.042 36.918 160.276 36.874C160.526 36.83 160.753 36.764 160.958 36.676C161.178 36.5733 161.376 36.4633 161.552 36.346C161.728 36.2287 161.882 36.1113 162.014 35.994C162.146 35.8767 162.286 35.8033 162.432 35.774C162.579 35.73 162.689 35.7227 162.762 35.752C162.968 35.8253 163.041 36.0453 162.982 36.412C162.748 36.8813 162.41 37.2847 161.97 37.622C161.53 37.9447 161.039 38.15 160.496 38.238C160.027 38.326 159.543 38.304 159.044 38.172C158.546 38.04 158.098 37.7833 157.702 37.402C157.365 37.0647 157.108 36.6687 156.932 36.214C156.756 35.7593 156.646 35.29 156.602 34.806C156.558 34.3513 156.595 33.9187 156.712 33.508C156.844 33.0973 157.042 32.738 157.306 32.43C157.57 32.1073 157.9 31.8433 158.296 31.638C158.692 31.4327 159.154 31.3153 159.682 31.286C160.313 31.242 160.885 31.3593 161.398 31.638C161.912 31.9167 162.271 32.3053 162.476 32.804C162.594 33.0827 162.623 33.3247 162.564 33.53C162.52 33.7353 162.374 33.9187 162.124 34.08ZM159.594 32.584C159.448 32.6133 159.286 32.6647 159.11 32.738C158.949 32.8113 158.795 32.9067 158.648 33.024C158.516 33.1267 158.392 33.2513 158.274 33.398C158.172 33.53 158.113 33.684 158.098 33.86C158.348 33.86 158.619 33.838 158.912 33.794C159.22 33.75 159.514 33.6987 159.792 33.64C160.086 33.5667 160.35 33.486 160.584 33.398C160.834 33.31 161.039 33.2147 161.2 33.112C161.083 32.8333 160.863 32.6647 160.54 32.606C160.232 32.5327 159.917 32.5253 159.594 32.584ZM167.989 27.722C167.857 28.3673 167.718 29.0053 167.571 29.636C167.439 30.2667 167.315 30.8973 167.197 31.528C167.08 32.1587 166.992 32.7893 166.933 33.42C166.875 34.0507 166.867 34.6813 166.911 35.312C166.941 35.4733 166.911 35.6273 166.823 35.774C166.75 35.9207 166.662 36.016 166.559 36.06C166.237 36.1773 166.002 36.0967 165.855 35.818C165.679 35.07 165.584 34.3293 165.569 33.596C165.569 32.8627 165.621 32.1367 165.723 31.418C165.841 30.6993 165.987 29.988 166.163 29.284C166.354 28.5653 166.545 27.854 166.735 27.15C166.809 26.8567 166.926 26.6953 167.087 26.666C167.249 26.6367 167.403 26.6513 167.549 26.71C167.769 26.7833 167.909 26.93 167.967 27.15C168.026 27.37 168.033 27.5607 167.989 27.722ZM167.109 39.558C167.109 39.7193 167.087 39.9393 167.043 40.218C167.014 40.482 166.955 40.7313 166.867 40.966C166.794 41.2007 166.684 41.3913 166.537 41.538C166.405 41.6847 166.237 41.714 166.031 41.626C165.914 41.5527 165.797 41.4133 165.679 41.208C165.562 41.0027 165.511 40.812 165.525 40.636C165.555 40.284 165.628 39.9393 165.745 39.602C165.863 39.2647 166.017 39.0593 166.207 38.986C166.295 38.9567 166.391 38.9567 166.493 38.986C166.611 39.0153 166.713 39.0667 166.801 39.14C166.889 39.1987 166.963 39.272 167.021 39.36C167.08 39.4333 167.109 39.4993 167.109 39.558Z" fill="#646482"/>
<path fill-rule="evenodd" clip-rule="evenodd" d="M0.0189645 9.13292L1.84074 0.568471C1.90788 0.307485 2.10807 0.101919 2.36686 0.0286764C2.62541 -0.04481 2.90348 0.0252584 3.09709 0.21227L8.57243 5.77135C9.25334 6.45861 8.19206 7.52745 7.51139 6.83507L3.007 2.26427L1.46525 9.53429C1.26506 10.4825 -0.18123 10.076 0.0189645 9.13292ZM4.92399 5.5858C5.44767 10.5128 5.81974 15.4498 6.03996 20.3968L23.0573 18.0187C24.0033 17.8832 24.4086 19.3331 23.4577 19.4686L5.52946 21.9772C5.30363 22.0338 5.06462 21.9842 4.87956 21.8426C4.6945 21.7013 4.5839 21.483 4.57853 21.2499C4.36491 16.0184 3.97966 10.797 3.42253 5.5858C3.3173 4.62242 4.82389 4.63243 4.92399 5.5858Z" fill="#646482"/>
</svg>
