<svg xmlns="http://www.w3.org/2000/svg" width="23" height="22" viewBox="0 0 23 22">
    <g fill="none" fill-rule="nonzero">
        <circle cx="19.5" cy="20.5" r="1.5" fill="#43BAFF"/>
        <circle cx="3.5" cy="20.5" r="1.5" fill="#43BAFF"/>
        <circle cx="11.5" cy="20.5" r="1.5" fill="#43BAFF"/>
        <path fill="#FFF" d="M1.211 10c.322 0 .603-.114.844-.304L6.96 5.21l5.105 3.802c.442.342 1.085.342 1.487 0l6.834-5.208-.201 2.547c-.04.646.442 1.178 1.125 1.216h.08c.644 0 1.166-.456 1.207-1.064l.402-4.904c.04-.646-.443-1.179-1.126-1.217l-5.185-.38C16.003-.036 15.44.42 15.4 1.067c-.04.646.443 1.178 1.126 1.216l1.809.152-5.547 4.22-5.145-3.878c-.483-.342-1.166-.304-1.568.076L.367 8.023c-.482.456-.482 1.14-.04 1.597.24.266.563.38.884.38z"/>
    </g>
</svg>
