<svg width="19" height="27" viewBox="0 0 19 27" fill="none" xmlns="http://www.w3.org/2000/svg">
<path d="M14.8734 18.716C14.7464 18.874 14.5564 19.001 14.3664 19.001H4.40643C4.18443 19.001 3.99443 18.906 3.89943 18.716C3.8352 18.6372 3.79501 18.5415 3.78366 18.4404C3.77231 18.3394 3.79028 18.2372 3.83543 18.146L4.97743 15.139H13.8584L15.0004 18.146C15.0004 18.336 14.9684 18.558 14.8734 18.716ZM5.26343 9.28304L6.69043 8.84104C6.02443 10.012 5.29443 11.785 5.13643 14.159H13.4464C13.4464 14.127 13.4144 14.096 13.4144 14.064L13.3514 13.906C13.3514 13.874 13.3194 13.842 13.2874 13.811C13.1624 13.5512 13.0249 13.2976 12.8754 13.051C12.5584 12.513 12.2724 12.038 12.3354 11.501C12.4634 9.82204 12.9074 9.18904 13.3194 8.55604C13.6044 8.11304 13.8894 7.67004 14.0804 6.97404C14.7154 4.44104 12.9384 2.57404 11.0674 1.62404C9.67043 0.483036 7.51443 0.0410365 7.41943 0.00903646C7.31122 -0.00849581 7.20041 -0.000442456 7.09587 0.0325514C6.99133 0.0655453 6.89597 0.122563 6.81743 0.199036C6.73875 0.275265 6.68237 0.371518 6.65435 0.477424C6.62633 0.58333 6.62774 0.694874 6.65843 0.800036C6.65843 0.800036 6.84843 1.49704 7.07043 2.38304L4.02543 5.86504C3.48643 6.49804 2.91543 7.22504 3.01043 8.17504C3.04243 8.55504 3.20043 8.87204 3.42343 9.09304C4.05743 9.66304 4.94543 9.41004 5.26343 9.28304V9.28304Z" fill="#ffffff"/>
<path d="M17.5 27C18.3284 27 19 26.3284 19 25.5C19 24.6716 18.3284 24 17.5 24C16.6716 24 16 24.6716 16 25.5C16 26.3284 16.6716 27 17.5 27Z" fill="#43BAFF"/>
<path d="M1.5 27C2.32843 27 3 26.3284 3 25.5C3 24.6716 2.32843 24 1.5 24C0.671573 24 0 24.6716 0 25.5C0 26.3284 0.671573 27 1.5 27Z" fill="#43BAFF"/>
<path d="M9.5 27C10.3284 27 11 26.3284 11 25.5C11 24.6716 10.3284 24 9.5 24C8.67157 24 8 24.6716 8 25.5C8 26.3284 8.67157 27 9.5 27Z" fill="#43BAFF"/>
</svg>
