<svg xmlns="http://www.w3.org/2000/svg" id="Capa_1" x="0" y="0" enable-background="new 0 0 512 512" version="1.1" viewBox="0 0 512 512" xml:space="preserve">
    <style>
        .st0{fill:#fff}
    </style>
    <path d="M15 391h392c3.5 0 6.9-1.2 9.6-3.5 3.8-3.2 89.7-77 94.9-236.5h-421C85.3 295.8 6.2 363.8 5.3 364.5c-4.8 4.1-6.6 10.7-4.4 16.6 2.2 6 7.8 9.9 14.1 9.9zM497 61h-75V46c0-8.4-6.6-15-15-15s-15 6.6-15 15v15h-76V46c0-8.4-6.6-15-15-15s-15 6.6-15 15v15h-75V46c0-8.4-6.6-15-15-15s-15 6.6-15 15v15h-75c-8.4 0-15 6.6-15 15v45h421V76c0-8.4-6.6-15-15-15z" class="st0"/>
    <path d="M435.9 410.5c-8.1 6.8-18.4 10.5-28.9 10.5H91v45c0 8.3 6.7 15 15 15h391c8.3 0 15-6.7 15-15V297.9c-28.9 70.9-69.3 106.9-76.1 112.6z" class="st0"/>
</svg>
