<svg xmlns="http://www.w3.org/2000/svg" width="110" height="110" viewBox="0 0 110 110">
    <defs>
        <style>
            .cls-5{fill:none}.cls-2{fill:#fff}.cls-3{fill:#e9f2f5}.cls-4{fill:#7da3ad}.cls-5{stroke:#7da3ad;stroke-linecap:round;stroke-linejoin:round;stroke-width:1.8px}.cls-7{fill:#00b8e6}
        </style>
    </defs>
    <g id="ic_cloud-based" transform="translate(-905 -4345)">
        <path id="Rectangle_65" fill="none" d="M0 0H110V110H0z" transform="translate(905 4345)"/>
        <g id="Group_169" transform="translate(-1 3)">
            <rect id="Rectangle_24" width="81.951" height="17.407" class="cls-2" rx="3" transform="translate(911 4358.597)"/>
            <rect id="Rectangle_25" width="81.951" height="17.407" class="cls-2" rx="3" transform="translate(911 4381.968)"/>
            <rect id="Rectangle_26" width="81.951" height="17.407" class="cls-2" rx="3" transform="translate(911 4405.339)"/>
            <path id="Path_24" d="M56.9 15.42h16.406c7.775 0 8.271 3.511 8.271 7.877v2.9c0 4.321.383 7.877-8.271 7.877H56.9z" class="cls-3" transform="translate(911.858 4342.58)"/>
            <circle id="Ellipse_1" cx="2.25" cy="2.25" r="2.25" class="cls-4" transform="translate(918.64 4364.988)"/>
            <rect id="Rectangle_27" width="81.951" height="17.407" class="cls-5" rx="3" transform="translate(911 4358.597)"/>
            <path id="Path_25" d="M56.9 36.19h16.406c8.034 0 8.271 3.511 8.271 7.877V47c0 4.321-1.125 7.877-8.271 7.877H56.9z" class="cls-3" transform="translate(911.858 4345.181)"/>
            <circle id="Ellipse_2" cx="2.25" cy="2.25" r="2.25" class="cls-4" transform="translate(918.64 4388.359)"/>
            <rect id="Rectangle_28" width="81.951" height="17.407" class="cls-5" rx="3" transform="translate(911 4381.968)"/>
            <path id="Path_26" d="M56.9 57h16.406a8.057 8.057 0 0 1 8.271 7.877v2.937a8.057 8.057 0 0 1-8.271 7.877H56.9z" class="cls-3" transform="translate(911.858 4347.787)"/>
            <circle id="Ellipse_3" cx="2.25" cy="2.25" r="2.25" class="cls-4" transform="translate(918.64 4411.73)"/>
            <rect id="Rectangle_29" width="81.951" height="17.407" class="cls-5" rx="3" transform="translate(911 4405.339)"/>
            <path id="Path_27" d="M90.2 67.5v-.99a12.681 12.681 0 0 0-16.874-9.91l-.158.068-.248-.124A16.811 16.811 0 0 0 44.4 66.5v.248l-.124.979c-6 0-10.982 3.961-10.982 9.947a10.937 10.937 0 0 0 10.922 10.937h46.135a10.949 10.949 0 0 0 10.926-10.937c.034-6.009-5.052-10.161-11.077-10.174z" class="cls-2" transform="translate(908.902 4347.121)"/>
            <path id="Path_28" fill="#00b8e6" d="M96.323 76.83a10.273 10.273 0 0 1-10.25 10.263H68.17V57.071l1.643.113h.135a11.86 11.86 0 0 1 15.877 9.294v.214h.214A10.273 10.273 0 0 1 96.323 76.83z" opacity="0.12" transform="translate(913.27 4347.716)"/>
            <path id="Path_29" d="M91.572 67.331h-.866l-.135-.855a12.479 12.479 0 0 0-16.7-9.778l-.608.225-.461-.461a16.879 16.879 0 0 0-28.6 9.981l-.1.889h-.911a10.69 10.69 0 0 0 .056 21.38H91.5a10.69 10.69 0 0 0 0-21.38zm0 19.208H43.254a8.518 8.518 0 1 1 0-17.036h2.993v-1.126a14.628 14.628 0 0 1 25.88-9.463l.563.664.765-.394a10.127 10.127 0 0 1 4.726-1.125A10.352 10.352 0 0 1 88.523 68.4v1.125h3a8.518 8.518 0 0 1 0 17.036z" class="cls-7" transform="translate(908.806 4347.111)"/>
            <path id="Path_30" d="M62.2 74.8h-.068l-5.007-5.019a1.294 1.294 0 0 0-.923-.383 1.272 1.272 0 0 0-.923.383 1.305 1.305 0 0 0 0 1.845l6 6a1.26 1.26 0 0 0 .923.349 1.305 1.305 0 0 0 .923-.349l10.746-10.751a1.305 1.305 0 0 0 0-1.845 1.35 1.35 0 0 0-.923-.36 1.317 1.317 0 0 0-.923.36z" class="cls-7" transform="translate(911.608 4348.748)"/>
        </g>
    </g>
</svg>
