<svg xmlns="http://www.w3.org/2000/svg" id="Layer_1" x="0" y="0" enable-background="new 0 0 512 512" version="1.1" viewBox="0 0 512 512" xml:space="preserve">
    <style>
        .st0{fill:#a5a5b0}
    </style>
    <path d="M432 32H80c-8.8 0-16-7.2-16-16S71.2 0 80 0h352c8.8 0 16 7.2 16 16s-7.2 16-16 16zM432 512H80c-8.8 0-16-7.2-16-16s7.2-16 16-16h352c8.8 0 16 7.2 16 16s-7.2 16-16 16z" class="st0"/>
    <path d="M256 213.3c-4.1 0-8.2-1.6-11.3-4.7l-56.8-56.8c-11.1-11.1-17.2-25.8-17.2-41.5V16c0-8.8 7.2-16 16-16h138.6c8.8 0 16 7.2 16 16v94.3c0 15.7-6.1 30.4-17.2 41.5l-56.8 56.8c-3.1 3.2-7.2 4.7-11.3 4.7z" class="st0"/>
    <path d="M122.7 512c-8.8 0-16-7.2-16-16v-96.5c0-34.7 14.8-67.9 40.6-91.2l36.1-32.5c5.7-5.1 8.8-12.1 8.8-19.8s-3.1-14.7-8.8-19.8l-36.1-32.5c-25.8-23.2-40.6-56.5-40.6-91.2V16c0-8.8 7.2-16 16-16s16 7.2 16 16v96.5c0 25.6 10.9 50.2 30 67.4l36.1 32.5c12.3 11.1 19.4 27 19.4 43.6s-7.1 32.5-19.4 43.6l-36.1 32.5c-19.1 17.2-30 41.7-30 67.4V496c0 8.8-7.2 16-16 16zM389.3 512c-8.8 0-16-7.2-16-16v-96.5c0-25.6-10.9-50.2-30-67.4l-36.1-32.5c-12.3-11.1-19.4-27-19.4-43.6s7.1-32.5 19.4-43.6l36.1-32.5c19.1-17.2 30-41.7 30-67.4V16c0-8.8 7.2-16 16-16s16 7.2 16 16v96.5c0 34.7-14.8 67.9-40.6 91.2l-36.1 32.5c-5.7 5.1-8.8 12.1-8.8 19.8 0 7.7 3.1 14.7 8.8 19.8l36.1 32.5c25.8 23.3 40.6 56.5 40.6 91.2V496c0 8.8-7.1 16-16 16z" class="st0"/>
</svg>
