<svg width="19" height="24" viewBox="0 0 19 24" fill="none" xmlns="http://www.w3.org/2000/svg">
<path d="M16 9.992V13C16 13.5304 15.7893 14.0391 15.4142 14.4142C15.0391 14.7893 14.5304 15 14 15H5.00003C4.4696 15 3.96089 14.7893 3.58582 14.4142C3.21075 14.0391 3.00004 13.5304 3.00004 13V9.998L3.01304 9.999H3.17304C4.08003 9.999 4.90403 9.459 5.28803 8.616C5.47035 9.02549 5.76678 9.37379 6.14186 9.61924C6.51694 9.86468 6.95478 9.99687 7.40302 10C8.29502 10 9.10901 9.478 9.50201 8.655C9.6897 9.05766 9.98865 9.39823 10.3636 9.63654C10.7385 9.87486 11.1738 10.001 11.618 10C12.0627 9.99348 12.4962 9.8599 12.8674 9.61502C13.2386 9.37015 13.532 9.0242 13.713 8.618C13.8965 9.02573 14.1933 9.37212 14.5681 9.6159C14.9429 9.85969 15.3799 9.99058 15.827 9.993H16V9.992ZM5.28803 6.616C5.10577 7.02534 4.8095 7.37353 4.43462 7.61897C4.05973 7.8644 3.6221 7.99668 3.17404 8H3.01304C1.49004 7.894 0.572047 6.2 1.20004 4.77L3.40104 0.734C3.49321 0.517578 3.64662 0.332808 3.8424 0.202405C4.03818 0.0720025 4.2678 0.00165113 4.50303 0H14.5C14.976 0 15.407 0.287 15.602 0.733L17.801 4.763C18.427 6.194 17.509 7.887 15.988 7.993H15.828C15.3807 7.99078 14.9435 7.85997 14.5685 7.61617C14.1935 7.37238 13.8965 7.02588 13.713 6.618C13.532 7.0242 13.2386 7.37015 12.8674 7.61502C12.4962 7.8599 12.0627 7.99348 11.618 8C11.1736 8.00088 10.7383 7.87462 10.3634 7.63612C9.98844 7.39762 9.68956 7.05684 9.50201 6.654C9.31534 7.05389 9.019 7.39258 8.64742 7.63068C8.27585 7.86877 7.84432 7.9965 7.40302 7.999C6.49702 7.999 5.67303 7.459 5.28803 6.616Z" fill="#181927"/>
<path d="M17.5 24C18.3284 24 19 23.3284 19 22.5C19 21.6716 18.3284 21 17.5 21C16.6716 21 16 21.6716 16 22.5C16 23.3284 16.6716 24 17.5 24Z" fill="#43BAFF"/>
<path d="M1.5 24C2.32843 24 3 23.3284 3 22.5C3 21.6716 2.32843 21 1.5 21C0.671573 21 0 21.6716 0 22.5C0 23.3284 0.671573 24 1.5 24Z" fill="#43BAFF"/>
<path d="M9.5 24C10.3284 24 11 23.3284 11 22.5C11 21.6716 10.3284 21 9.5 21C8.67157 21 8 21.6716 8 22.5C8 23.3284 8.67157 24 9.5 24Z" fill="#43BAFF"/>
</svg>
