<svg xmlns="http://www.w3.org/2000/svg" width="110" height="110" viewBox="0 0 110 110">
    <defs>
        <style>
            .cls-2{fill:#fff}.cls-4{fill:#7da3ad}.cls-6{fill:#00b8e6}
        </style>
    </defs>
    <g id="ic_secure-funds" transform="translate(-403 -4345)">
        <path id="Rectangle_64" fill="none" d="M0 0H110V110H0z" transform="translate(403 4345)"/>
        <g id="Group_168">
            <path id="Path_15" d="M17.8 33.87l7.668-13.255L30.6 18.29l2.625.625 7.3-7.275 6.35.15 23.273 23.017H17.8z" class="cls-2" transform="translate(402.911 4344.177)"/>
            <path id="Path_16" d="M75.655 88.575H21.4a9.877 9.877 0 0 1-9.89-9.875V67.478l-3.25-.728V53.356l3.25-.648V41.547a9.877 9.877 0 0 1 9.89-9.877h54.255a9.877 9.877 0 0 1 9.877 9.877V78.7a9.877 9.877 0 0 1-9.877 9.877z" class="cls-2" transform="translate(401.417 4347.314)"/>
            <path id="Path_17" fill="#e9f2f5" d="M51.37 32.45h17.789a9.253 9.253 0 0 1 9.252 9.25v36.609a9.253 9.253 0 0 1-9.253 9.253H51.37z" transform="translate(408.168 4347.436)"/>
            <path id="Path_18" d="M19.521 92.686H77.64a8.952 8.952 0 0 0 8.941-8.941v-40.48a8.952 8.952 0 0 0-8.941-8.987h-4.88L50.842 12.3a7.634 7.634 0 0 0-10.791 0l-5.621 5.785-.3-.093a7.414 7.414 0 0 0-2.186-.324 7.691 7.691 0 0 0-6.616 3.817L17.786 34.5h-.231a9.01 9.01 0 0 0-6.94 8.721v12.04h-.162A4.36 4.36 0 0 0 6.81 59.55v7.842a4.36 4.36 0 0 0 3.643 4.291h.162v12.063a8.952 8.952 0 0 0 8.906 8.941zm17.037-73.664l5.054-5.054a5.39 5.39 0 0 1 7.657 0l20.368 20.31H62.8L36.512 19.069zm-15.95 15.036l6.639-11.5a5.4 5.4 0 0 1 7.391-1.978L58.5 34.278H20.435zM12.8 43.311a6.731 6.731 0 0 1 6.72-6.72h58.12a6.743 6.743 0 0 1 6.731 6.731V83.8a6.743 6.743 0 0 1-6.731 6.731H19.521a6.731 6.731 0 0 1-6.708-6.789V71.8H25.42a8.293 8.293 0 0 0 0-16.586H12.813zM9 67.426v-7.842a2.151 2.151 0 0 1 2.151-2.174h14.257a6.072 6.072 0 1 1 0 12.144H11.147A2.151 2.151 0 0 1 9 67.426z" class="cls-4" transform="translate(401.19 4343.931)"/>
            <path id="Path_19" d="M24.594 55.26a1.735 1.735 0 0 0-2.475 0 1.8 1.8 0 0 0-.509 1.249 1.753 1.753 0 1 0 2.984-1.249z" class="cls-4" transform="translate(403.508 4350.927)"/>
            <path id="Path_20" d="M97.911 54.193L78.249 46.1a1.712 1.712 0 0 0-1.3 0l-19.662 8.1a1.689 1.689 0 0 0-1.041 1.561v9.912A33.09 33.09 0 0 0 77.011 96.4a1.619 1.619 0 0 0 1.272 0 33.09 33.09 0 0 0 20.669-30.733v-9.912a1.689 1.689 0 0 0-1.041-1.561z" class="cls-2" transform="translate(408.932 4349.553)"/>
            <path id="Path_21" fill="#00b8e6" d="M96.055 55.761v9.912A33.079 33.079 0 0 1 75.386 96.4a1.585 1.585 0 0 1-.636.139V45.93a1.793 1.793 0 0 1 .648.127l19.662 8.1a1.689 1.689 0 0 1 .995 1.608z" opacity="0.12" transform="translate(411.83 4349.547)"/>
            <path id="Path_22" d="M56.24 55.3v10.234a33.541 33.541 0 0 0 20.981 31.228 1.157 1.157 0 0 0 .856 0 33.611 33.611 0 0 0 20.992-31.228V55.3a1.157 1.157 0 0 0-.706-1.053L78.088 45.8a1.087 1.087 0 0 0-.879 0l-20.275 8.411a1.157 1.157 0 0 0-.694 1.089zm2.313.763l19.084-7.923.359.15 18.772 7.8v9.473A31.448 31.448 0 0 1 78.03 94.276l-.382.173-.382-.173A31.448 31.448 0 0 1 58.519 65.5z" class="cls-6" transform="translate(408.931 4349.513)"/>
            <path id="Path_23" d="M72.824 73.813a1.307 1.307 0 0 0 1.735 0l10.409-10.351a1.226 1.226 0 0 0 .359-.867 1.157 1.157 0 0 0-.359-.867 1.249 1.249 0 0 0-.867-.347 1.226 1.226 0 0 0-.867.347l-9.5 9.484-4.9-4.916A1.227 1.227 0 0 0 67.1 68.03z" class="cls-6" transform="translate(410.575 4351.967)"/>
        </g>
    </g>
</svg>
