<svg xmlns="http://www.w3.org/2000/svg" enable-background="new 0 0 512 512" viewBox="50 -1 700 620">
    <circle cx="434.1" cy="447.8" r="96.4" fill="#FF0000" opacity="0.3"/>
    <circle cx="434.1" cy="170.4" r="96.4" fill="none"/>
    <path fill="#A5A5B0" d="M718.6 360.7H620c-8.1 0-14.6-6.5-14.6-14.6v-83c0-4.1 1.8-8.1 4.8-10.8 22.9-20.6 119.4-110.4 122.9-159.9.6-8.4-6.2-15.4-14.6-15.4H620c-8.1 0-14.6-6.5-14.6-14.6v-.8C605.5 27.5 577.9 0 544 0H323.2c-33.9 0-61.5 27.5-61.5 61.5v.8c0 8.1-6.5 14.6-14.6 14.6h-98.6c-8.4 0-15.2 7.1-14.6 15.4 3.5 49.6 100.1 139.3 122.9 159.9 3.1 2.8 4.8 6.7 4.8 10.8v83c0 8.1-6.5 14.6-14.6 14.6h-98.6c-8.4 0-15.2 7.1-14.6 15.4 3.7 49.7 100.2 139.4 123.1 160 3.1 2.8 4.8 6.7 4.8 10.8v8.8c0 33.9 27.5 61.5 61.5 61.5H544c33.9 0 61.5-27.5 61.5-61.5v-8.8c0-4.1 1.8-8.1 4.8-10.8 22.9-20.6 119.4-110.4 122.9-159.9.6-8.4-6.2-15.4-14.6-15.4zM434.1 544.1c-53.2 0-96.4-43.1-96.4-96.4s43.1-96.3 96.4-96.3 96.3 43.1 96.3 96.3-43.1 96.4-96.3 96.4zm0-277.3c-53.2 0-96.4-43.1-96.4-96.3s43.1-96.4 96.4-96.4 96.3 43.1 96.3 96.4-43.1 96.3-96.3 96.3z"/>
</svg>
