<svg id="Layer_1" data-name="Layer 1" xmlns="http://www.w3.org/2000/svg" width="100" height="100" viewBox="0 0 100 100"><title>ic_rule-builder</title><rect width="100" height="100" style="fill:none"/><rect x="6.14" y="10.96" width="67.39" height="68.04" rx="8.96" style="fill:#fff"/><path d="M53.06,12H64.52a8,8,0,0,1,8,8V69.44a8,8,0,0,1-8,8H53.06a0,0,0,0,1,0,0V12A0,0,0,0,1,53.06,12Z" style="fill:#006680;opacity:0.1"/><rect x="6.14" y="10.96" width="67.39" height="68.04" rx="8.96" style="fill:none;stroke:#006680;stroke-width:2.01599994659424px;opacity:0.6000000000000001"/><g style="opacity:0.6000000000000001"><path d="M36,22.06H59.41" style="fill:#fff;stroke:#006680;stroke-linecap:round;stroke-linejoin:round;stroke-width:1.79999995231628px"/><path d="M36,28.4h19.4" style="fill:#fff;stroke:#006680;stroke-linecap:round;stroke-linejoin:round;stroke-width:1.79999995231628px"/><polyline points="15.77 25.25 19.59 29.07 27.28 21.38" style="fill:#fff;stroke:#006680;stroke-linecap:round;stroke-linejoin:round;stroke-width:1.79999995231628px"/><path d="M36,42.7H47.73" style="fill:#fff;stroke:#006680;stroke-linecap:round;stroke-linejoin:round;stroke-width:1.79999995231628px"/><path d="M36,49H56.78" style="fill:#fff;stroke:#006680;stroke-linecap:round;stroke-linejoin:round;stroke-width:1.79999995231628px"/><path d="M24.51,41.5l-8.74,8.74" style="fill:#fff;stroke:#006680;stroke-linecap:round;stroke-linejoin:round;stroke-width:1.79999995231628px"/><path d="M15.77,41.5l8.74,8.74" style="fill:#fff;stroke:#006680;stroke-linecap:round;stroke-linejoin:round;stroke-width:1.79999995231628px"/></g><circle cx="73.25" cy="47.37" r="4.05" style="fill:#fff"/><path d="M58.52,57H87.08a9.62,9.62,0,0,1,9.69,9.6V79.85a9.62,9.62,0,0,1-9.69,9.6H58.52a9.62,9.62,0,0,1-9.68-9.6V66.61A9.62,9.62,0,0,1,58.52,57Z" style="fill:#fff"/><path d="M79.81,57.26h8.44a7.9,7.9,0,0,1,8.1,7.64v16a7.9,7.9,0,0,1-8.1,7.63H79.81Z" style="fill:#00b8e6;opacity:0.1"/><path d="M57.68,57.35h30.4a8.13,8.13,0,0,1,8.11,8.1v15a8.13,8.13,0,0,1-8.11,8.11H57.68a8.13,8.13,0,0,1-8.11-8.11v-15A8,8,0,0,1,57.68,57.35Z" style="fill:none;stroke:#00b8e6;stroke-width:2.01599994659424px"/><path d="M73.25,52.24c2.51,0,3.24-1.7,3.24-4.7s-.73-5-3.24-5Z" style="fill:#00b8e6;opacity:0.1"/><circle cx="73.25" cy="47.37" r="3.89" style="fill:none;stroke:#00b8e6;stroke-width:2.01599994659424px"/><ellipse cx="64.98" cy="70.89" rx="3.32" ry="3.24" style="fill:#00b8e6"/><ellipse cx="79.81" cy="70.89" rx="3.32" ry="3.24" style="fill:#00b8e6"/></svg>