<svg xmlns="http://www.w3.org/2000/svg" width="97" height="69">
    <g fill="none" fill-rule="evenodd">
        <rect width="78" height="69" fill="#FFF" fill-rule="nonzero" rx="4"/>
        <rect width="27.674" height="69" x="49" fill="#F5F5F8" fill-rule="nonzero" rx="4"/>
        <rect width="75.5" height="66.5" x="1.25" y="1.25" stroke="#9D9DBF" stroke-width="2.5" rx="4"/>
        <path stroke="#9D9DBF" stroke-linecap="round" stroke-width="2.5" d="M15 12.55h23.756M15 20.55h40.756M15 36.55h26.756M15 52.55h21.756M15 44.55h10m-4-16h12.756M15 28.55h1"/>
        <rect width="21" height="36" x="67" y="21" stroke="#FFF" stroke-width="4.5" rx="10.5"/>
        <rect width="26.5" height="39.5" x="64.25" y="18.25" stroke="#00B3D8" stroke-width="2.5" rx="13.25"/>
        <rect width="14.5" height="23.5" x="70.25" y="24.25" stroke="#00B3D8" stroke-width="2.5" rx="7.25"/>
        <rect width="39" height="32" x="58" y="37" fill="#FFF" fill-rule="nonzero" rx="5"/>
        <path fill="#E5F7FB" fill-rule="nonzero" d="M77 37h15a5 5 0 015 5v22a5 5 0 01-5 5H77V37z"/>
        <rect width="36.5" height="29.5" x="59.25" y="38.25" stroke="#00B3D8" stroke-width="2.5" rx="5"/>
        <path fill="#00B3D8" fill-rule="nonzero" d="M80.124 58.206l-1-4.605a3.5 3.5 0 10-3.299-.027c0 .027-1 4.632-1 4.632h5.299z"/>
    </g>
</svg>
