<svg xmlns="http://www.w3.org/2000/svg" width="99" height="65" viewBox="0 0 99 65">
    <g fill="none" fill-rule="nonzero">
        <g transform="translate(25)">
            <path fill="#9D9DBF" d="M53 0h14.477a4 4 0 0 1 4 4v56.17a4 4 0 0 1-4 4H53a4 4 0 0 1-4-4V4a4 4 0 0 1 4-4z" opacity=".1"/>
            <rect width="70.172" height="61.734" x="2.116" y="1.125" stroke="#9D9DBF" stroke-width="2.25" rx="8"/>
        </g>
        <g transform="translate(47 10)">
            <rect width="27.75" height="18.786" x="1.125" y="11.089" fill="#FFF" stroke="#9D9DBF" stroke-width="2.25" rx="5.5"/>
            <path fill="#9D9DBF" d="M19.636 9.964h4.319a5.5 5.5 0 0 1 5.5 5.5V25.5a5.5 5.5 0 0 1-5.5 5.5h-4.319V9.964z" opacity=".1"/>
            <ellipse cx="15" cy="4.152" stroke="#9D9DBF" stroke-width="2.25" rx="2.966" ry="3.027"/>
            <path fill="#9D9DBF" d="M15.273 8.304c2.108 0 3.818-1.86 3.818-4.152C19.09 1.859 17.38 0 15.273 0v8.304z" opacity=".1"/>
            <ellipse cx="10.091" cy="19.098" fill="#9D9DBF" rx="1.909" ry="1.938"/>
            <ellipse cx="19.364" cy="19.098" fill="#9D9DBF" rx="1.909" ry="1.938"/>
        </g>
        <rect width="21" height="2.5" x="52" y="47" fill="#9D9DBF" rx="1.25"/>
        <rect width="15" height="2.5" x="55" y="52" fill="#9D9DBF" rx="1.25"/>
        <path fill="#FFF" stroke="#00B3D8" stroke-width="2.25" d="M22.003 62.41L39.05 45.356l.442-.443a11.477 11.477 0 0 0 .012-16.27c-4.492-4.484-11.766-4.484-16.258-.001l-1.235 1.235-.796-.795-.44-.441c-4.49-4.497-11.777-4.503-16.274-.012-4.498 4.49-4.503 11.777-.013 16.274l.44.44 17.074 17.065z"/>
        <path fill="#00B3D8" d="M40.3 27.847c-4.932-4.921-12.917-4.921-17.848 0l-.44.44-.44-.44c.287.293.431 12.344.431 36.153l17.843-17.848.44-.44a12.602 12.602 0 0 0 .014-17.865z" opacity=".05"/>
    </g>
</svg>
