<svg width="150" height="119" viewBox="0 0 150 119" fill="none" xmlns="http://www.w3.org/2000/svg">
<g clip-path="url(#clip0)">
<mask id="mask0" mask-type="alpha" maskUnits="userSpaceOnUse" x="0" y="-31" width="150" height="150">
<path d="M75 119C116.421 119 150 85.4214 150 44C150 2.57864 116.421 -31 75 -31C33.5786 -31 0 2.57864 0 44C0 85.4214 33.5786 119 75 119Z" fill="white"/>
</mask>
<g mask="url(#mask0)">
<path d="M119 69H31C25.4772 69 21 73.4772 21 79V120C21 125.523 25.4772 130 31 130H119C124.523 130 129 125.523 129 120V79C129 73.4772 124.523 69 119 69Z" fill="white"/>
<path d="M90.805 69H117.683C123.206 69 127.683 73.477 127.683 79V120C127.683 125.523 123.206 130 117.683 130H90.805V69Z" fill="#E5F7FB"/>
<path d="M117.75 70.25H32.25C26.7272 70.25 22.25 74.7272 22.25 80.25V118.75C22.25 124.273 26.7272 128.75 32.25 128.75H117.75C123.273 128.75 127.75 124.273 127.75 118.75V80.25C127.75 74.7272 123.273 70.25 117.75 70.25Z" stroke="#00B3D8" stroke-width="2.5"/>
<path d="M63.5 80.25H46.5C44.1528 80.25 42.25 82.1528 42.25 84.5C42.25 86.8472 44.1528 88.75 46.5 88.75H63.5C65.8472 88.75 67.75 86.8472 67.75 84.5C67.75 82.1528 65.8472 80.25 63.5 80.25Z" stroke="#00B3D8" stroke-width="2.5"/>
<path d="M103.5 80.25H86.5C84.1528 80.25 82.25 82.1528 82.25 84.5C82.25 86.8472 84.1528 88.75 86.5 88.75H103.5C105.847 88.75 107.75 86.8472 107.75 84.5C107.75 82.1528 105.847 80.25 103.5 80.25Z" stroke="#00B3D8" stroke-width="2.5"/>
</g>
<path d="M95 23H55C49.4772 23 45 27.4772 45 33V54C45 59.5228 49.4772 64 55 64H95C100.523 64 105 59.5228 105 54V33C105 27.4772 100.523 23 95 23Z" fill="white"/>
<path d="M83.644 23H93.984C99.506 23 103.984 27.477 103.984 33V54C103.984 59.523 99.506 64 93.984 64H83.644V23V23Z" fill="#E5F7FB"/>
<path d="M93.75 24.25H56.25C50.7272 24.25 46.25 28.7272 46.25 34.25V52.75C46.25 58.2728 50.7272 62.75 56.25 62.75H93.75C99.2728 62.75 103.75 58.2728 103.75 52.75V34.25C103.75 28.7272 99.2728 24.25 93.75 24.25Z" stroke="#00B3D8" stroke-width="2.5"/>
<path d="M45.75 52.75V34.25H44C43.0054 34.25 42.0516 34.6451 41.3483 35.3483C40.6451 36.0516 40.25 37.0054 40.25 38V49C40.25 49.9946 40.6451 50.9484 41.3483 51.6516C42.0516 52.3549 43.0054 52.75 44 52.75H45.75ZM104.25 34.25V52.75H106C106.995 52.75 107.948 52.3549 108.652 51.6516C109.355 50.9484 109.75 49.9946 109.75 49V38C109.75 37.0054 109.355 36.0516 108.652 35.3483C107.948 34.6451 106.995 34.25 106 34.25H104.25Z" stroke="#00B3D8" stroke-width="2.5"/>
<path d="M59.508 17C62.2694 17 64.508 14.7614 64.508 12C64.508 9.23858 62.2694 7 59.508 7C56.7466 7 54.508 9.23858 54.508 12C54.508 14.7614 56.7466 17 59.508 17Z" fill="white"/>
<path d="M59.508 18C62.601 18 63.508 15.904 63.508 12.222C63.508 8.54 62.601 6 59.508 6V18Z" fill="#E5F7FB"/>
<path d="M59.508 16.75C62.1313 16.75 64.258 14.6234 64.258 12C64.258 9.37665 62.1313 7.25 59.508 7.25C56.8846 7.25 54.758 9.37665 54.758 12C54.758 14.6234 56.8846 16.75 59.508 16.75Z" stroke="#00B3D8" stroke-width="2.5"/>
<path d="M90 17C92.7614 17 95 14.7614 95 12C95 9.23858 92.7614 7 90 7C87.2386 7 85 9.23858 85 12C85 14.7614 87.2386 17 90 17Z" fill="white"/>
<path d="M90 18C93.093 18 94 15.904 94 12.222C94 8.54 93.093 6 90 6V18Z" fill="#E5F7FB"/>
<path d="M90 16.75C92.6234 16.75 94.75 14.6234 94.75 12C94.75 9.37665 92.6234 7.25 90 7.25C87.3766 7.25 85.25 9.37665 85.25 12C85.25 14.6234 87.3766 16.75 90 16.75Z" stroke="#00B3D8" stroke-width="2.5"/>
<path d="M75 17C77.7614 17 80 14.7614 80 12C80 9.23858 77.7614 7 75 7C72.2386 7 70 9.23858 70 12C70 14.7614 72.2386 17 75 17Z" fill="white"/>
<path d="M75 18C78.093 18 79 15.904 79 12.222C79 8.54 78.093 6 75 6V18Z" fill="#E5F7FB"/>
<path d="M75 16.75C77.6234 16.75 79.75 14.6234 79.75 12C79.75 9.37665 77.6234 7.25 75 7.25C72.3766 7.25 70.25 9.37665 70.25 12C70.25 14.6234 72.3766 16.75 75 16.75Z" stroke="#00B3D8" stroke-width="2.5"/>
<path d="M65.339 45C67.5857 45 69.407 43.2091 69.407 41C69.407 38.7909 67.5857 37 65.339 37C63.0923 37 61.271 38.7909 61.271 41C61.271 43.2091 63.0923 45 65.339 45Z" fill="#00B3D8"/>
<path d="M83.644 45C85.8907 45 87.712 43.2091 87.712 41C87.712 38.7909 85.8907 37 83.644 37C81.3973 37 79.576 38.7909 79.576 41C79.576 43.2091 81.3973 45 83.644 45Z" fill="#00B3D8"/>
</g>
<defs>
<clipPath id="clip0">
<rect width="150" height="119" fill="white"/>
</clipPath>
</defs>
</svg>
