<svg width="150" height="119" viewBox="0 0 150 119" fill="none" xmlns="http://www.w3.org/2000/svg">
<g clip-path="url(#clip0)">
<mask id="mask0" mask-type="alpha" maskUnits="userSpaceOnUse" x="0" y="-31" width="150" height="150">
<path d="M75 119C116.421 119 150 85.4214 150 44C150 2.57864 116.421 -31 75 -31C33.5786 -31 0 2.57864 0 44C0 85.4214 33.5786 119 75 119Z" fill="white"/>
</mask>
<g mask="url(#mask0)">
<path d="M111 79H39C33.4772 79 29 83.4772 29 89V120C29 125.523 33.4772 130 39 130H111C116.523 130 121 125.523 121 120V89C121 83.4772 116.523 79 111 79Z" fill="white"/>
<path d="M88.463 79H109.878C115.401 79 119.878 83.477 119.878 89V120C119.878 125.523 115.401 130 109.878 130H88.463V79Z" fill="#E5F7FB"/>
<path d="M109.75 80.25H40.25C34.7272 80.25 30.25 84.7272 30.25 90.25V118.75C30.25 124.273 34.7272 128.75 40.25 128.75H109.75C115.273 128.75 119.75 124.273 119.75 118.75V90.25C119.75 84.7272 115.273 80.25 109.75 80.25Z" stroke="#00B3D8" stroke-width="2.5"/>
</g>
<path d="M95 33H55C49.4772 33 45 37.4772 45 43V64C45 69.5228 49.4772 74 55 74H95C100.523 74 105 69.5228 105 64V43C105 37.4772 100.523 33 95 33Z" fill="white"/>
<path d="M83.644 33H93.984C99.506 33 103.984 37.477 103.984 43V64C103.984 69.523 99.506 74 93.984 74H83.644V33V33Z" fill="#E5F7FB"/>
<path d="M93.75 34.25H56.25C50.7272 34.25 46.25 38.7272 46.25 44.25V62.75C46.25 68.2728 50.7272 72.75 56.25 72.75H93.75C99.2728 72.75 103.75 68.2728 103.75 62.75V44.25C103.75 38.7272 99.2728 34.25 93.75 34.25Z" stroke="#00B3D8" stroke-width="2.5"/>
<path d="M65.508 27C68.2694 27 70.508 24.7614 70.508 22C70.508 19.2386 68.2694 17 65.508 17C62.7466 17 60.508 19.2386 60.508 22C60.508 24.7614 62.7466 27 65.508 27Z" fill="white"/>
<path d="M65.508 28C68.601 28 69.508 25.904 69.508 22.222C69.508 18.54 68.601 16 65.508 16V28Z" fill="#E5F7FB"/>
<path d="M65.508 26.75C68.1313 26.75 70.258 24.6234 70.258 22C70.258 19.3766 68.1313 17.25 65.508 17.25C62.8846 17.25 60.758 19.3766 60.758 22C60.758 24.6234 62.8846 26.75 65.508 26.75Z" stroke="#00B3D8" stroke-width="2.5"/>
<path d="M85.508 27C88.2694 27 90.508 24.7614 90.508 22C90.508 19.2386 88.2694 17 85.508 17C82.7466 17 80.508 19.2386 80.508 22C80.508 24.7614 82.7466 27 85.508 27Z" fill="white"/>
<path d="M85.508 28C88.601 28 89.508 25.904 89.508 22.222C89.508 18.54 88.601 16 85.508 16V28Z" fill="#E5F7FB"/>
<path d="M85.508 26.75C88.1313 26.75 90.258 24.6234 90.258 22C90.258 19.3766 88.1313 17.25 85.508 17.25C82.8846 17.25 80.758 19.3766 80.758 22C80.758 24.6234 82.8846 26.75 85.508 26.75Z" stroke="#00B3D8" stroke-width="2.5"/>
<path d="M65.339 55C67.5857 55 69.407 53.2091 69.407 51C69.407 48.7909 67.5857 47 65.339 47C63.0923 47 61.271 48.7909 61.271 51C61.271 53.2091 63.0923 55 65.339 55Z" fill="#00B3D8"/>
<path d="M83.644 55C85.8907 55 87.712 53.2091 87.712 51C87.712 48.7909 85.8907 47 83.644 47C81.3973 47 79.576 48.7909 79.576 51C79.576 53.2091 81.3973 55 83.644 55Z" fill="#00B3D8"/>
</g>
<defs>
<clipPath id="clip0">
<rect width="150" height="119" fill="white"/>
</clipPath>
</defs>
</svg>
