<svg xmlns="http://www.w3.org/2000/svg" width="108" height="71">
    <g fill="none">
        <g transform="translate(28)">
            <rect width="20.5" height="9.5" x="30.25" y="1.25" stroke="#9D9DBF" stroke-width="2.5" rx="3"/>
            <rect width="68" height="41" x="6" y="30" fill="#FFF" rx="5"/>
            <path fill="#F5F5F8" d="M60.176 30H69a5 5 0 015 5v31a5 5 0 01-5 5h-8.824a5 5 0 01-5-5V35a5 5 0 015-5z"/>
            <rect width="65.5" height="38.5" x="7.25" y="31.25" stroke="#9D9DBF" stroke-width="2.5" rx="5"/>
            <path fill="#FFF" d="M3 9h74a3 3 0 013 3v20.692a3 3 0 01-2.238 2.902C60.79 40.049 48.202 42.276 40 42.276c-8.202 0-20.79-2.227-37.762-6.682A3 3 0 010 32.692V12a3 3 0 013-3z"/>
            <path fill="#F5F5F8" d="M78 12.179V32.73a3 3 0 01-2.192 2.889c-15.864 4.437-27.633 6.656-35.308 6.656C40 42.276 40 11 40 11c2.256 0 13.865-.605 34.827-1.816A3 3 0 0178 12.179z"/>
            <path stroke="#9D9DBF" stroke-width="2.5" d="M3 10.25A1.75 1.75 0 001.25 12v20.692c0 .795.536 1.49 1.306 1.693C19.432 38.815 31.93 41.026 40 41.026c8.07 0 20.568-2.212 37.444-6.641a1.75 1.75 0 001.306-1.693V12A1.75 1.75 0 0077 10.25H3z"/>
            <rect width="15" height="13" x="33" y="34" fill="#FFF" rx="3"/>
            <path fill="#F5F5F8" d="M45.25 34A2.75 2.75 0 0148 36.75v7.5a2.75 2.75 0 11-5.5 0v-7.5A2.75 2.75 0 0145.25 34z"/>
            <rect width="12.5" height="10.5" x="34.25" y="35.25" stroke="#9D9DBF" stroke-width="2.5" rx="3"/>
        </g>
        <g transform="translate(0 15)">
            <rect width="55" height="38" y="18" fill="#FFF" rx="10"/>
            <path fill="#E5F7FB" d="M36 18h8c5.523 0 10 4.477 10 10v18c0 5.523-4.477 10-10 10h-8V18z"/>
            <rect width="52.5" height="35.5" x="1.25" y="19.25" stroke="#00B3D8" stroke-width="2.5" rx="10"/>
            <circle cx="27.5" cy="7.5" r="6.5" fill="#FFF"/>
            <path fill="#E5F7FB" d="M28 14c3.866 0 5-2.358 5-6.5 0-4.142-1.134-7-5-7V14z"/>
            <circle cx="27.5" cy="7.5" r="6.25" stroke="#00B3D8" stroke-width="2.5"/>
            <circle cx="18.5" cy="34.5" r="3.5" fill="#00B3D8"/>
            <circle cx="35.5" cy="34.5" r="3.5" fill="#00B3D8"/>
        </g>
    </g>
</svg>
