<svg xmlns="http://www.w3.org/2000/svg" width="95" height="74" viewBox="0 0 95 74">
    <g fill="none" fill-rule="evenodd">
        <g>
            <rect width="88" height="69" y="5" fill="#FFF" fill-rule="nonzero" rx="4"/>
            <rect width="31.222" height="69" x="55.282" y="5" fill="#F5F5F8" fill-rule="nonzero" rx="4"/>
            <rect width="85.5" height="66.5" x="1.25" y="6.25" stroke="#9D9DBF" stroke-width="2.5" rx="4"/>
            <path fill="#FFF" fill-rule="nonzero" d="M11.341 1.444C16.995.5 22.255.24 27.119.664c5.81.507 11.436 2.024 16.881 4.55 4.801-2.46 10.339-3.963 16.612-4.51 5.223-.456 10.576-.216 16.06.719A4 4 0 0 1 80 5.366v56.669a4 4 0 0 1-4.814 3.916c-6.71-1.395-11.567-2.093-14.574-2.093-3.684 0-9.221 1.048-16.612 3.142-7.654-2.094-13.281-3.142-16.881-3.142-2.93 0-7.695.694-14.297 2.08A4 4 0 0 1 8 62.025V5.39a4 4 0 0 1 3.341-3.946z"/>
            <path fill="#F5F5F8" fill-rule="nonzero" d="M53.425 2.97c.374 0 7.853-.252 22.437-.755A4 4 0 0 1 80 6.213V62.68a4 4 0 0 1-4.307 3.989C61.22 65.556 53.797 65 53.425 65c-.613 0-.613-62.03 0-62.03z"/>
            <path stroke="#9D9DBF" stroke-width="2.5" d="M43.994 65.703c7.326-2.06 12.85-3.095 16.618-3.095 3.114 0 8.041.708 14.828 2.12a2.75 2.75 0 0 0 3.31-2.693V5.366a2.75 2.75 0 0 0-2.288-2.71c-5.38-.919-10.627-1.154-15.741-.707-6.119.534-11.5 1.995-16.151 4.378l-.543.278-.553-.257C38.16 3.882 32.674 2.404 27.01 1.91c-4.754-.415-9.909-.16-15.463.767A2.75 2.75 0 0 0 9.25 5.39v56.634a2.75 2.75 0 0 0 3.315 2.691c6.68-1.403 11.516-2.107 14.554-2.107 3.684 0 9.292 1.034 16.875 3.095z"/>
            <path stroke="#9D9DBF" stroke-width="2" d="M44 6.214V65"/>
        </g>
        <path stroke="#9D9DBF" stroke-linecap="round" stroke-width="2.5" d="M17 14.436c3.89-.624 7.184-.818 9.885-.582 2.7.236 6.047 1.011 10.039 2.325M17 21.436c3.89-.624 7.184-.818 9.885-.582 2.7.236 4.866.684 6.497 1.344M17 28.436c3.89-.624 7.184-.818 9.885-.582 2.7.236 5.773.894 9.216 1.975"/>
        <g fill-rule="nonzero" transform="translate(40 18)">
            <rect width="55" height="38" y="18" fill="#FFF" rx="10"/>
            <path fill="#E5F7FB" d="M36 18h8c5.523 0 10 4.477 10 10v18c0 5.523-4.477 10-10 10h-8V18z"/>
            <rect width="52.5" height="35.5" x="1.25" y="19.25" stroke="#00B3D8" stroke-width="2.5" rx="10"/>
            <circle cx="27.5" cy="7.5" r="6.5" fill="#FFF"/>
            <path fill="#E5F7FB" d="M28 14c3.866 0 5-2.358 5-6.5 0-4.142-1.134-7-5-7V14z"/>
            <circle cx="27.5" cy="7.5" r="6.25" stroke="#00B3D8" stroke-width="2.5"/>
            <circle cx="18.5" cy="34.5" r="3.5" fill="#00B3D8"/>
            <circle cx="35.5" cy="34.5" r="3.5" fill="#00B3D8"/>
        </g>
    </g>
</svg>
