<svg width="150" height="119" viewBox="0 0 150 119" fill="none" xmlns="http://www.w3.org/2000/svg">
<g clip-path="url(#clip0)">
<mask id="mask0" mask-type="alpha" maskUnits="userSpaceOnUse" x="0" y="-31" width="150" height="150">
<path d="M75 119C116.421 119 150 85.4214 150 44C150 2.57864 116.421 -31 75 -31C33.5786 -31 0 2.57864 0 44C0 85.4214 33.5786 119 75 119Z" fill="white"/>
</mask>
<g mask="url(#mask0)">
<path d="M106 89H44C38.4772 89 34 93.4772 34 99V120C34 125.523 38.4772 130 44 130H106C111.523 130 116 125.523 116 120V99C116 93.4772 111.523 89 106 89Z" fill="white"/>
<path d="M87 89H105C110.523 89 115 93.477 115 99V120C115 125.523 110.523 130 105 130H87V89Z" fill="#E5F7FB"/>
<path d="M104.75 90.25H45.25C39.7272 90.25 35.25 94.7272 35.25 100.25V118.75C35.25 124.273 39.7272 128.75 45.25 128.75H104.75C110.273 128.75 114.75 124.273 114.75 118.75V100.25C114.75 94.7272 110.273 90.25 104.75 90.25Z" stroke="#00B3D8" stroke-width="2.5"/>
<path d="M95 43H55C49.4772 43 45 47.4772 45 53V74C45 79.5228 49.4772 84 55 84H95C100.523 84 105 79.5228 105 74V53C105 47.4772 100.523 43 95 43Z" fill="white"/>
<path d="M83.644 43H93.984C99.506 43 103.984 47.477 103.984 53V74C103.984 79.523 99.506 84 93.984 84H83.644V43V43Z" fill="#E5F7FB"/>
<path d="M93.75 44.25H56.25C50.7272 44.25 46.25 48.7272 46.25 54.25V72.75C46.25 78.2728 50.7272 82.75 56.25 82.75H93.75C99.2728 82.75 103.75 78.2728 103.75 72.75V54.25C103.75 48.7272 99.2728 44.25 93.75 44.25Z" stroke="#00B3D8" stroke-width="2.5"/>
<path d="M75.508 37C78.2694 37 80.508 34.7614 80.508 32C80.508 29.2386 78.2694 27 75.508 27C72.7466 27 70.508 29.2386 70.508 32C70.508 34.7614 72.7466 37 75.508 37Z" fill="white"/>
<path d="M75.508 38C78.601 38 79.508 35.904 79.508 32.222C79.508 28.54 78.601 26 75.508 26V38V38Z" fill="#E5F7FB"/>
<path d="M75.508 36.75C78.1313 36.75 80.258 34.6234 80.258 32C80.258 29.3766 78.1313 27.25 75.508 27.25C72.8846 27.25 70.758 29.3766 70.758 32C70.758 34.6234 72.8846 36.75 75.508 36.75Z" stroke="#00B3D8" stroke-width="2.5"/>
<path d="M65.339 65C67.5857 65 69.407 63.2091 69.407 61C69.407 58.7909 67.5857 57 65.339 57C63.0923 57 61.271 58.7909 61.271 61C61.271 63.2091 63.0923 65 65.339 65Z" fill="#00B3D8"/>
<path d="M83.644 65C85.8907 65 87.712 63.2091 87.712 61C87.712 58.7909 85.8907 57 83.644 57C81.3973 57 79.576 58.7909 79.576 61C79.576 63.2091 81.3973 65 83.644 65Z" fill="#00B3D8"/>
</g>
</g>
<defs>
<clipPath id="clip0">
<rect width="150" height="119" fill="white"/>
</clipPath>
</defs>
</svg>
