<svg xmlns="http://www.w3.org/2000/svg" width="223" height="165" viewBox="0 0 223 165">
    <g fill="none" fill-rule="nonzero">
        <g transform="translate(110)">
            <ellipse cx="55.54" cy="37.431" fill="#FFF" stroke="#9D9DBF" stroke-width="4.375" rx="35.352" ry="35.243"/>
            <path fill="#9D9DBF" d="M58.042 74.861c19.35 0 35.037-16.758 35.037-37.43C93.08 16.758 77.393 0 58.042 0v74.861z" opacity=".1"/>
            <path stroke="#9D9DBF" stroke-width="5" d="M20.92 41.993c-5.486 2.168-9.818 4.318-12.647 6.266-2.361 1.626-3.286 2.848-3.227 3.128.045.21 1.06.84 3.308 1.356 2.797.64 6.851.94 11.869.862 10.457-.162 24.344-1.93 38.921-5.027 14.577-3.099 27.982-7.133 37.601-11.239 4.616-1.97 8.198-3.891 10.492-5.615 1.845-1.385 2.516-2.373 2.47-2.584-.003-.017-.182-.208-.76-.504-.895-.459-2.281-.857-4.096-1.152-3.801-.616-9.212-.74-15.752-.352l-68.18 14.86z"/>
        </g>
        <g transform="translate(0 44)">
            <ellipse cx="21.108" cy="20.961" fill="#FFF" stroke="#9D9DBF" stroke-width="4" rx="18.695" ry="18.961"/>
            <path fill="#9D9DBF" d="M22.488 41.922c10.667 0 19.315-9.384 19.315-20.96C41.803 9.384 33.155 0 22.488 0v41.922z" opacity=".1"/>
        </g>
        <g transform="translate(33 23)">
            <ellipse cx="10.554" cy="10.481" fill="#FFF" stroke="#9D9DBF" stroke-width="4" rx="8.347" ry="8.481"/>
            <path fill="#9D9DBF" d="M11.244 20.961c5.333 0 9.657-4.692 9.657-10.48C20.901 4.692 16.577 0 11.244 0v20.961z" opacity=".1"/>
        </g>
        <rect width="92.156" height="62.125" x="55.188" y="100.688" fill="#FFF" stroke="#9D9DBF" stroke-width="4.375" rx="17.5"/>
        <path fill="#9D9DBF" d="M116.184 98.5h14.092c9.664 0 17.5 7.835 17.5 17.5v31.5c0 9.665-7.836 17.5-17.5 17.5h-14.092V98.5z" opacity=".1"/>
        <g stroke="#9D9DBF" stroke-linecap="round" stroke-width="4">
            <path d="M80.681 123.224l8.665 8.664M89.493 123.076l-8.96 8.96"/>
        </g>
        <g stroke="#9D9DBF" stroke-linecap="round" stroke-width="4">
            <path d="M110.681 123.224l8.665 8.664M119.493 123.076l-8.96 8.96"/>
        </g>
    </g>
</svg>
