<svg xmlns="http://www.w3.org/2000/svg" width="115" height="66">
    <g fill="none" fill-rule="evenodd">
        <g transform="translate(2 2)">
            <path fill="#FFF" fill-rule="nonzero" d="M12.058 7.785h60.51a3 3 0 012.918 3.695l-5.88 24.692a3 3 0 01-2.918 2.305H20.005L12.058 7.785z"/>
            <path fill="#F5F5F8" fill-rule="nonzero" d="M47.906 7.785h24.662a3 3 0 012.918 3.695l-5.88 24.692a3 3 0 01-2.918 2.305h-23.06l4.278-30.692z"/>
            <path stroke="#9D9DBF" stroke-width="2.5" d="M14.494 9.035l7.301 28.192h44.893a1.75 1.75 0 001.703-1.345L74.27 11.19a1.75 1.75 0 00-1.702-2.155H14.494z"/>
            <circle cx="56.635" cy="56.746" r="5.327" fill="#FFF" fill-rule="nonzero" stroke="#9D9DBF" stroke-width="2.5"/>
            <circle cx="31.789" cy="56.746" r="5.327" fill="#FFF" fill-rule="nonzero" stroke="#9D9DBF" stroke-width="2.5"/>
            <path stroke="#9D9DBF" stroke-linecap="round" stroke-width="2.5" d="M0 0h10.5a2 2 0 011.939 1.511l10.26 40.698a4 4 0 003.88 3.022h38.094"/>
        </g>
        <g fill-rule="nonzero" transform="translate(60 10)">
            <rect width="55" height="38" y="18" fill="#FFF" rx="10"/>
            <path fill="#E5F7FB" d="M36 18h8c5.523 0 10 4.477 10 10v18c0 5.523-4.477 10-10 10h-8V18z"/>
            <rect width="52.5" height="35.5" x="1.25" y="19.25" stroke="#00B3D8" stroke-width="2.5" rx="10"/>
            <circle cx="27.5" cy="7.5" r="6.5" fill="#FFF"/>
            <path fill="#E5F7FB" d="M28 14c3.866 0 5-2.358 5-6.5 0-4.142-1.134-7-5-7V14z"/>
            <circle cx="27.5" cy="7.5" r="6.25" stroke="#00B3D8" stroke-width="2.5"/>
            <circle cx="18.5" cy="34.5" r="3.5" fill="#00B3D8"/>
            <circle cx="35.5" cy="34.5" r="3.5" fill="#00B3D8"/>
        </g>
    </g>
</svg>
