<svg xmlns="http://www.w3.org/2000/svg" xmlns:xlink="http://www.w3.org/1999/xlink" width="106" height="106" viewBox="0 0 106 106">
    <defs>
        <circle id="prefix__a" cx="53" cy="53" r="53"/>
    </defs>
    <g fill="none" fill-rule="evenodd">
        <mask id="prefix__b" fill="#fff">
            <use xlink:href="#prefix__a"/>
        </mask>
        <use fill="#00B3D8" opacity=".1" xlink:href="#prefix__a"/>
        <g stroke="#00B3D8" stroke-dasharray="2.5" stroke-width="2.5" mask="url(#prefix__b)">
            <path d="M66.5 70.52c3.59 0 6.5 2.91 6.5 6.5v3.981h1.977c2.222 0 4.023 1.802 4.023 4.023v3.023c0 .552-.448 1-1 1H28c-.552 0-1-.448-1-1v-3.023c0-2.221 1.801-4.023 4.023-4.023H33v-3.98c0-3.59 2.91-6.5 6.5-6.5h-1.834l3.067-21H41c-1.657 0-3-1.344-3-3 0-1.657 1.343-3 3-3h24c1.657 0 3 1.343 3 3 0 1.656-1.343 3-3 3h.267l3.066 21H66.5zM59.66 38l-13.372-.035C43.098 35.806 41 32.153 41 28.009 41 21.377 46.373 16 53 16s12 5.377 12 12.009c0 4.166-2.12 7.837-5.34 9.991z"/>
        </g>
    </g>
</svg>
