<svg xmlns="http://www.w3.org/2000/svg" xmlns:xlink="http://www.w3.org/1999/xlink" width="150" height="150" viewBox="0 0 150 150">
    <defs>
        <circle id="prefix__a" cx="75" cy="75" r="75"/>
    </defs>
    <g fill="none" fill-rule="evenodd">
        <mask id="prefix__b" fill="#fff">
            <use xlink:href="#prefix__a"/>
        </mask>
        <use fill="#E5F7FB" xlink:href="#prefix__a"/>
        <g fill-rule="nonzero" mask="url(#prefix__b)">
            <g transform="translate(46 14)">
                <path fill="#FFF" d="M16.724 49.106L41.275 49.106 44.5 96.532 47.333 105.52 10.666 105.52 13.454 96.532z"/>
                <path fill="#FFF" stroke="#00B3D8" stroke-width="2.5" d="M7.25 111.27h43.5v-3.46c0-1.91-1.55-3.46-3.46-3.46H10.71c-1.91 0-3.46 1.55-3.46 3.46v3.46z"/>
                <path fill="#FFF" stroke="#00B3D8" stroke-width="2.5" d="M1.25 118.797h55.5v-3.773c0-2.083-1.69-3.773-3.773-3.773H5.023c-2.084 0-3.773 1.69-3.773 3.773v3.773z"/>
                <path fill="#E5F7FB" d="M33.404 49.106L40.267 49.106 42.963 96.532 45.333 105.52 30.181 105.52z"/>
                <path stroke="#00B3D8" stroke-width="2.5" d="M17.891 50.356l-3.2 46.407-2.328 7.507h33.266l-2.366-7.504-3.156-46.41H17.891z"/>
                <path fill="#FFF" stroke="#00B3D8" stroke-width="2.5" d="M35.273 28.1c1.575-1.618 2.477-3.785 2.477-6.1 0-4.832-3.918-8.75-8.75-8.75s-8.75 3.918-8.75 8.75c0 2.356.935 4.56 2.56 6.185l12.463-.084z"/>
                <circle cx="29" cy="5" r="3.75" fill="#FFF" stroke="#00B3D8" stroke-width="2.5"/>
                <path fill="#FFF" d="M18.33 25.988l1.999 1.48c.806.598 1.93.505 2.628-.217l4.673-4.834c.76-.786 2.01-.816 2.807-.068l5.275 4.954c.736.69 1.87.725 2.647.08l1.68-1.395c.577-.478 1.432-.399 1.91.178.267.321.371.749.281 1.157l-3.842 17.461c-.201.918-1.014 1.57-1.953 1.57h-14.87c-.94 0-1.752-.652-1.954-1.57l-3.779-17.177c-.189-.857.353-1.705 1.21-1.893.449-.1.918.001 1.287.274z"/>
                <path fill="#E5F7FB" d="M32 25.355l4.533 3.373 2.252-1.328c.952-.562 2.178-.245 2.739.706.222.376.314.813.264 1.247l-1.766 15.232c-.117 1.009-.972 1.77-1.987 1.77H32v-21z"/>
                <path stroke="#00B3D8" stroke-width="2.5" d="M17.242 25.135c-.161-.13-.369-.187-.573-.158-.41.056-.697.435-.64.845l2.576 18.635c.051.371.369.648.743.648h19.304c.374 0 .691-.277.743-.648l2.577-18.635c.028-.204-.03-.412-.16-.573-.259-.322-.731-.373-1.054-.114l-4.308 3.47-6.98-5.621c-.274-.221-.666-.221-.94 0l-6.98 5.621-4.308-3.47z"/>
                <path fill="#FFF" stroke="#00B3D8" stroke-width="2.5" d="M14 45.25c-.414 0-.75.336-.75.75v3.55c0 .415.336.75.75.75h29c.414 0 .75-.335.75-.75V46c0-.414-.336-.75-.75-.75H14z"/>
            </g>
        </g>
        <path stroke="#00B3D8" stroke-width="2.5" d="M7.449 132.798H146.76" mask="url(#prefix__b)"/>
    </g>
</svg>
