<svg xmlns="http://www.w3.org/2000/svg" xmlns:xlink="http://www.w3.org/1999/xlink" width="150" height="150" viewBox="0 0 150 150">
    <defs>
        <circle id="prefix__a" cx="75" cy="75" r="75"/>
    </defs>
    <g fill="none" fill-rule="evenodd">
        <mask id="prefix__b" fill="#fff">
            <use xlink:href="#prefix__a"/>
        </mask>
        <use fill="#E5F7FB" xlink:href="#prefix__a"/>
        <g fill-rule="nonzero" mask="url(#prefix__b)">
            <g>
                <path fill="#FFF" stroke="#00B3D8" stroke-width="2.5" d="M7.25 74.27h37.5v-3.46c0-1.91-1.55-3.46-3.46-3.46H10.71c-1.91 0-3.46 1.55-3.46 3.46v3.46z" transform="translate(49 51)"/>
                <path fill="#FFF" stroke="#00B3D8" stroke-width="2.5" d="M1.25 81.797h49.5v-3.773c0-2.083-1.69-3.773-3.773-3.773H5.023c-2.084 0-3.773 1.69-3.773 3.773v3.773z" transform="translate(49 51)"/>
                <path fill="#FFF" d="M15.733 24.106L36.267 24.106 38.963 61.444 41.333 68.52 10.666 68.52 12.998 61.444z" transform="translate(49 51)"/>
                <path fill="#E5F7FB" d="M29.404 24.106L36.267 24.106 38.963 61.444 41.333 68.52 26.181 68.52z" transform="translate(49 51)"/>
                <path stroke="#00B3D8" stroke-width="2.5" d="M16.895 25.356l-2.662 36.333-1.839 5.581h27.203l-1.869-5.579-2.624-36.335h-18.21z" transform="translate(49 51)"/>
                <path fill="#FFF" d="M9.462 0h3.725c.847 0 1.602.533 1.885 1.331l2.351 6.629h1.66l2.62-6.69C22.002.505 22.741 0 23.564 0h4.842c.837 0 1.586.521 1.876 1.307l2.459 6.653H34.4l2.511-6.665C37.206.515 37.952 0 38.784 0h3.754c1.105 0 2 .895 2 2 0 .138-.014.275-.042.41l-3.634 17.355c-.194.926-1.01 1.59-1.957 1.59h-25.81c-.946 0-1.763-.664-1.957-1.59L7.504 2.41C7.278 1.329 7.971.269 9.052.042 9.187.014 9.324 0 9.462 0z" transform="translate(49 51)"/>
                <path fill="#E5F7FB" d="M26.181 0h2.226c.837 0 1.586.521 1.876 1.307l2.459 6.653H34.4l2.511-6.665C37.206.515 37.952 0 38.784 0h3.754c1.105 0 2 .895 2 2 0 .138-.014.275-.042.41l-3.634 17.355c-.194.926-1.01 1.59-1.957 1.59H26.18V0z" transform="translate(49 51)"/>
                <path stroke="#00B3D8" stroke-width="2.5" d="M9.462 1.25c-.052 0-.103.005-.154.016-.405.085-.665.482-.58.888l3.633 17.354c.073.348.38.597.734.597h25.81c.355 0 .661-.25.734-.597l3.633-17.354c.01-.05.016-.102.016-.154 0-.414-.336-.75-.75-.75h-3.754c-.312 0-.592.193-.702.486L35.266 9.21H31.87l-2.76-7.47c-.11-.294-.39-.49-.704-.49h-4.842c-.309 0-.586.19-.699.476l-2.93 7.484H16.54l-2.646-7.46c-.106-.3-.39-.5-.707-.5H9.462z" transform="translate(49 51)"/>
                <path fill="#FFF" stroke="#00B3D8" stroke-width="2.5" d="M14 20.25c-.414 0-.75.336-.75.75v3.55c0 .415.336.75.75.75h23c.414 0 .75-.335.75-.75V21c0-.414-.336-.75-.75-.75H14z" transform="translate(49 51)"/>
            </g>
        </g>
        <path stroke="#00B3D8" stroke-width="2.5" d="M7.449 132.798H146.76" mask="url(#prefix__b)"/>
    </g>
</svg>
