<svg xmlns="http://www.w3.org/2000/svg" xmlns:xlink="http://www.w3.org/1999/xlink" width="150" height="150" viewBox="0 0 150 150">
    <defs>
        <circle id="prefix__a" cx="75" cy="75" r="75"/>
    </defs>
    <g fill="none" fill-rule="evenodd">
        <mask id="prefix__b" fill="#fff">
            <use xlink:href="#prefix__a"/>
        </mask>
        <use fill="#E5F7FB" xlink:href="#prefix__a"/>
        <g fill-rule="nonzero" mask="url(#prefix__b)">
            <g>
                <path fill="#FFF" d="M16.724 49.106L41.275 49.106 44.5 96.532 47.333 105.52 10.666 105.52 13.454 96.532z" transform="translate(46 14)"/>
                <path fill="#FFF" stroke="#00B3D8" stroke-width="2.5" d="M7.25 111.27h43.5v-3.46c0-1.91-1.55-3.46-3.46-3.46H10.71c-1.91 0-3.46 1.55-3.46 3.46v3.46z" transform="translate(46 14)"/>
                <path fill="#FFF" stroke="#00B3D8" stroke-width="2.5" d="M1.25 118.797h55.5v-3.773c0-2.083-1.69-3.773-3.773-3.773H5.023c-2.084 0-3.773 1.69-3.773 3.773v3.773z" transform="translate(46 14)"/>
                <path fill="#E5F7FB" d="M33.404 49.106L40.267 49.106 42.963 96.532 45.333 105.52 30.181 105.52z" transform="translate(46 14)"/>
                <path stroke="#00B3D8" stroke-width="2.5" d="M17.891 50.356l-3.2 46.407-2.328 7.507h33.266l-2.366-7.504-3.156-46.41H17.891z" transform="translate(46 14)"/>
                <path fill="#FFF" d="M12.462 25h33.076c1.105 0 2 .895 2 2 0 .138-.014.275-.042.41l-3.634 17.355c-.194.926-1.01 1.59-1.957 1.59h-25.81c-.946 0-1.763-.664-1.957-1.59L10.504 27.41c-.226-1.081.467-2.141 1.548-2.368.135-.028.272-.042.41-.042z" transform="translate(46 14)"/>
                <path fill="#E5F7FB" d="M30.181 25h16.357c1.105 0 2 .895 2 2 0 .138-.014.275-.042.41l-3.634 17.355c-.194.926-1.01 1.59-1.957 1.59H30.18V25z" transform="translate(46 14)"/>
                <path stroke="#00B3D8" stroke-width="2.5" d="M9.47 26.25c-.06 0-.12.007-.177.021-.403.098-.65.504-.552.906l4.221 17.355c.082.336.383.573.73.573h30.617c.346 0 .647-.237.729-.573l4.22-17.355c.015-.058.022-.117.022-.177 0-.414-.336-.75-.75-.75H9.47z" transform="translate(46 14)"/>
                <path fill="#FFF" stroke="#00B3D8" stroke-width="2.5" d="M14 45.25c-.414 0-.75.336-.75.75v3.55c0 .415.336.75.75.75h29c.414 0 .75-.335.75-.75V46c0-.414-.336-.75-.75-.75H14zM20 21.25c-.414 0-.75.336-.75.75v3.465c0 .414.336.75.75.75h17c.414 0 .75-.336.75-.75V22c0-.414-.336-.75-.75-.75H20zM26.25 21.192h4.5V3.942c0-1.243-1.007-2.25-2.25-2.25s-2.25 1.007-2.25 2.25v17.25z" transform="translate(46 14)"/>
                <path fill="#FFF" stroke="#00B3D8" stroke-width="2.5" d="M38.25 11.442c0-1.243-1.007-2.25-2.25-2.25H21c-1.243 0-2.25 1.007-2.25 2.25s1.007 2.25 2.25 2.25h15c1.243 0 2.25-1.007 2.25-2.25z" transform="translate(46 14)"/>
            </g>
        </g>
        <path stroke="#00B3D8" stroke-width="2.5" d="M7.449 132.798H146.76" mask="url(#prefix__b)"/>
    </g>
</svg>
