<svg xmlns="http://www.w3.org/2000/svg" xmlns:xlink="http://www.w3.org/1999/xlink" width="130" height="130" viewBox="0 0 130 130">
    <defs>
        <circle id="prefix__a" cx="65" cy="65" r="65"/>
    </defs>
    <g fill="none" fill-rule="evenodd">
        <mask id="prefix__b" fill="#fff">
            <use xlink:href="#prefix__a"/>
        </mask>
        <use fill="#00B3D8" opacity=".15" xlink:href="#prefix__a"/>
        <g fill-rule="nonzero" mask="url(#prefix__b)">
            <g>
                <path fill="#143041" stroke="#00B3D8" stroke-width="2.5" d="M26.25 21.192h4.5v-7.5H36c1.243 0 2.25-1.007 2.25-2.25s-1.007-2.25-2.25-2.25h-5.25v-5.25c0-1.243-1.007-2.25-2.25-2.25s-2.25 1.007-2.25 2.25v5.25H21c-1.243 0-2.25 1.007-2.25 2.25s1.007 2.25 2.25 2.25h5.25v7.5z" transform="translate(36 9)"/>
                <path fill="#143041" d="M16.724 49.106L41.275 49.106 44.5 88.125 47.333 95.52 10.666 95.52 13.454 88.125z" transform="translate(36 9)"/>
                <path fill="#143041" stroke="#00B3D8" stroke-width="2.5" d="M7.25 101.27h43.5v-3.46c0-1.91-1.55-3.46-3.46-3.46H10.71c-1.91 0-3.46 1.55-3.46 3.46v3.46z" transform="translate(36 9)"/>
                <path fill="#143041" stroke="#00B3D8" stroke-width="2.5" d="M1.25 108.797h55.5v-3.773c0-2.083-1.69-3.773-3.773-3.773H5.023c-2.084 0-3.773 1.69-3.773 3.773v3.773z" transform="translate(36 9)"/>
                <path fill="#00B3D8" d="M30.181 49.106L40.267 49.106 42.963 88.125 45.333 95.52 30.181 95.52z" opacity=".25" transform="translate(36 9)"/>
                <path stroke="#00B3D8" stroke-width="2.5" d="M17.874 50.356l-3.19 38.047-2.21 5.867h33.042l-2.247-5.864-3.145-38.05h-22.25z" transform="translate(36 9)"/>
                <path fill="#143041" d="M12.462 25h33.076c1.105 0 2 .895 2 2 0 .138-.014.275-.042.41l-3.634 17.355c-.194.926-1.01 1.59-1.957 1.59h-25.81c-.946 0-1.763-.664-1.957-1.59L10.504 27.41c-.226-1.081.467-2.141 1.548-2.368.135-.028.272-.042.41-.042z" transform="translate(36 9)"/>
                <path fill="#00B3D8" d="M30.181 25h16.357c1.105 0 2 .895 2 2 0 .138-.014.275-.042.41l-3.634 17.355c-.194.926-1.01 1.59-1.957 1.59H30.18V25z" opacity=".25" transform="translate(36 9)"/>
                <path stroke="#00B3D8" stroke-width="2.5" d="M9.47 26.25c-.06 0-.12.007-.177.021-.403.098-.65.504-.552.906l4.221 17.355c.082.336.383.573.73.573h30.617c.346 0 .647-.237.729-.573l4.22-17.355c.015-.058.022-.117.022-.177 0-.414-.336-.75-.75-.75H9.47z" transform="translate(36 9)"/>
                <path fill="#143041" stroke="#00B3D8" stroke-width="2.5" d="M14 45.25c-.414 0-.75.336-.75.75v3.55c0 .415.336.75.75.75h29c.414 0 .75-.335.75-.75V46c0-.414-.336-.75-.75-.75H14zM20 21.25c-.414 0-.75.336-.75.75v3.465c0 .414.336.75.75.75h17c.414 0 .75-.336.75-.75V22c0-.414-.336-.75-.75-.75H20z" transform="translate(36 9)"/>
            </g>
        </g>
        <path stroke="#00B3D8" stroke-width="2.5" d="M-5 117.843h139.313" mask="url(#prefix__b)"/>
    </g>
</svg>
