<svg xmlns="http://www.w3.org/2000/svg" width="97" height="64" viewBox="0 0 97 64">
    <g fill="none" fill-rule="evenodd">
        <g transform="translate(33)">
            <path fill="#9D9DBF" fill-rule="nonzero" d="M43 0h14.477a4 4 0 0 1 4 4v55.183a4 4 0 0 1-4 4H43a4 4 0 0 1-4-4V4a4 4 0 0 1 4-4z" opacity=".1"/>
            <rect width="60.172" height="60.75" x="2.116" y="1.125" stroke="#9D9DBF" stroke-width="2.25" rx="8"/>
            <rect width="2.5" height="21" x="20" y="33" fill="#9D9DBF" rx="1.25"/>
            <rect width="2.5" height="11" x="34" y="43" fill="#9D9DBF" rx="1.25"/>
            <rect width="2.5" height="26" x="48" y="28" fill="#9D9DBF" rx="1.25"/>
            <path stroke="#9D9DBF" stroke-linecap="round" stroke-linejoin="round" stroke-width="2.5" d="M14.45 18.5h6.8l14 9.725L49.25 12"/>
            <path stroke="#9D9DBF" stroke-linecap="round" stroke-linejoin="round" stroke-width="2.5" d="M50.239 17.805l-.288-6.394h-6.622"/>
        </g>
        <g fill-rule="nonzero" transform="translate(0 12)">
            <rect width="47.2" height="32.75" x="1.125" y="17.35" fill="#FFF" stroke="#00B3D8" stroke-width="2.25" rx="9"/>
            <path fill="#00B3D8" d="M32.367 16.225h7.183a9 9 0 0 1 9 9V41.48a9 9 0 0 1-9 9h-7.183V16.225z" opacity=".05"/>
            <ellipse cx="24.725" cy="6.761" fill="#FFF" stroke="#00B3D8" stroke-width="2.25" rx="5.618" ry="5.636"/>
            <path fill="#00B3D8" d="M25.174 13.521c3.476 0 6.294-3.027 6.294-6.76C31.468 3.027 28.65 0 25.174 0v13.521z" opacity=".1"/>
            <circle cx="16.45" cy="30.479" r="3" fill="#00B3D8"/>
            <circle cx="32.45" cy="30.479" r="3" fill="#00B3D8"/>
        </g>
    </g>
</svg>
