<svg xmlns="http://www.w3.org/2000/svg" width="170" height="175">
    <g fill="none" fill-rule="evenodd">
        <rect width="92.156" height="62.125" x="2.188" y="110.688" fill="#FFF" fill-rule="nonzero" stroke="#9D9DBF" stroke-width="4.375" rx="17.5"/>
        <path fill="#9D9DBF" fill-rule="nonzero" d="M63.184 108.5h14.092c9.664 0 17.5 7.835 17.5 17.5v31.5c0 9.665-7.836 17.5-17.5 17.5H63.184v-66.5z" opacity=".1"/>
        <ellipse cx="48.265" cy="90.125" fill="#FFF" fill-rule="nonzero" stroke="#9D9DBF" stroke-width="4.375" rx="10.976" ry="10.937"/>
        <path fill="#9D9DBF" fill-rule="nonzero" d="M49.143 103.25c6.785 0 12.286-5.876 12.286-13.125S55.929 77 49.143 77v26.25z" opacity=".1"/>
        <ellipse cx="32.469" cy="137.375" fill="#9D9DBF" fill-rule="nonzero" rx="6.143" ry="6.125"/>
        <ellipse cx="62.306" cy="137.375" fill="#9D9DBF" fill-rule="nonzero" rx="6.143" ry="6.125"/>
        <path fill="#F5F5F8" d="M121.735 96.25C148.39 96.25 170 74.704 170 48.125S148.39 0 121.735 0c0 0 29.546 12.015 29.546 48.125S121.735 96.25 121.735 96.25z"/>
        <path stroke="#9D9DBF" stroke-width="4.375" d="M84.184 89.001c7.598-1.88 12.51-2.188 15.164-.715 6.788 3.77 14.439 5.776 22.387 5.776 25.45 0 46.078-20.568 46.078-45.937 0-25.37-20.629-45.937-46.078-45.937-25.45 0-46.078 20.568-46.078 45.937 0 9.202 2.717 17.996 7.733 25.482 1.61 2.405 1.796 7.378.794 15.394z"/>
        <path fill="#9D9DBF" fill-rule="nonzero" d="M138.408 43.43v2.642a.957.957 0 00-.06.182 9.832 9.832 0 01-.9 3.037 20.715 20.715 0 01-4.042 5.63c-3.378 3.48-7.266 6.303-11.404 8.812a.41.41 0 01-.497 0 60.209 60.209 0 01-9.336-6.808 28.902 28.902 0 01-5.346-6.197 11.106 11.106 0 01-1.45-8.615c1.514-6.666 9.897-9.39 15.119-4.922.447.38.84.822 1.287 1.258.027-.046.057-.09.09-.133 2.334-2.585 5.218-3.74 8.67-3.166 3.784.628 6.265 2.866 7.472 6.468.166.597.299 1.202.397 1.813z"/>
    </g>
</svg>
