<svg width="100%" height="100%" viewBox="0 0 771 258" fill="none" xmlns="http://www.w3.org/2000/svg">
<rect x="27" y="101" width="21" height="109" fill="#00B3D8"/>
<rect x="36" y="65" width="3" height="181" fill="#00B3D8"/>
<rect x="81" y="101" width="21" height="83" fill="#00B3D8"/>
<rect x="90" y="68" width="3" height="149" fill="#00B3D8"/>
<rect x="135" y="92" width="21" height="127" fill="#EAA2A2"/>
<rect x="144" y="77" width="3" height="157" fill="#EAA2A2"/>
<rect x="189" y="94" width="21" height="83" fill="#00B3D8"/>
<rect x="198" y="56" width="3" height="159" fill="#00B3D8"/>
<rect x="243" y="70" width="21" height="99" fill="#00B3D8"/>
<rect x="252" y="48" width="3" height="143" fill="#00B3D8"/>
<rect x="297" y="73" width="21" height="125" fill="#EAA2A2"/>
<rect x="306" y="45" width="3" height="181" fill="#EAA2A2"/>
<rect x="347" y="52" width="21" height="109" fill="#00B3D8"/>
<rect x="356" y="34" width="3" height="145" fill="#00B3D8"/>
<rect x="397" y="34" width="21" height="93" fill="#00B3D8"/>
<rect x="406" width="3" height="161" fill="#00B3D8"/>
<rect x="592" y="131" width="21" height="109" fill="#00B3D8"/>
<rect x="601" y="113" width="3" height="145" fill="#00B3D8"/>
<rect x="642" y="113" width="21" height="93" fill="#00B3D8"/>
<rect x="651" y="79" width="3" height="161" fill="#00B3D8"/>
<rect x="691" y="86" width="21" height="109" fill="#00B3D8"/>
<rect x="700" y="68" width="3" height="145" fill="#00B3D8"/>
<rect x="741" y="68" width="21" height="93" fill="#00B3D8"/>
<rect x="750" y="34" width="3" height="161" fill="#00B3D8"/>
<rect x="447" y="52" width="21" height="109" fill="#EAA2A2"/>
<rect x="456" y="16" width="3" height="181" fill="#EAA2A2"/>
<rect x="497" y="81" width="21" height="109" fill="#EAA2A2"/>
<rect x="506" y="45" width="3" height="181" fill="#EAA2A2"/>
<rect x="542" y="106" width="21" height="109" fill="#EAA2A2"/>
<rect x="551" y="70" width="3" height="181" fill="#EAA2A2"/>
<path d="M0.5 154.5C38.8333 160.333 132.2 170.5 199 164.5C282.5 157 318.5 96 392 96C450.8 96 529.5 182 578 182C665 182 719 124.667 769.5 96" stroke="#F2F4F9" stroke-width="4" stroke-linejoin="round" stroke-dasharray="5 5"/>
<circle cx="144" cy="169" r="20" fill="#ED903A" fill-opacity="0.5" stroke="#CE7829" stroke-width="4"/>
<circle cx="407" cy="98" r="20" fill="#ED903A" fill-opacity="0.5" stroke="#CE7829" stroke-width="4"/>
<circle cx="601" cy="182" r="20" fill="#ED903A" fill-opacity="0.5" stroke="#CE7829" stroke-width="4"/>
</svg>