<svg xmlns="http://www.w3.org/2000/svg" width="20" height="20" viewBox="0 0 20 20">
    <path fill="#00B3D8" d="M15.833 2.5H4.167c-.92 0-1.667.746-1.667 1.667v11.666c0 .92.746 1.667 1.667 1.667h11.666c.92 0 1.667-.746 1.667-1.667V4.167c0-.92-.746-1.667-1.667-1.667zm-8.75 12.083c0 .23-.186.417-.416.417h-1.25c-.23 0-.417-.187-.417-.417V8.75c0-.23.187-.417.417-.417h1.25c.23 0 .416.187.416.417v5.833zM6.042 7.5c-.69 0-1.25-.56-1.25-1.25S5.352 5 6.042 5s1.25.56 1.25 1.25-.56 1.25-1.25 1.25zM15 14.583c0 .23-.187.417-.417.417h-1.25c-.23 0-.416-.187-.416-.417v-3.125c0-.69-.56-1.25-1.25-1.25s-1.25.56-1.25 1.25v3.125c0 .23-.187.417-.417.417H8.75c-.23 0-.417-.187-.417-.417V8.75c0-.23.187-.417.417-.417H10c.23 0 .417.187.417.417v.5c.507-.771 1.397-1.2 2.316-1.117 1.315.162 2.294 1.293 2.267 2.617v3.833z"/>
</svg>
